NotoSansTelugu-Light.ufo
<glyph name="exclam.telu" format="2">
  <advance width="264"/>
  <unicode hex="0021"/>
  <outline>
    <contour>
      <point x="144" y="162" type="line"/>
      <point x="146" y="657" type="line"/>
      <point x="118" y="657" type="line"/>
      <point x="120" y="162" type="line"/>
    </contour>
    <contour>
      <point x="106" y="19" type="curve" smooth="yes"/>
      <point x="106" y="2"/>
      <point x="111" y="-12"/>
      <point x="131" y="-12" type="curve" smooth="yes"/>
      <point x="155" y="-12"/>
      <point x="158" y="2"/>
      <point x="158" y="19" type="curve" smooth="yes"/>
      <point x="158" y="35"/>
      <point x="155" y="50"/>
      <point x="131" y="50" type="curve" smooth="yes"/>
      <point x="111" y="50"/>
      <point x="106" y="35"/>
    </contour>
  </outline>
</glyph>
<glyph name="quotedbl.telu" format="2">
  <advance width="386"/>
  <unicode hex="0022"/>
  <outline>
    <contour>
      <point x="110" y="515" type="line"/>
      <point x="131" y="515" type="line"/>
      <point x="135" y="773" type="line"/>
      <point x="107" y="773" type="line"/>
    </contour>
    <contour>
      <point x="254" y="515" type="line"/>
      <point x="275" y="515" type="line"/>
      <point x="279" y="773" type="line"/>
      <point x="251" y="773" type="line"/>
    </contour>
  </outline>
</glyph>
<glyph name="numbersign.telu" format="2">
  <advance width="646"/>
  <unicode hex="0023"/>
  <outline>
    <contour>
      <point x="130" y="0" type="line"/>
      <point x="157" y="0" type="line"/>
      <point x="199" y="207" type="line"/>
      <point x="396" y="207" type="line"/>
      <point x="354" y="0" type="line"/>
      <point x="381" y="0" type="line"/>
      <point x="423" y="207" type="line"/>
      <point x="574" y="207" type="line"/>
      <point x="574" y="233" type="line"/>
      <point x="428" y="233" type="line"/>
      <point x="466" y="422" type="line"/>
      <point x="618" y="422" type="line"/>
      <point x="618" y="448" type="line"/>
      <point x="471" y="448" type="line"/>
      <point x="511" y="649" type="line"/>
      <point x="484" y="649" type="line"/>
      <point x="444" y="448" type="line"/>
      <point x="246" y="448" type="line"/>
      <point x="287" y="649" type="line"/>
      <point x="260" y="649" type="line"/>
      <point x="219" y="448" type="line"/>
      <point x="72" y="448" type="line"/>
      <point x="72" y="422" type="line"/>
      <point x="215" y="422" type="line"/>
      <point x="177" y="233" type="line"/>
      <point x="28" y="233" type="line"/>
      <point x="28" y="207" type="line"/>
      <point x="172" y="207" type="line"/>
    </contour>
    <contour>
      <point x="204" y="233" type="line"/>
      <point x="242" y="422" type="line"/>
      <point x="439" y="422" type="line"/>
      <point x="401" y="233" type="line"/>
    </contour>
  </outline>
</glyph>
<glyph name="percent.telu" format="2">
  <advance width="793"/>
  <unicode hex="0025"/>
  <outline>
    <contour>
      <point x="185" y="0" type="line"/>
      <point x="215" y="0" type="line"/>
      <point x="608" y="649" type="line"/>
      <point x="578" y="649" type="line"/>
    </contour>
    <contour>
      <point x="195" y="276" type="curve" smooth="yes"/>
      <point x="281" y="276"/>
      <point x="333" y="339"/>
      <point x="333" y="469" type="curve" smooth="yes"/>
      <point x="333" y="594"/>
      <point x="289" y="661"/>
      <point x="197" y="661" type="curve" smooth="yes"/>
      <point x="112" y="661"/>
      <point x="59" y="597"/>
      <point x="59" y="469" type="curve" smooth="yes"/>
      <point x="59" y="342"/>
      <point x="107" y="276"/>
    </contour>
    <contour>
      <point x="195" y="302" type="curve" smooth="yes"/>
      <point x="125" y="302"/>
      <point x="86" y="358"/>
      <point x="86" y="469" type="curve" smooth="yes"/>
      <point x="86" y="582"/>
      <point x="127" y="635"/>
      <point x="197" y="635" type="curve" smooth="yes"/>
      <point x="273" y="635"/>
      <point x="306" y="577"/>
      <point x="306" y="469" type="curve" smooth="yes"/>
      <point x="306" y="360"/>
      <point x="269" y="302"/>
    </contour>
    <contour>
      <point x="596" y="-12" type="curve" smooth="yes"/>
      <point x="682" y="-12"/>
      <point x="734" y="51"/>
      <point x="734" y="181" type="curve" smooth="yes"/>
      <point x="734" y="306"/>
      <point x="690" y="373"/>
      <point x="598" y="373" type="curve" smooth="yes"/>
      <point x="513" y="373"/>
      <point x="460" y="309"/>
      <point x="460" y="181" type="curve" smooth="yes"/>
      <point x="460" y="54"/>
      <point x="508" y="-12"/>
    </contour>
    <contour>
      <point x="596" y="14" type="curve" smooth="yes"/>
      <point x="526" y="14"/>
      <point x="487" y="70"/>
      <point x="487" y="181" type="curve" smooth="yes"/>
      <point x="487" y="294"/>
      <point x="528" y="347"/>
      <point x="598" y="347" type="curve" smooth="yes"/>
      <point x="674" y="347"/>
      <point x="707" y="289"/>
      <point x="707" y="181" type="curve" smooth="yes"/>
      <point x="707" y="72"/>
      <point x="670" y="14"/>
    </contour>
  </outline>
</glyph>
<glyph name="quotesingle.telu" format="2">
  <advance width="242"/>
  <unicode hex="0027"/>
  <outline>
    <contour>
      <point x="110" y="515" type="line"/>
      <point x="131" y="515" type="line"/>
      <point x="135" y="773" type="line"/>
      <point x="107" y="773" type="line"/>
    </contour>
  </outline>
</glyph>
<glyph name="parenleft.telu" format="2">
  <advance width="318"/>
  <unicode hex="0028"/>
  <outline>
    <contour>
      <point x="55" y="206" type="curve" smooth="yes"/>
      <point x="55" y="-8"/>
      <point x="117" y="-205"/>
      <point x="238" y="-361" type="curve"/>
      <point x="267" y="-361" type="line"/>
      <point x="135" y="-186"/>
      <point x="82" y="1"/>
      <point x="82" y="206" type="curve" smooth="yes"/>
      <point x="82" y="411"/>
      <point x="135" y="598"/>
      <point x="267" y="773" type="curve"/>
      <point x="238" y="773" type="line"/>
      <point x="117" y="617"/>
      <point x="55" y="420"/>
    </contour>
  </outline>
</glyph>
<glyph name="parenright.telu" format="2">
  <advance width="319"/>
  <unicode hex="0029"/>
  <outline>
    <contour>
      <point x="264" y="206" type="curve" smooth="yes"/>
      <point x="264" y="420"/>
      <point x="202" y="617"/>
      <point x="81" y="773" type="curve"/>
      <point x="52" y="773" type="line"/>
      <point x="184" y="598"/>
      <point x="237" y="411"/>
      <point x="237" y="206" type="curve" smooth="yes"/>
      <point x="237" y="1"/>
      <point x="184" y="-186"/>
      <point x="52" y="-361" type="curve"/>
      <point x="81" y="-361" type="line"/>
      <point x="202" y="-205"/>
      <point x="264" y="-8"/>
    </contour>
  </outline>
</glyph>
<glyph name="asterisk.telu" format="2">
  <advance width="510"/>
  <unicode hex="002A"/>
  <outline>
    <contour>
      <point x="281" y="773" type="line"/>
      <point x="253" y="773" type="line"/>
      <point x="256" y="570" type="line"/>
      <point x="65" y="636" type="line"/>
      <point x="56" y="609" type="line"/>
      <point x="250" y="551" type="line"/>
      <point x="129" y="389" type="line"/>
      <point x="152" y="373" type="line"/>
      <point x="267" y="540" type="line"/>
      <point x="383" y="372" type="line"/>
      <point x="406" y="389" type="line"/>
      <point x="284" y="551" type="line"/>
      <point x="477" y="609" type="line"/>
      <point x="469" y="636" type="line"/>
      <point x="278" y="570" type="line"/>
    </contour>
  </outline>
</glyph>
<glyph name="plus.telu" format="2">
  <advance width="572"/>
  <unicode hex="002B"/>
  <outline>
    <contour>
      <point x="273" y="313" type="line"/>
      <point x="273" y="96" type="line"/>
      <point x="299" y="96" type="line"/>
      <point x="299" y="313" type="line"/>
      <point x="516" y="313" type="line"/>
      <point x="516" y="339" type="line"/>
      <point x="299" y="339" type="line"/>
      <point x="299" y="556" type="line"/>
      <point x="273" y="556" type="line"/>
      <point x="273" y="339" type="line"/>
      <point x="56" y="339" type="line"/>
      <point x="56" y="313" type="line"/>
    </contour>
  </outline>
</glyph>
<glyph name="comma.telu" format="2">
  <advance width="216"/>
  <unicode hex="002C"/>
  <outline>
    <contour>
      <point x="129" y="119" type="line"/>
      <point x="104" y="119" type="line"/>
      <point x="97" y="47"/>
      <point x="74" y="-57"/>
      <point x="47" y="-126" type="curve"/>
      <point x="69" y="-126" type="line"/>
      <point x="99" y="-57"/>
      <point x="124" y="28"/>
      <point x="135" y="110" type="curve"/>
    </contour>
  </outline>
</glyph>
<glyph name="hyphen.telu" format="2">
  <advance width="320"/>
  <unicode hex="002D"/>
  <outline>
    <contour>
      <point x="40" y="239" type="line"/>
      <point x="280" y="239" type="line"/>
      <point x="280" y="264" type="line"/>
      <point x="40" y="264" type="line"/>
    </contour>
  </outline>
</glyph>
<glyph name="slash.telu" format="2">
  <advance width="384"/>
  <unicode hex="002F"/>
  <outline>
    <contour>
      <point x="348" y="773" type="line"/>
      <point x="321" y="773" type="line"/>
      <point x="36" y="-361" type="line"/>
      <point x="63" y="-361" type="line"/>
    </contour>
  </outline>
</glyph>
<glyph name="zero.telu" format="2">
  <advance width="572"/>
  <unicode hex="0030"/>
  <outline>
    <contour>
      <point x="508" y="326" type="curve" smooth="yes"/>
      <point x="508" y="525"/>
      <point x="460" y="661"/>
      <point x="287" y="661" type="curve" smooth="yes"/>
      <point x="119" y="661"/>
      <point x="63" y="520"/>
      <point x="63" y="326" type="curve" smooth="yes"/>
      <point x="63" y="95"/>
      <point x="142" y="-12"/>
      <point x="286" y="-12" type="curve" smooth="yes"/>
      <point x="437" y="-12"/>
      <point x="508" y="100"/>
    </contour>
    <contour>
      <point x="90" y="326" type="curve" smooth="yes"/>
      <point x="90" y="506"/>
      <point x="137" y="635"/>
      <point x="287" y="635" type="curve" smooth="yes"/>
      <point x="441" y="635"/>
      <point x="481" y="512"/>
      <point x="481" y="326" type="curve" smooth="yes"/>
      <point x="481" y="115"/>
      <point x="423" y="14"/>
      <point x="286" y="14" type="curve" smooth="yes"/>
      <point x="156" y="14"/>
      <point x="90" y="113"/>
    </contour>
  </outline>
</glyph>
<glyph name="one.telu" format="2">
  <advance width="572"/>
  <unicode hex="0031"/>
  <outline>
    <contour>
      <point x="324" y="0" type="line"/>
      <point x="324" y="656" type="line"/>
      <point x="301" y="656" type="line"/>
      <point x="106" y="514" type="line"/>
      <point x="122" y="493" type="line"/>
      <point x="245" y="584" type="line" smooth="yes"/>
      <point x="270" y="603"/>
      <point x="283" y="613"/>
      <point x="299" y="627" type="curve"/>
      <point x="298" y="600"/>
      <point x="298" y="562"/>
      <point x="298" y="505" type="curve" smooth="yes"/>
      <point x="298" y="0" type="line"/>
    </contour>
  </outline>
</glyph>
<glyph name="two.telu" format="2">
  <advance width="572"/>
  <unicode hex="0032"/>
  <outline>
    <contour>
      <point x="491" y="0" type="line"/>
      <point x="491" y="26" type="line"/>
      <point x="98" y="26" type="line"/>
      <point x="98" y="28" type="line"/>
      <point x="305" y="226" type="line" smooth="yes"/>
      <point x="402" y="319"/>
      <point x="459" y="384"/>
      <point x="459" y="493" type="curve" smooth="yes"/>
      <point x="459" y="595"/>
      <point x="385" y="661"/>
      <point x="270" y="661" type="curve" smooth="yes"/>
      <point x="208" y="661"/>
      <point x="141" y="642"/>
      <point x="80" y="592" type="curve"/>
      <point x="95" y="571" type="line"/>
      <point x="148" y="614"/>
      <point x="211" y="635"/>
      <point x="268" y="635" type="curve" smooth="yes"/>
      <point x="370" y="635"/>
      <point x="432" y="581"/>
      <point x="432" y="490" type="curve" smooth="yes"/>
      <point x="432" y="390"/>
      <point x="378" y="332"/>
      <point x="282" y="239" type="curve" smooth="yes"/>
      <point x="59" y="23" type="line"/>
      <point x="59" y="0" type="line"/>
    </contour>
  </outline>
</glyph>
<glyph name="three.telu" format="2">
  <advance width="572"/>
  <unicode hex="0033"/>
  <outline>
    <contour>
      <point x="469" y="503" type="curve" smooth="yes"/>
      <point x="469" y="607"/>
      <point x="390" y="661"/>
      <point x="268" y="661" type="curve" smooth="yes"/>
      <point x="178" y="661"/>
      <point x="110" y="630"/>
      <point x="54" y="587" type="curve"/>
      <point x="68" y="565" type="line"/>
      <point x="122" y="607"/>
      <point x="188" y="635"/>
      <point x="268" y="635" type="curve" smooth="yes"/>
      <point x="373" y="635"/>
      <point x="442" y="593"/>
      <point x="442" y="501" type="curve" smooth="yes"/>
      <point x="442" y="398"/>
      <point x="344" y="353"/>
      <point x="238" y="353" type="curve" smooth="yes"/>
      <point x="155" y="353" type="line"/>
      <point x="155" y="327" type="line"/>
      <point x="238" y="327" type="line" smooth="yes"/>
      <point x="371" y="327"/>
      <point x="464" y="286"/>
      <point x="464" y="175" type="curve" smooth="yes"/>
      <point x="464" y="77"/>
      <point x="394" y="14"/>
      <point x="246" y="14" type="curve" smooth="yes"/>
      <point x="172" y="14"/>
      <point x="96" y="34"/>
      <point x="46" y="59" type="curve"/>
      <point x="46" y="30" type="line"/>
      <point x="97" y="6"/>
      <point x="164" y="-12"/>
      <point x="246" y="-12" type="curve" smooth="yes"/>
      <point x="410" y="-12"/>
      <point x="491" y="64"/>
      <point x="491" y="176" type="curve" smooth="yes"/>
      <point x="491" y="274"/>
      <point x="428" y="327"/>
      <point x="317" y="341" type="curve"/>
      <point x="317" y="343" type="line"/>
      <point x="404" y="357"/>
      <point x="469" y="417"/>
    </contour>
  </outline>
</glyph>
<glyph name="four.telu" format="2">
  <advance width="572"/>
  <unicode hex="0034"/>
  <outline>
    <contour>
      <point x="550" y="177" type="line"/>
      <point x="550" y="203" type="line"/>
      <point x="420" y="203" type="line"/>
      <point x="420" y="656" type="line"/>
      <point x="392" y="656" type="line"/>
      <point x="23" y="201" type="line"/>
      <point x="23" y="177" type="line"/>
      <point x="394" y="177" type="line"/>
      <point x="394" y="0" type="line"/>
      <point x="420" y="0" type="line"/>
      <point x="420" y="177" type="line"/>
    </contour>
    <contour>
      <point x="394" y="203" type="line"/>
      <point x="55" y="203" type="line"/>
      <point x="323" y="532" type="line" smooth="yes"/>
      <point x="352" y="568"/>
      <point x="370" y="591"/>
      <point x="393" y="624" type="curve"/>
      <point x="395" y="624" type="line"/>
      <point x="394" y="573"/>
      <point x="394" y="533"/>
      <point x="394" y="462" type="curve" smooth="yes"/>
    </contour>
  </outline>
</glyph>
<glyph name="five.telu" format="2">
  <advance width="572"/>
  <unicode hex="0035"/>
  <outline>
    <contour>
      <point x="272" y="394" type="curve" smooth="yes"/>
      <point x="209" y="394"/>
      <point x="161" y="385"/>
      <point x="124" y="374" type="curve"/>
      <point x="147" y="623" type="line"/>
      <point x="460" y="623" type="line"/>
      <point x="460" y="649" type="line"/>
      <point x="123" y="649" type="line"/>
      <point x="96" y="360" type="line"/>
      <point x="115" y="345" type="line"/>
      <point x="161" y="359"/>
      <point x="212" y="368"/>
      <point x="271" y="368" type="curve" smooth="yes"/>
      <point x="406" y="368"/>
      <point x="476" y="304"/>
      <point x="476" y="199" type="curve" smooth="yes"/>
      <point x="476" y="83"/>
      <point x="387" y="14"/>
      <point x="251" y="14" type="curve" smooth="yes"/>
      <point x="178" y="14"/>
      <point x="117" y="34"/>
      <point x="72" y="61" type="curve"/>
      <point x="72" y="30" type="line"/>
      <point x="114" y="6"/>
      <point x="172" y="-12"/>
      <point x="250" y="-12" type="curve" smooth="yes"/>
      <point x="404" y="-12"/>
      <point x="503" y="68"/>
      <point x="503" y="199" type="curve" smooth="yes"/>
      <point x="503" y="326"/>
      <point x="418" y="394"/>
    </contour>
  </outline>
</glyph>
<glyph name="six.telu" format="2">
  <advance width="572"/>
  <unicode hex="0036"/>
  <outline>
    <contour>
      <point x="71" y="272" type="curve" smooth="yes"/>
      <point x="71" y="131"/>
      <point x="130" y="-12"/>
      <point x="302" y="-12" type="curve" smooth="yes"/>
      <point x="438" y="-12"/>
      <point x="516" y="76"/>
      <point x="516" y="204" type="curve" smooth="yes"/>
      <point x="516" y="324"/>
      <point x="441" y="402"/>
      <point x="309" y="402" type="curve" smooth="yes"/>
      <point x="194" y="402"/>
      <point x="125" y="344"/>
      <point x="100" y="292" type="curve"/>
      <point x="98" y="292" type="line"/>
      <point x="102" y="550"/>
      <point x="221" y="635"/>
      <point x="370" y="635" type="curve" smooth="yes"/>
      <point x="410" y="635"/>
      <point x="444" y="629"/>
      <point x="468" y="620" type="curve"/>
      <point x="468" y="648" type="line"/>
      <point x="441" y="656"/>
      <point x="410" y="661"/>
      <point x="370" y="661" type="curve" smooth="yes"/>
      <point x="199" y="661"/>
      <point x="71" y="553"/>
    </contour>
    <contour>
      <point x="302" y="14" type="curve" smooth="yes"/>
      <point x="140" y="14"/>
      <point x="102" y="160"/>
      <point x="102" y="227" type="curve" smooth="yes"/>
      <point x="102" y="293"/>
      <point x="179" y="376"/>
      <point x="307" y="376" type="curve" smooth="yes"/>
      <point x="426" y="376"/>
      <point x="489" y="310"/>
      <point x="489" y="203" type="curve" smooth="yes"/>
      <point x="489" y="86"/>
      <point x="423" y="14"/>
    </contour>
  </outline>
</glyph>
<glyph name="seven.telu" format="2">
  <advance width="572"/>
  <unicode hex="0037"/>
  <outline>
    <contour>
      <point x="180" y="0" type="line"/>
      <point x="209" y="0" type="line"/>
      <point x="507" y="631" type="line"/>
      <point x="507" y="649" type="line"/>
      <point x="55" y="649" type="line"/>
      <point x="55" y="623" type="line"/>
      <point x="475" y="623" type="line"/>
    </contour>
  </outline>
</glyph>
<glyph name="eight.telu" format="2">
  <advance width="572"/>
  <unicode hex="0038"/>
  <outline>
    <contour>
      <point x="285" y="661" type="curve" smooth="yes"/>
      <point x="170" y="661"/>
      <point x="89" y="603"/>
      <point x="89" y="508" type="curve" smooth="yes"/>
      <point x="89" y="421"/>
      <point x="167" y="376"/>
      <point x="253" y="346" type="curve"/>
      <point x="145" y="310"/>
      <point x="66" y="257"/>
      <point x="66" y="157" type="curve" smooth="yes"/>
      <point x="66" y="54"/>
      <point x="152" y="-12"/>
      <point x="281" y="-12" type="curve" smooth="yes"/>
      <point x="408" y="-12"/>
      <point x="505" y="50"/>
      <point x="505" y="163" type="curve" smooth="yes"/>
      <point x="505" y="257"/>
      <point x="437" y="307"/>
      <point x="316" y="347" type="curve"/>
      <point x="415" y="385"/>
      <point x="481" y="431"/>
      <point x="481" y="511" type="curve" smooth="yes"/>
      <point x="481" y="608"/>
      <point x="408" y="661"/>
    </contour>
    <contour>
      <point x="93" y="158" type="curve" smooth="yes"/>
      <point x="93" y="255"/>
      <point x="176" y="298"/>
      <point x="283" y="332" type="curve"/>
      <point x="311" y="323" type="line" smooth="yes"/>
      <point x="424" y="287"/>
      <point x="478" y="242"/>
      <point x="478" y="163" type="curve" smooth="yes"/>
      <point x="478" y="65"/>
      <point x="395" y="14"/>
      <point x="281" y="14" type="curve" smooth="yes"/>
      <point x="169" y="14"/>
      <point x="93" y="68"/>
    </contour>
    <contour>
      <point x="285" y="635" type="curve" smooth="yes"/>
      <point x="391" y="635"/>
      <point x="454" y="595"/>
      <point x="454" y="510" type="curve" smooth="yes"/>
      <point x="454" y="437"/>
      <point x="383" y="396"/>
      <point x="288" y="360" type="curve"/>
      <point x="184" y="393"/>
      <point x="116" y="434"/>
      <point x="116" y="509" type="curve" smooth="yes"/>
      <point x="116" y="591"/>
      <point x="187" y="635"/>
    </contour>
  </outline>
</glyph>
<glyph name="nine.telu" format="2">
  <advance width="572"/>
  <unicode hex="0039"/>
  <outline>
    <contour>
      <point x="501" y="380" type="curve" smooth="yes"/>
      <point x="501" y="517"/>
      <point x="441" y="661"/>
      <point x="270" y="661" type="curve" smooth="yes"/>
      <point x="134" y="661"/>
      <point x="56" y="572"/>
      <point x="56" y="447" type="curve" smooth="yes"/>
      <point x="56" y="328"/>
      <point x="131" y="249"/>
      <point x="263" y="249" type="curve" smooth="yes"/>
      <point x="378" y="249"/>
      <point x="447" y="308"/>
      <point x="472" y="360" type="curve"/>
      <point x="474" y="360" type="line"/>
      <point x="470" y="104"/>
      <point x="351" y="14"/>
      <point x="202" y="14" type="curve" smooth="yes"/>
      <point x="160" y="14"/>
      <point x="118" y="21"/>
      <point x="94" y="30" type="curve"/>
      <point x="94" y="1" type="line"/>
      <point x="121" y="-6"/>
      <point x="160" y="-12"/>
      <point x="202" y="-12" type="curve" smooth="yes"/>
      <point x="373" y="-12"/>
      <point x="501" y="99"/>
    </contour>
    <contour>
      <point x="270" y="635" type="curve" smooth="yes"/>
      <point x="432" y="635"/>
      <point x="470" y="487"/>
      <point x="470" y="422" type="curve" smooth="yes"/>
      <point x="470" y="355"/>
      <point x="394" y="275"/>
      <point x="265" y="275" type="curve" smooth="yes"/>
      <point x="145" y="275"/>
      <point x="83" y="340"/>
      <point x="83" y="448" type="curve" smooth="yes"/>
      <point x="83" y="563"/>
      <point x="149" y="635"/>
    </contour>
  </outline>
</glyph>
<glyph name="colon.telu" format="2">
  <advance width="206"/>
  <unicode hex="003A"/>
  <outline>
    <contour>
      <point x="77" y="23" type="curve" smooth="yes"/>
      <point x="77" y="6"/>
      <point x="82" y="-8"/>
      <point x="102" y="-8" type="curve" smooth="yes"/>
      <point x="126" y="-8"/>
      <point x="129" y="6"/>
      <point x="129" y="23" type="curve" smooth="yes"/>
      <point x="129" y="39"/>
      <point x="126" y="54"/>
      <point x="102" y="54" type="curve" smooth="yes"/>
      <point x="82" y="54"/>
      <point x="77" y="39"/>
    </contour>
    <contour>
      <point x="77" y="381" type="curve" smooth="yes"/>
      <point x="77" y="364"/>
      <point x="82" y="350"/>
      <point x="102" y="350" type="curve" smooth="yes"/>
      <point x="126" y="350"/>
      <point x="129" y="364"/>
      <point x="129" y="381" type="curve" smooth="yes"/>
      <point x="129" y="397"/>
      <point x="126" y="412"/>
      <point x="102" y="412" type="curve" smooth="yes"/>
      <point x="82" y="412"/>
      <point x="77" y="397"/>
    </contour>
  </outline>
</glyph>
<glyph name="semicolon.telu" format="2">
  <advance width="216"/>
  <unicode hex="003B"/>
  <outline>
    <contour>
      <point x="129" y="119" type="line"/>
      <point x="104" y="119" type="line"/>
      <point x="97" y="47"/>
      <point x="74" y="-57"/>
      <point x="47" y="-126" type="curve"/>
      <point x="69" y="-126" type="line"/>
      <point x="99" y="-57"/>
      <point x="124" y="28"/>
      <point x="135" y="110" type="curve"/>
    </contour>
    <contour>
      <point x="77" y="381" type="curve" smooth="yes"/>
      <point x="77" y="364"/>
      <point x="82" y="350"/>
      <point x="102" y="350" type="curve" smooth="yes"/>
      <point x="126" y="350"/>
      <point x="129" y="364"/>
      <point x="129" y="381" type="curve" smooth="yes"/>
      <point x="129" y="397"/>
      <point x="126" y="412"/>
      <point x="102" y="412" type="curve" smooth="yes"/>
      <point x="82" y="412"/>
      <point x="77" y="397"/>
    </contour>
  </outline>
</glyph>
<glyph name="less.telu" format="2">
  <advance width="572"/>
  <unicode hex="003C"/>
  <outline>
    <contour>
      <point x="515" y="100" type="line"/>
      <point x="515" y="128" type="line"/>
      <point x="90" y="326" type="line"/>
      <point x="515" y="524" type="line"/>
      <point x="515" y="552" type="line"/>
      <point x="57" y="337" type="line"/>
      <point x="57" y="315" type="line"/>
    </contour>
  </outline>
</glyph>
<glyph name="equal.telu" format="2">
  <advance width="572"/>
  <unicode hex="003D"/>
  <outline>
    <contour>
      <point x="56" y="415" type="line"/>
      <point x="516" y="415" type="line"/>
      <point x="516" y="441" type="line"/>
      <point x="56" y="441" type="line"/>
    </contour>
    <contour>
      <point x="56" y="211" type="line"/>
      <point x="516" y="211" type="line"/>
      <point x="516" y="237" type="line"/>
      <point x="56" y="237" type="line"/>
    </contour>
  </outline>
</glyph>
<glyph name="greater.telu" format="2">
  <advance width="572"/>
  <unicode hex="003E"/>
  <outline>
    <contour>
      <point x="57" y="128" type="line"/>
      <point x="57" y="100" type="line"/>
      <point x="515" y="315" type="line"/>
      <point x="515" y="337" type="line"/>
      <point x="57" y="552" type="line"/>
      <point x="57" y="524" type="line"/>
      <point x="482" y="326" type="line"/>
    </contour>
  </outline>
</glyph>
<glyph name="question.telu" format="2">
  <advance width="440"/>
  <unicode hex="003F"/>
  <outline>
    <contour>
      <point x="217" y="661" type="curve" smooth="yes"/>
      <point x="155" y="661"/>
      <point x="107" y="646"/>
      <point x="62" y="623" type="curve"/>
      <point x="73" y="599" type="line"/>
      <point x="114" y="621"/>
      <point x="159" y="635"/>
      <point x="217" y="635" type="curve" smooth="yes"/>
      <point x="302" y="635"/>
      <point x="371" y="595"/>
      <point x="371" y="503" type="curve" smooth="yes"/>
      <point x="371" y="428"/>
      <point x="331" y="387"/>
      <point x="268" y="338" type="curve" smooth="yes"/>
      <point x="201" y="286"/>
      <point x="186" y="240"/>
      <point x="186" y="169" type="curve" smooth="yes"/>
      <point x="186" y="159" type="line"/>
      <point x="212" y="159" type="line"/>
      <point x="212" y="169" type="line" smooth="yes"/>
      <point x="212" y="233"/>
      <point x="228" y="275"/>
      <point x="286" y="319" type="curve" smooth="yes"/>
      <point x="353" y="370"/>
      <point x="398" y="419"/>
      <point x="398" y="504" type="curve" smooth="yes"/>
      <point x="398" y="608"/>
      <point x="321" y="661"/>
    </contour>
    <contour>
      <point x="199" y="-8" type="curve" smooth="yes"/>
      <point x="223" y="-8"/>
      <point x="226" y="6"/>
      <point x="226" y="23" type="curve" smooth="yes"/>
      <point x="226" y="39"/>
      <point x="223" y="54"/>
      <point x="199" y="54" type="curve" smooth="yes"/>
      <point x="179" y="54"/>
      <point x="174" y="39"/>
      <point x="174" y="23" type="curve" smooth="yes"/>
      <point x="174" y="6"/>
      <point x="179" y="-8"/>
    </contour>
  </outline>
</glyph>
<glyph name="bracketleft.telu" format="2">
  <advance width="319"/>
  <unicode hex="005B"/>
  <outline>
    <contour>
      <point x="277" y="-360" type="line"/>
      <point x="277" y="-334" type="line"/>
      <point x="112" y="-334" type="line"/>
      <point x="112" y="747" type="line"/>
      <point x="277" y="747" type="line"/>
      <point x="277" y="773" type="line"/>
      <point x="86" y="773" type="line"/>
      <point x="86" y="-360" type="line"/>
    </contour>
  </outline>
</glyph>
<glyph name="backslash.telu" format="2">
  <advance width="384"/>
  <unicode hex="005C"/>
  <outline>
    <contour>
      <point x="63" y="773" type="line"/>
      <point x="36" y="773" type="line"/>
      <point x="321" y="-361" type="line"/>
      <point x="348" y="-361" type="line"/>
    </contour>
  </outline>
</glyph>
<glyph name="bracketright.telu" format="2">
  <advance width="319"/>
  <unicode hex="005D"/>
  <outline>
    <contour>
      <point x="42" y="-335" type="line"/>
      <point x="42" y="-361" type="line"/>
      <point x="233" y="-361" type="line"/>
      <point x="233" y="773" type="line"/>
      <point x="42" y="773" type="line"/>
      <point x="42" y="747" type="line"/>
      <point x="207" y="747" type="line"/>
      <point x="207" y="-335" type="line"/>
    </contour>
  </outline>
</glyph>
<glyph name="bar.telu" format="2">
  <advance width="512"/>
  <unicode hex="007C"/>
  <outline>
    <contour>
      <point x="243" y="773" type="line"/>
      <point x="243" y="-361" type="line"/>
      <point x="269" y="-361" type="line"/>
      <point x="269" y="773" type="line"/>
    </contour>
  </outline>
</glyph>
<glyph name="braceright.telu" format="2">
  <advance width="357"/>
  <unicode hex="007D"/>
  <outline>
    <contour>
      <point x="42" y="773" type="curve"/>
      <point x="42" y="747" type="line"/>
      <point x="148" y="747"/>
      <point x="180" y="721"/>
      <point x="180" y="634" type="curve" smooth="yes"/>
      <point x="180" y="330" type="line" smooth="yes"/>
      <point x="180" y="255"/>
      <point x="201" y="221"/>
      <point x="258" y="208" type="curve"/>
      <point x="258" y="206" type="line"/>
      <point x="200" y="195"/>
      <point x="180" y="149"/>
      <point x="180" y="81" type="curve" smooth="yes"/>
      <point x="180" y="-219" type="line" smooth="yes"/>
      <point x="180" y="-300"/>
      <point x="138" y="-335"/>
      <point x="42" y="-335" type="curve"/>
      <point x="42" y="-361" type="line"/>
      <point x="150" y="-361"/>
      <point x="206" y="-312"/>
      <point x="206" y="-225" type="curve" smooth="yes"/>
      <point x="206" y="77" type="line" smooth="yes"/>
      <point x="206" y="163"/>
      <point x="236" y="194"/>
      <point x="317" y="194" type="curve"/>
      <point x="317" y="220" type="line"/>
      <point x="236" y="220"/>
      <point x="206" y="249"/>
      <point x="206" y="334" type="curve" smooth="yes"/>
      <point x="206" y="640" type="line" smooth="yes"/>
      <point x="206" y="738"/>
      <point x="159" y="773"/>
    </contour>
  </outline>
</glyph>
<glyph name="asciitilde.telu" format="2">
  <advance width="572"/>
  <unicode hex="007E"/>
  <outline>
    <contour>
      <point x="280" y="314" type="curve" smooth="yes"/>
      <point x="320" y="294"/>
      <point x="357" y="281"/>
      <point x="401" y="281" type="curve" smooth="yes"/>
      <point x="445" y="281"/>
      <point x="486" y="300"/>
      <point x="516" y="329" type="curve"/>
      <point x="516" y="361" type="line"/>
      <point x="478" y="322"/>
      <point x="440" y="307"/>
      <point x="401" y="307" type="curve" smooth="yes"/>
      <point x="361" y="307"/>
      <point x="328" y="320"/>
      <point x="292" y="338" type="curve" smooth="yes"/>
      <point x="252" y="358"/>
      <point x="215" y="371"/>
      <point x="171" y="371" type="curve" smooth="yes"/>
      <point x="127" y="371"/>
      <point x="86" y="352"/>
      <point x="56" y="323" type="curve"/>
      <point x="56" y="291" type="line"/>
      <point x="94" y="330"/>
      <point x="132" y="345"/>
      <point x="171" y="345" type="curve" smooth="yes"/>
      <point x="211" y="345"/>
      <point x="244" y="332"/>
    </contour>
  </outline>
</glyph>
<glyph name="multiply.telu" format="2">
  <advance width="572"/>
  <unicode hex="00D7"/>
  <outline>
    <contour>
      <point x="72" y="130" type="line"/>
      <point x="90" y="112" type="line"/>
      <point x="286" y="308" type="line"/>
      <point x="482" y="112" type="line"/>
      <point x="500" y="130" type="line"/>
      <point x="304" y="326" type="line"/>
      <point x="500" y="522" type="line"/>
      <point x="482" y="540" type="line"/>
      <point x="286" y="344" type="line"/>
      <point x="90" y="540" type="line"/>
      <point x="72" y="522" type="line"/>
      <point x="268" y="326" type="line"/>
    </contour>
  </outline>
</glyph>
<glyph name="divide.telu" format="2">
  <advance width="572"/>
  <unicode hex="00F7"/>
  <outline>
    <contour>
      <point x="56" y="313" type="line"/>
      <point x="516" y="313" type="line"/>
      <point x="516" y="339" type="line"/>
      <point x="56" y="339" type="line"/>
    </contour>
    <contour>
      <point x="285" y="117" type="curve" smooth="yes"/>
      <point x="309" y="117"/>
      <point x="312" y="131"/>
      <point x="312" y="148" type="curve" smooth="yes"/>
      <point x="312" y="164"/>
      <point x="309" y="179"/>
      <point x="285" y="179" type="curve" smooth="yes"/>
      <point x="265" y="179"/>
      <point x="260" y="164"/>
      <point x="260" y="148" type="curve" smooth="yes"/>
      <point x="260" y="131"/>
      <point x="265" y="117"/>
    </contour>
    <contour>
      <point x="285" y="473" type="curve" smooth="yes"/>
      <point x="309" y="473"/>
      <point x="312" y="487"/>
      <point x="312" y="504" type="curve" smooth="yes"/>
      <point x="312" y="520"/>
      <point x="309" y="535"/>
      <point x="285" y="535" type="curve" smooth="yes"/>
      <point x="265" y="535"/>
      <point x="260" y="520"/>
      <point x="260" y="504" type="curve" smooth="yes"/>
      <point x="260" y="487"/>
      <point x="265" y="473"/>
    </contour>
  </outline>
</glyph>
<glyph name="uni0952" format="2">
  <unicode hex="0952"/>
  <outline>
    <contour>
      <point x="-473" y="-134" type="line"/>
      <point x="-473" y="-160" type="line"/>
      <point x="-98" y="-160" type="line"/>
      <point x="-98" y="-134" type="line"/>
    </contour>
  </outline>
</glyph>
<glyph name="dandatelu" format="2">
  <advance width="344"/>
  <unicode hex="0964"/>
  <outline>
    <contour>
      <point x="204" y="-139" type="line"/>
      <point x="230" y="-139" type="line"/>
      <point x="230" y="651" type="line"/>
      <point x="204" y="651" type="line"/>
    </contour>
  </outline>
</glyph>
<glyph name="dbldandatelu" format="2">
  <advance width="546"/>
  <unicode hex="0965"/>
  <outline>
    <contour>
      <point x="406" y="-139" type="line"/>
      <point x="432" y="-139" type="line"/>
      <point x="432" y="651" type="line"/>
      <point x="406" y="651" type="line"/>
    </contour>
    <contour>
      <point x="204" y="-139" type="line"/>
      <point x="230" y="-139" type="line"/>
      <point x="230" y="651" type="line"/>
      <point x="204" y="651" type="line"/>
    </contour>
  </outline>
</glyph>
<glyph name="uni0C00" format="2">
  <unicode hex="0C00"/>
  <outline>
    <contour>
      <point x="-286" y="618" type="curve" smooth="yes"/>
      <point x="-188" y="618"/>
      <point x="-137" y="675"/>
      <point x="-137" y="751" type="curve" smooth="yes"/>
      <point x="-137" y="770"/>
      <point x="-139" y="786"/>
      <point x="-143" y="803" type="curve"/>
      <point x="-169" y="798" type="line"/>
      <point x="-165" y="784"/>
      <point x="-163" y="767"/>
      <point x="-163" y="753" type="curve" smooth="yes"/>
      <point x="-163" y="677"/>
      <point x="-215" y="643"/>
      <point x="-286" y="643" type="curve" smooth="yes"/>
      <point x="-357" y="643"/>
      <point x="-409" y="673"/>
      <point x="-409" y="753" type="curve" smooth="yes"/>
      <point x="-409" y="766"/>
      <point x="-407" y="784"/>
      <point x="-403" y="798" type="curve"/>
      <point x="-429" y="803" type="line"/>
      <point x="-433" y="786"/>
      <point x="-435" y="772"/>
      <point x="-435" y="753" type="curve" smooth="yes"/>
      <point x="-435" y="673"/>
      <point x="-388" y="618"/>
    </contour>
    <contour>
      <point x="-286" y="724" type="curve" smooth="yes"/>
      <point x="-267" y="724"/>
      <point x="-254" y="735"/>
      <point x="-254" y="759" type="curve" smooth="yes"/>
      <point x="-254" y="780"/>
      <point x="-265" y="794"/>
      <point x="-286" y="794" type="curve" smooth="yes"/>
      <point x="-306" y="794"/>
      <point x="-319" y="781"/>
      <point x="-319" y="759" type="curve" smooth="yes"/>
      <point x="-319" y="736"/>
      <point x="-304" y="724"/>
    </contour>
  </outline>
</glyph>
<glyph name="candrabindutelu" format="2">
  <advance width="279"/>
  <unicode hex="0C01"/>
  <outline>
    <contour>
      <point x="39" y="199" type="curve" smooth="yes"/>
      <point x="39" y="59"/>
      <point x="124" y="-12"/>
      <point x="258" y="-12" type="curve" smooth="yes"/>
      <point x="262" y="-12" type="line"/>
      <point x="262" y="14" type="line"/>
      <point x="133" y="14"/>
      <point x="66" y="74"/>
      <point x="66" y="199" type="curve" smooth="yes"/>
      <point x="66" y="327"/>
      <point x="148" y="384"/>
      <point x="262" y="384" type="curve"/>
      <point x="262" y="410" type="line"/>
      <point x="259" y="410" type="line" smooth="yes"/>
      <point x="128" y="410"/>
      <point x="39" y="333"/>
    </contour>
  </outline>
</glyph>
<glyph name="anusvaratelu" format="2">
  <advance width="472"/>
  <unicode hex="0C02"/>
  <outline>
    <contour>
      <point x="39" y="199" type="curve" smooth="yes"/>
      <point x="39" y="70"/>
      <point x="115" y="-12"/>
      <point x="235" y="-12" type="curve" smooth="yes"/>
      <point x="357" y="-12"/>
      <point x="433" y="78"/>
      <point x="433" y="199" type="curve" smooth="yes"/>
      <point x="433" y="326"/>
      <point x="356" y="410"/>
      <point x="238" y="410" type="curve" smooth="yes"/>
      <point x="119" y="410"/>
      <point x="39" y="324"/>
    </contour>
    <contour>
      <point x="66" y="199" type="curve" smooth="yes"/>
      <point x="66" y="303"/>
      <point x="126" y="384"/>
      <point x="238" y="384" type="curve" smooth="yes"/>
      <point x="345" y="384"/>
      <point x="406" y="310"/>
      <point x="406" y="199" type="curve" smooth="yes"/>
      <point x="406" y="95"/>
      <point x="346" y="14"/>
      <point x="235" y="14" type="curve" smooth="yes"/>
      <point x="129" y="14"/>
      <point x="66" y="83"/>
    </contour>
  </outline>
</glyph>
<glyph name="visargatelu" format="2">
  <advance width="282"/>
  <unicode hex="0C03"/>
  <outline>
    <contour>
      <point x="33" y="100" type="curve" smooth="yes"/>
      <point x="33" y="36"/>
      <point x="74" y="-12"/>
      <point x="141" y="-12" type="curve" smooth="yes"/>
      <point x="208" y="-12"/>
      <point x="249" y="35"/>
      <point x="249" y="100" type="curve" smooth="yes"/>
      <point x="249" y="164"/>
      <point x="208" y="212"/>
      <point x="141" y="212" type="curve" smooth="yes"/>
      <point x="74" y="212"/>
      <point x="33" y="164"/>
    </contour>
    <contour>
      <point x="59" y="100" type="curve" smooth="yes"/>
      <point x="59" y="150"/>
      <point x="86" y="187"/>
      <point x="141" y="187" type="curve" smooth="yes"/>
      <point x="195" y="187"/>
      <point x="223" y="150"/>
      <point x="223" y="100" type="curve" smooth="yes"/>
      <point x="223" y="50"/>
      <point x="196" y="13"/>
      <point x="141" y="13" type="curve" smooth="yes"/>
      <point x="86" y="13"/>
      <point x="59" y="50"/>
    </contour>
    <contour>
      <point x="33" y="380" type="curve" smooth="yes"/>
      <point x="33" y="316"/>
      <point x="74" y="269"/>
      <point x="141" y="269" type="curve" smooth="yes"/>
      <point x="208" y="269"/>
      <point x="249" y="316"/>
      <point x="249" y="382" type="curve" smooth="yes"/>
      <point x="249" y="445"/>
      <point x="209" y="493"/>
      <point x="141" y="493" type="curve" smooth="yes"/>
      <point x="73" y="493"/>
      <point x="33" y="445"/>
    </contour>
    <contour>
      <point x="59" y="381" type="curve" smooth="yes"/>
      <point x="59" y="431"/>
      <point x="86" y="468"/>
      <point x="141" y="468" type="curve" smooth="yes"/>
      <point x="196" y="468"/>
      <point x="223" y="431"/>
      <point x="223" y="381" type="curve" smooth="yes"/>
      <point x="223" y="331"/>
      <point x="196" y="294"/>
      <point x="141" y="294" type="curve" smooth="yes"/>
      <point x="86" y="294"/>
      <point x="59" y="331"/>
    </contour>
  </outline>
</glyph>
<glyph name="uni0C04" format="2">
  <unicode hex="0C04"/>
  <outline>
    <contour>
      <point x="-394" y="709" type="curve" smooth="yes"/>
      <point x="-394" y="645"/>
      <point x="-353" y="598"/>
      <point x="-286" y="598" type="curve" smooth="yes"/>
      <point x="-219" y="598"/>
      <point x="-178" y="645"/>
      <point x="-178" y="711" type="curve" smooth="yes"/>
      <point x="-178" y="774"/>
      <point x="-218" y="822"/>
      <point x="-286" y="822" type="curve" smooth="yes"/>
      <point x="-354" y="822"/>
      <point x="-394" y="774"/>
    </contour>
    <contour>
      <point x="-368" y="710" type="curve" smooth="yes"/>
      <point x="-368" y="760"/>
      <point x="-341" y="797"/>
      <point x="-286" y="797" type="curve" smooth="yes"/>
      <point x="-231" y="797"/>
      <point x="-204" y="760"/>
      <point x="-204" y="710" type="curve" smooth="yes"/>
      <point x="-204" y="660"/>
      <point x="-231" y="623"/>
      <point x="-286" y="623" type="curve" smooth="yes"/>
      <point x="-341" y="623"/>
      <point x="-368" y="660"/>
    </contour>
  </outline>
</glyph>
<glyph name="atelu" format="2">
  <advance width="741"/>
  <unicode hex="0C05"/>
  <outline>
    <contour>
      <point x="360" y="-12" type="curve" smooth="yes"/>
      <point x="581" y="-12"/>
      <point x="699" y="88"/>
      <point x="699" y="286" type="curve" smooth="yes"/>
      <point x="699" y="404"/>
      <point x="645" y="493"/>
      <point x="550" y="493" type="curve" smooth="yes"/>
      <point x="485" y="493"/>
      <point x="439" y="445"/>
      <point x="439" y="376" type="curve" smooth="yes"/>
      <point x="439" y="295"/>
      <point x="495" y="246"/>
      <point x="571" y="229" type="curve"/>
      <point x="568" y="240" type="line"/>
      <point x="272" y="240" type="line"/>
      <point x="272" y="215" type="line"/>
      <point x="584" y="215" type="line"/>
      <point x="584" y="239" type="line"/>
      <point x="510" y="265"/>
      <point x="466" y="310"/>
      <point x="466" y="375" type="curve" smooth="yes"/>
      <point x="466" y="433"/>
      <point x="501" y="467"/>
      <point x="549" y="467" type="curve" smooth="yes"/>
      <point x="632" y="467"/>
      <point x="672" y="386"/>
      <point x="672" y="284" type="curve" smooth="yes"/>
      <point x="672" y="110"/>
      <point x="575" y="14"/>
      <point x="360" y="14" type="curve" smooth="yes"/>
      <point x="152" y="14"/>
      <point x="69" y="120"/>
      <point x="69" y="268" type="curve" smooth="yes"/>
      <point x="69" y="275" type="line" smooth="yes"/>
      <point x="69" y="390"/>
      <point x="122" y="467"/>
      <point x="201" y="467" type="curve" smooth="yes"/>
      <point x="247" y="467"/>
      <point x="278" y="438"/>
      <point x="278" y="382" type="curve" smooth="yes"/>
      <point x="278" y="325"/>
      <point x="246" y="290"/>
      <point x="174" y="290" type="curve" smooth="yes"/>
      <point x="123" y="290"/>
      <point x="86" y="315"/>
      <point x="67" y="341" type="curve"/>
      <point x="59" y="313" type="line"/>
      <point x="83" y="286"/>
      <point x="125" y="264"/>
      <point x="173" y="264" type="curve" smooth="yes"/>
      <point x="263" y="264"/>
      <point x="305" y="315"/>
      <point x="305" y="382" type="curve" smooth="yes"/>
      <point x="305" y="457"/>
      <point x="255" y="493"/>
      <point x="200" y="493" type="curve" smooth="yes"/>
      <point x="117" y="493"/>
      <point x="42" y="418"/>
      <point x="42" y="268" type="curve" smooth="yes"/>
      <point x="42" y="108"/>
      <point x="136" y="-12"/>
    </contour>
  </outline>
</glyph>
<glyph name="aatelu" format="2">
  <advance width="737"/>
  <unicode hex="0C06"/>
  <outline>
    <contour>
      <point x="396" y="-12" type="curve" smooth="yes"/>
      <point x="652" y="-12"/>
      <point x="684" y="93"/>
      <point x="684" y="148" type="curve" smooth="yes"/>
      <point x="684" y="197"/>
      <point x="657" y="231"/>
      <point x="613" y="247" type="curve"/>
      <point x="501" y="290"/>
      <point x="473" y="337"/>
      <point x="473" y="382" type="curve" smooth="yes"/>
      <point x="473" y="433"/>
      <point x="512" y="468"/>
      <point x="571" y="468" type="curve" smooth="yes"/>
      <point x="632" y="468"/>
      <point x="673" y="432"/>
      <point x="673" y="369" type="curve" smooth="yes"/>
      <point x="673" y="313"/>
      <point x="635" y="270"/>
      <point x="584" y="240" type="curve"/>
      <point x="272" y="240" type="line"/>
      <point x="272" y="215" type="line"/>
      <point x="539" y="215" type="line" smooth="yes"/>
      <point x="585" y="215"/>
      <point x="595" y="219"/>
      <point x="617" y="232" type="curve"/>
      <point x="662" y="262"/>
      <point x="700" y="311"/>
      <point x="700" y="369" type="curve" smooth="yes"/>
      <point x="700" y="446"/>
      <point x="647" y="493"/>
      <point x="570" y="493" type="curve" smooth="yes"/>
      <point x="503" y="493"/>
      <point x="446" y="451"/>
      <point x="446" y="383" type="curve" smooth="yes"/>
      <point x="446" y="315"/>
      <point x="497" y="271"/>
      <point x="585" y="233" type="curve"/>
      <point x="628" y="219"/>
      <point x="657" y="196"/>
      <point x="657" y="149" type="curve" smooth="yes"/>
      <point x="657" y="72"/>
      <point x="588" y="14"/>
      <point x="396" y="14" type="curve" smooth="yes"/>
      <point x="148" y="14"/>
      <point x="69" y="120"/>
      <point x="69" y="268" type="curve" smooth="yes"/>
      <point x="69" y="275" type="line" smooth="yes"/>
      <point x="69" y="390"/>
      <point x="122" y="467"/>
      <point x="201" y="467" type="curve" smooth="yes"/>
      <point x="247" y="467"/>
      <point x="278" y="438"/>
      <point x="278" y="382" type="curve" smooth="yes"/>
      <point x="278" y="325"/>
      <point x="246" y="290"/>
      <point x="174" y="290" type="curve" smooth="yes"/>
      <point x="123" y="290"/>
      <point x="86" y="315"/>
      <point x="67" y="341" type="curve"/>
      <point x="59" y="313" type="line"/>
      <point x="83" y="286"/>
      <point x="125" y="264"/>
      <point x="173" y="264" type="curve" smooth="yes"/>
      <point x="263" y="264"/>
      <point x="305" y="315"/>
      <point x="305" y="382" type="curve" smooth="yes"/>
      <point x="305" y="457"/>
      <point x="255" y="493"/>
      <point x="200" y="493" type="curve" smooth="yes"/>
      <point x="117" y="493"/>
      <point x="42" y="418"/>
      <point x="42" y="268" type="curve" smooth="yes"/>
      <point x="42" y="108"/>
      <point x="129" y="-12"/>
    </contour>
  </outline>
</glyph>
<glyph name="itelu" format="2">
  <advance width="652"/>
  <unicode hex="0C07"/>
  <outline>
    <contour>
      <point x="284" y="-12" type="curve" smooth="yes"/>
      <point x="392" y="-12"/>
      <point x="476" y="18"/>
      <point x="535" y="81" type="curve" smooth="yes"/>
      <point x="537" y="83"/>
      <point x="539" y="84"/>
      <point x="540" y="86" type="curve" smooth="yes"/>
      <point x="586" y="137"/>
      <point x="610" y="207"/>
      <point x="610" y="288" type="curve" smooth="yes"/>
      <point x="610" y="445"/>
      <point x="533" y="493"/>
      <point x="454" y="493" type="curve" smooth="yes"/>
      <point x="374" y="493"/>
      <point x="316" y="439"/>
      <point x="298" y="339" type="curve"/>
      <point x="309" y="343" type="line"/>
      <point x="295" y="428"/>
      <point x="249" y="493"/>
      <point x="161" y="493" type="curve" smooth="yes"/>
      <point x="90" y="493"/>
      <point x="36" y="450"/>
      <point x="36" y="380" type="curve" smooth="yes"/>
      <point x="36" y="352"/>
      <point x="43" y="321"/>
      <point x="55" y="295" type="curve"/>
      <point x="80" y="303" type="line"/>
      <point x="70" y="323"/>
      <point x="63" y="348"/>
      <point x="63" y="380" type="curve" smooth="yes"/>
      <point x="63" y="430"/>
      <point x="98" y="468"/>
      <point x="161" y="468" type="curve" smooth="yes"/>
      <point x="231" y="468"/>
      <point x="277" y="413"/>
      <point x="292" y="325" type="curve"/>
      <point x="316" y="325" type="line"/>
      <point x="329" y="397"/>
      <point x="369" y="467"/>
      <point x="453" y="467" type="curve" smooth="yes"/>
      <point x="513" y="467"/>
      <point x="583" y="435"/>
      <point x="583" y="288" type="curve" smooth="yes"/>
      <point x="583" y="214"/>
      <point x="561" y="151"/>
      <point x="521" y="105" type="curve" smooth="yes"/>
      <point x="470" y="46"/>
      <point x="391" y="14"/>
      <point x="285" y="14" type="curve" smooth="yes"/>
      <point x="158" y="14"/>
      <point x="125" y="69"/>
      <point x="125" y="120" type="curve" smooth="yes"/>
      <point x="125" y="183"/>
      <point x="167" y="218"/>
      <point x="271" y="218" type="curve" smooth="yes"/>
      <point x="434" y="218"/>
      <point x="541" y="119"/>
      <point x="541" y="-2" type="curve" smooth="yes"/>
      <point x="541" y="-28"/>
      <point x="536" y="-66"/>
      <point x="525" y="-94" type="curve"/>
      <point x="551" y="-99" type="line"/>
      <point x="562" y="-68"/>
      <point x="568" y="-32"/>
      <point x="568" y="-3" type="curve" smooth="yes"/>
      <point x="568" y="38"/>
      <point x="557" y="74"/>
      <point x="537" y="107" type="curve"/>
      <point x="488" y="194"/>
      <point x="393" y="243"/>
      <point x="271" y="243" type="curve" smooth="yes"/>
      <point x="153" y="243"/>
      <point x="98" y="198"/>
      <point x="98" y="121" type="curve" smooth="yes"/>
      <point x="98" y="42"/>
      <point x="159" y="-12"/>
    </contour>
  </outline>
</glyph>
<glyph name="iitelu" format="2">
  <advance width="920"/>
  <unicode hex="0C08"/>
  <outline>
    <contour>
      <point x="774" y="52" type="curve" smooth="yes"/>
      <point x="846" y="52"/>
      <point x="882" y="93"/>
      <point x="882" y="160" type="curve" smooth="yes"/>
      <point x="882" y="197"/>
      <point x="869" y="228"/>
      <point x="844" y="249" type="curve" smooth="yes"/>
      <point x="818" y="271"/>
      <point x="779" y="282"/>
      <point x="726" y="282" type="curve" smooth="yes"/>
      <point x="30" y="282" type="line"/>
      <point x="30" y="257" type="line"/>
      <point x="736" y="257" type="line" smooth="yes"/>
      <point x="812" y="257"/>
      <point x="856" y="224"/>
      <point x="856" y="160" type="curve" smooth="yes"/>
      <point x="856" y="110"/>
      <point x="833" y="77"/>
      <point x="773" y="77" type="curve" smooth="yes"/>
      <point x="731" y="77"/>
      <point x="688" y="103"/>
      <point x="688" y="157" type="curve" smooth="yes"/>
      <point x="688" y="207"/>
      <point x="716" y="233"/>
      <point x="774" y="258" type="curve"/>
      <point x="757" y="270" type="line"/>
      <point x="689" y="244"/>
      <point x="662" y="208"/>
      <point x="662" y="157" type="curve" smooth="yes"/>
      <point x="662" y="94"/>
      <point x="711" y="52"/>
    </contour>
    <contour>
      <point x="779" y="464" type="curve" smooth="yes"/>
      <point x="726" y="464"/>
      <point x="685" y="431"/>
      <point x="655" y="377" type="curve"/>
      <point x="679" y="367" type="line"/>
      <point x="704" y="411"/>
      <point x="733" y="438"/>
      <point x="779" y="438" type="curve" smooth="yes"/>
      <point x="820" y="438"/>
      <point x="846" y="415"/>
      <point x="846" y="375" type="curve" smooth="yes"/>
      <point x="846" y="334"/>
      <point x="808" y="299"/>
      <point x="757" y="274" type="curve"/>
      <point x="781" y="261" type="line"/>
      <point x="831" y="289"/>
      <point x="873" y="324"/>
      <point x="873" y="376" type="curve" smooth="yes"/>
      <point x="873" y="431"/>
      <point x="831" y="464"/>
    </contour>
    <contour>
      <point x="96" y="240" type="curve" smooth="yes"/>
      <point x="96" y="80"/>
      <point x="186" y="-12"/>
      <point x="332" y="-12" type="curve" smooth="yes"/>
      <point x="481" y="-12"/>
      <point x="571" y="84"/>
      <point x="571" y="238" type="curve" smooth="yes"/>
      <point x="571" y="411"/>
      <point x="461" y="493"/>
      <point x="334" y="493" type="curve" smooth="yes"/>
      <point x="209" y="493"/>
      <point x="96" y="406"/>
    </contour>
    <contour>
      <point x="123" y="239" type="curve" smooth="yes"/>
      <point x="123" y="358"/>
      <point x="191" y="468"/>
      <point x="334" y="468" type="curve" smooth="yes"/>
      <point x="464" y="468"/>
      <point x="544" y="376"/>
      <point x="544" y="238" type="curve" smooth="yes"/>
      <point x="544" y="108"/>
      <point x="476" y="14"/>
      <point x="333" y="14" type="curve" smooth="yes"/>
      <point x="193" y="14"/>
      <point x="123" y="100"/>
    </contour>
    <component base="hattelu" xOffset="195"/>
  </outline>
</glyph>
<glyph name="utelu" format="2">
  <advance width="745"/>
  <unicode hex="0C09"/>
  <outline>
    <contour>
      <point x="528" y="-12" type="curve" smooth="yes"/>
      <point x="609" y="-12"/>
      <point x="664" y="33"/>
      <point x="664" y="117" type="curve" smooth="yes"/>
      <point x="664" y="194"/>
      <point x="618" y="240"/>
      <point x="549" y="240" type="curve" smooth="yes"/>
      <point x="477" y="240"/>
      <point x="431" y="193"/>
      <point x="431" y="125" type="curve" smooth="yes"/>
      <point x="431" y="74"/>
      <point x="451" y="38"/>
      <point x="479" y="4" type="curve"/>
      <point x="505" y="8" type="line"/>
      <point x="472" y="45"/>
      <point x="457" y="85"/>
      <point x="457" y="123" type="curve" smooth="yes"/>
      <point x="457" y="185"/>
      <point x="496" y="215"/>
      <point x="547" y="215" type="curve" smooth="yes"/>
      <point x="600" y="215"/>
      <point x="637" y="184"/>
      <point x="637" y="117" type="curve" smooth="yes"/>
      <point x="637" y="55"/>
      <point x="602" y="13"/>
      <point x="529" y="13" type="curve" smooth="yes"/>
      <point x="513" y="13"/>
      <point x="498" y="14"/>
      <point x="484" y="16" type="curve" smooth="yes"/>
      <point x="400" y="30"/>
      <point x="362" y="85"/>
      <point x="347" y="173" type="curve"/>
      <point x="323" y="173" type="line"/>
      <point x="311" y="74"/>
      <point x="268" y="14"/>
      <point x="188" y="14" type="curve" smooth="yes"/>
      <point x="111" y="14"/>
      <point x="69" y="69"/>
      <point x="69" y="190" type="curve" smooth="yes"/>
      <point x="69" y="221"/>
      <point x="72" y="252"/>
      <point x="79" y="278" type="curve" smooth="yes"/>
      <point x="113" y="403"/>
      <point x="216" y="468"/>
      <point x="364" y="468" type="curve" smooth="yes"/>
      <point x="461" y="468"/>
      <point x="537" y="440"/>
      <point x="596" y="398" type="curve"/>
      <point x="612" y="420" type="line"/>
      <point x="549" y="463"/>
      <point x="474" y="493"/>
      <point x="365" y="493" type="curve" smooth="yes"/>
      <point x="175" y="493"/>
      <point x="42" y="389"/>
      <point x="42" y="190" type="curve" smooth="yes"/>
      <point x="42" y="51"/>
      <point x="100" y="-12"/>
      <point x="187" y="-12" type="curve" smooth="yes"/>
      <point x="249" y="-12"/>
      <point x="321" y="19"/>
      <point x="339" y="143" type="curve"/>
      <point x="330" y="143" type="line"/>
      <point x="349" y="48"/>
      <point x="413" y="-12"/>
    </contour>
    <contour>
      <point x="71" y="267" type="line"/>
      <point x="719" y="267" type="line"/>
      <point x="719" y="292" type="line"/>
      <point x="73" y="292" type="line"/>
    </contour>
    <contour>
      <point x="373" y="639" type="line"/>
      <point x="341" y="639" type="line"/>
      <point x="345" y="475" type="line"/>
      <point x="369" y="475" type="line"/>
    </contour>
  </outline>
</glyph>
<glyph name="uutelu" format="2">
  <advance width="1007"/>
  <unicode hex="0C0A"/>
  <outline>
    <contour>
      <point x="528" y="-12" type="curve" smooth="yes"/>
      <point x="609" y="-12"/>
      <point x="664" y="33"/>
      <point x="664" y="117" type="curve" smooth="yes"/>
      <point x="664" y="194"/>
      <point x="618" y="240"/>
      <point x="549" y="240" type="curve" smooth="yes"/>
      <point x="477" y="240"/>
      <point x="431" y="193"/>
      <point x="431" y="125" type="curve" smooth="yes"/>
      <point x="431" y="74"/>
      <point x="451" y="38"/>
      <point x="479" y="4" type="curve"/>
      <point x="505" y="8" type="line"/>
      <point x="472" y="45"/>
      <point x="457" y="85"/>
      <point x="457" y="123" type="curve" smooth="yes"/>
      <point x="457" y="185"/>
      <point x="496" y="215"/>
      <point x="547" y="215" type="curve" smooth="yes"/>
      <point x="600" y="215"/>
      <point x="637" y="184"/>
      <point x="637" y="117" type="curve" smooth="yes"/>
      <point x="637" y="55"/>
      <point x="602" y="13"/>
      <point x="529" y="13" type="curve" smooth="yes"/>
      <point x="513" y="13"/>
      <point x="498" y="14"/>
      <point x="484" y="16" type="curve" smooth="yes"/>
      <point x="400" y="30"/>
      <point x="362" y="85"/>
      <point x="347" y="173" type="curve"/>
      <point x="323" y="173" type="line"/>
      <point x="311" y="74"/>
      <point x="268" y="14"/>
      <point x="188" y="14" type="curve" smooth="yes"/>
      <point x="111" y="14"/>
      <point x="69" y="69"/>
      <point x="69" y="190" type="curve" smooth="yes"/>
      <point x="69" y="221"/>
      <point x="72" y="252"/>
      <point x="79" y="278" type="curve" smooth="yes"/>
      <point x="113" y="403"/>
      <point x="216" y="468"/>
      <point x="364" y="468" type="curve" smooth="yes"/>
      <point x="461" y="468"/>
      <point x="537" y="440"/>
      <point x="596" y="398" type="curve"/>
      <point x="612" y="420" type="line"/>
      <point x="549" y="463"/>
      <point x="474" y="493"/>
      <point x="365" y="493" type="curve" smooth="yes"/>
      <point x="175" y="493"/>
      <point x="42" y="389"/>
      <point x="42" y="190" type="curve" smooth="yes"/>
      <point x="42" y="51"/>
      <point x="100" y="-12"/>
      <point x="187" y="-12" type="curve" smooth="yes"/>
      <point x="249" y="-12"/>
      <point x="321" y="19"/>
      <point x="339" y="143" type="curve"/>
      <point x="330" y="143" type="line"/>
      <point x="349" y="48"/>
      <point x="413" y="-12"/>
    </contour>
    <contour>
      <point x="861" y="62" type="curve" smooth="yes"/>
      <point x="933" y="62"/>
      <point x="969" y="103"/>
      <point x="969" y="170" type="curve" smooth="yes"/>
      <point x="969" y="207"/>
      <point x="956" y="238"/>
      <point x="931" y="259" type="curve" smooth="yes"/>
      <point x="905" y="281"/>
      <point x="866" y="292"/>
      <point x="813" y="292" type="curve" smooth="yes"/>
      <point x="65" y="292" type="line"/>
      <point x="65" y="267" type="line"/>
      <point x="823" y="267" type="line" smooth="yes"/>
      <point x="899" y="267"/>
      <point x="943" y="234"/>
      <point x="943" y="170" type="curve" smooth="yes"/>
      <point x="943" y="120"/>
      <point x="920" y="87"/>
      <point x="860" y="87" type="curve" smooth="yes"/>
      <point x="818" y="87"/>
      <point x="775" y="113"/>
      <point x="775" y="167" type="curve" smooth="yes"/>
      <point x="775" y="217"/>
      <point x="803" y="243"/>
      <point x="861" y="268" type="curve"/>
      <point x="844" y="280" type="line"/>
      <point x="776" y="254"/>
      <point x="749" y="218"/>
      <point x="749" y="167" type="curve" smooth="yes"/>
      <point x="749" y="104"/>
      <point x="798" y="62"/>
    </contour>
    <contour>
      <point x="866" y="474" type="curve" smooth="yes"/>
      <point x="813" y="474"/>
      <point x="772" y="441"/>
      <point x="742" y="387" type="curve"/>
      <point x="766" y="377" type="line"/>
      <point x="791" y="421"/>
      <point x="820" y="448"/>
      <point x="866" y="448" type="curve" smooth="yes"/>
      <point x="907" y="448"/>
      <point x="933" y="425"/>
      <point x="933" y="385" type="curve" smooth="yes"/>
      <point x="933" y="344"/>
      <point x="895" y="309"/>
      <point x="844" y="284" type="curve"/>
      <point x="868" y="271" type="line"/>
      <point x="918" y="299"/>
      <point x="960" y="334"/>
      <point x="960" y="386" type="curve" smooth="yes"/>
      <point x="960" y="441"/>
      <point x="918" y="474"/>
    </contour>
    <contour>
      <point x="304" y="639" type="line"/>
      <point x="272" y="639" type="line"/>
      <point x="276" y="475" type="line"/>
      <point x="300" y="475" type="line"/>
    </contour>
    <contour>
      <point x="440" y="639" type="line"/>
      <point x="408" y="639" type="line"/>
      <point x="412" y="475" type="line"/>
      <point x="436" y="475" type="line"/>
    </contour>
  </outline>
</glyph>
<glyph name="lvocalictelu" format="2">
  <advance width="826"/>
  <unicode hex="0C0C"/>
  <outline>
    <contour>
      <point x="533" y="-61" type="curve" smooth="yes"/>
      <point x="704" y="-61"/>
      <point x="783" y="73"/>
      <point x="783" y="227" type="curve" smooth="yes"/>
      <point x="783" y="347"/>
      <point x="735" y="428"/>
      <point x="641" y="493" type="curve"/>
      <point x="625" y="472" type="line"/>
      <point x="715" y="408"/>
      <point x="756" y="340"/>
      <point x="756" y="227" type="curve" smooth="yes"/>
      <point x="756" y="96"/>
      <point x="691" y="-35"/>
      <point x="533" y="-35" type="curve" smooth="yes"/>
      <point x="438" y="-35"/>
      <point x="404" y="22"/>
      <point x="404" y="77" type="curve" smooth="yes"/>
      <point x="404" y="134"/>
      <point x="426" y="166"/>
      <point x="481" y="233" type="curve" smooth="yes"/>
      <point x="526" y="288"/>
      <point x="548" y="327"/>
      <point x="548" y="374" type="curve" smooth="yes"/>
      <point x="548" y="439"/>
      <point x="507" y="493"/>
      <point x="426" y="493" type="curve" smooth="yes"/>
      <point x="344" y="493"/>
      <point x="291" y="433"/>
      <point x="276" y="340" type="curve"/>
      <point x="286" y="343" type="line"/>
      <point x="275" y="442"/>
      <point x="222" y="493"/>
      <point x="149" y="493" type="curve" smooth="yes"/>
      <point x="84" y="493"/>
      <point x="36" y="450"/>
      <point x="36" y="380" type="curve" smooth="yes"/>
      <point x="36" y="343"/>
      <point x="48" y="310"/>
      <point x="65" y="278" type="curve"/>
      <point x="90" y="287" type="line"/>
      <point x="73" y="317"/>
      <point x="63" y="347"/>
      <point x="63" y="381" type="curve" smooth="yes"/>
      <point x="63" y="434"/>
      <point x="95" y="467"/>
      <point x="149" y="467" type="curve" smooth="yes"/>
      <point x="211" y="467"/>
      <point x="260" y="421"/>
      <point x="269" y="315" type="curve"/>
      <point x="293" y="315" type="line"/>
      <point x="304" y="407"/>
      <point x="349" y="467"/>
      <point x="426" y="467" type="curve" smooth="yes"/>
      <point x="493" y="467"/>
      <point x="521" y="425"/>
      <point x="521" y="373" type="curve" smooth="yes"/>
      <point x="521" y="337"/>
      <point x="501" y="298"/>
      <point x="460" y="249" type="curve" smooth="yes"/>
      <point x="400" y="177"/>
      <point x="377" y="134"/>
      <point x="377" y="78" type="curve" smooth="yes"/>
      <point x="377" y="4"/>
      <point x="427" y="-61"/>
    </contour>
  </outline>
</glyph>
<glyph name="etelu" format="2">
  <advance width="663"/>
  <unicode hex="0C0E"/>
  <outline>
    <contour>
      <point x="470" y="-12" type="curve" smooth="yes"/>
      <point x="564" y="-12"/>
      <point x="621" y="56"/>
      <point x="621" y="192" type="curve" smooth="yes"/>
      <point x="621" y="465"/>
      <point x="402" y="630"/>
      <point x="237" y="700" type="curve"/>
      <point x="225" y="676" type="line"/>
      <point x="378" y="611"/>
      <point x="594" y="457"/>
      <point x="594" y="193" type="curve" smooth="yes"/>
      <point x="594" y="80"/>
      <point x="557" y="14"/>
      <point x="470" y="14" type="curve" smooth="yes"/>
      <point x="399" y="14"/>
      <point x="355" y="54"/>
      <point x="296" y="142" type="curve" smooth="yes"/>
      <point x="241" y="224"/>
      <point x="204" y="250"/>
      <point x="149" y="250" type="curve" smooth="yes"/>
      <point x="90" y="250"/>
      <point x="36" y="202"/>
      <point x="36" y="121" type="curve" smooth="yes"/>
      <point x="36" y="50"/>
      <point x="73" y="-12"/>
      <point x="156" y="-12" type="curve" smooth="yes"/>
      <point x="223" y="-12"/>
      <point x="261" y="29"/>
      <point x="297" y="110" type="curve"/>
      <point x="279" y="131" type="line"/>
      <point x="251" y="54"/>
      <point x="213" y="14"/>
      <point x="156" y="14" type="curve" smooth="yes"/>
      <point x="90" y="14"/>
      <point x="63" y="60"/>
      <point x="63" y="120" type="curve" smooth="yes"/>
      <point x="63" y="183"/>
      <point x="97" y="224"/>
      <point x="150" y="224" type="curve" smooth="yes"/>
      <point x="199" y="224"/>
      <point x="228" y="197"/>
      <point x="278" y="124" type="curve" smooth="yes"/>
      <point x="345" y="26"/>
      <point x="389" y="-12"/>
    </contour>
  </outline>
</glyph>
<glyph name="aitelu" format="2">
  <advance width="687"/>
  <unicode hex="0C10"/>
  <outline>
    <contour>
      <point x="482" y="-12" type="curve" smooth="yes"/>
      <point x="591" y="-12"/>
      <point x="643" y="75"/>
      <point x="643" y="228" type="curve" smooth="yes"/>
      <point x="643" y="411"/>
      <point x="569" y="493"/>
      <point x="467" y="493" type="curve" smooth="yes"/>
      <point x="382" y="493"/>
      <point x="324" y="439"/>
      <point x="306" y="339" type="curve"/>
      <point x="317" y="343" type="line"/>
      <point x="303" y="428"/>
      <point x="257" y="493"/>
      <point x="169" y="493" type="curve" smooth="yes"/>
      <point x="98" y="493"/>
      <point x="44" y="450"/>
      <point x="44" y="383" type="curve" smooth="yes"/>
      <point x="44" y="357"/>
      <point x="50" y="331"/>
      <point x="60" y="306" type="curve"/>
      <point x="85" y="314" type="line"/>
      <point x="76" y="333"/>
      <point x="71" y="355"/>
      <point x="71" y="382" type="curve" smooth="yes"/>
      <point x="71" y="430"/>
      <point x="105" y="468"/>
      <point x="169" y="468" type="curve" smooth="yes"/>
      <point x="239" y="468"/>
      <point x="285" y="413"/>
      <point x="300" y="325" type="curve"/>
      <point x="324" y="325" type="line"/>
      <point x="337" y="397"/>
      <point x="375" y="467"/>
      <point x="467" y="467" type="curve" smooth="yes"/>
      <point x="574" y="467"/>
      <point x="616" y="363"/>
      <point x="616" y="226" type="curve" smooth="yes"/>
      <point x="616" y="77"/>
      <point x="568" y="14"/>
      <point x="482" y="14" type="curve" smooth="yes"/>
      <point x="411" y="14"/>
      <point x="367" y="54"/>
      <point x="308" y="142" type="curve" smooth="yes"/>
      <point x="253" y="224"/>
      <point x="216" y="250"/>
      <point x="161" y="250" type="curve" smooth="yes"/>
      <point x="102" y="250"/>
      <point x="48" y="202"/>
      <point x="48" y="121" type="curve" smooth="yes"/>
      <point x="48" y="50"/>
      <point x="85" y="-12"/>
      <point x="168" y="-12" type="curve" smooth="yes"/>
      <point x="235" y="-12"/>
      <point x="273" y="29"/>
      <point x="309" y="110" type="curve"/>
      <point x="291" y="131" type="line"/>
      <point x="263" y="54"/>
      <point x="225" y="14"/>
      <point x="168" y="14" type="curve" smooth="yes"/>
      <point x="102" y="14"/>
      <point x="75" y="60"/>
      <point x="75" y="120" type="curve" smooth="yes"/>
      <point x="75" y="183"/>
      <point x="109" y="224"/>
      <point x="162" y="224" type="curve" smooth="yes"/>
      <point x="211" y="224"/>
      <point x="240" y="197"/>
      <point x="290" y="124" type="curve" smooth="yes"/>
      <point x="357" y="26"/>
      <point x="401" y="-12"/>
    </contour>
  </outline>
</glyph>
<glyph name="otelu" format="2">
  <advance width="674"/>
  <unicode hex="0C12"/>
  <outline>
    <contour>
      <point x="501" y="-12" type="curve" smooth="yes"/>
      <point x="584" y="-12"/>
      <point x="637" y="34"/>
      <point x="637" y="128" type="curve" smooth="yes"/>
      <point x="637" y="190"/>
      <point x="609" y="255"/>
      <point x="524" y="301" type="curve"/>
      <point x="510" y="279" type="line"/>
      <point x="571" y="246"/>
      <point x="610" y="197"/>
      <point x="610" y="128" type="curve" smooth="yes"/>
      <point x="610" y="56"/>
      <point x="576" y="14"/>
      <point x="501" y="14" type="curve" smooth="yes"/>
      <point x="426" y="14"/>
      <point x="374" y="61"/>
      <point x="361" y="173" type="curve"/>
      <point x="337" y="173" type="line"/>
      <point x="325" y="82"/>
      <point x="283" y="14"/>
      <point x="184" y="14" type="curve" smooth="yes"/>
      <point x="118" y="14"/>
      <point x="75" y="45"/>
      <point x="75" y="116" type="curve" smooth="yes"/>
      <point x="75" y="178"/>
      <point x="109" y="211"/>
      <point x="191" y="245" type="curve" smooth="yes"/>
      <point x="266" y="276"/>
      <point x="307" y="307"/>
      <point x="307" y="380" type="curve" smooth="yes"/>
      <point x="307" y="433"/>
      <point x="273" y="493"/>
      <point x="180" y="493" type="curve" smooth="yes"/>
      <point x="80" y="493"/>
      <point x="43" y="434"/>
      <point x="43" y="376" type="curve" smooth="yes"/>
      <point x="43" y="351"/>
      <point x="49" y="328"/>
      <point x="56" y="309" type="curve"/>
      <point x="82" y="316" type="line"/>
      <point x="74" y="335"/>
      <point x="70" y="355"/>
      <point x="70" y="376" type="curve" smooth="yes"/>
      <point x="70" y="425"/>
      <point x="97" y="467"/>
      <point x="180" y="467" type="curve" smooth="yes"/>
      <point x="256" y="467"/>
      <point x="280" y="421"/>
      <point x="280" y="380" type="curve" smooth="yes"/>
      <point x="280" y="326"/>
      <point x="253" y="299"/>
      <point x="179" y="268" type="curve" smooth="yes"/>
      <point x="96" y="233"/>
      <point x="48" y="196"/>
      <point x="48" y="116" type="curve" smooth="yes"/>
      <point x="48" y="39"/>
      <point x="93" y="-12"/>
      <point x="184" y="-12" type="curve" smooth="yes"/>
      <point x="265" y="-12"/>
      <point x="334" y="29"/>
      <point x="353" y="143" type="curve"/>
      <point x="344" y="143" type="line"/>
      <point x="360" y="38"/>
      <point x="415" y="-12"/>
    </contour>
  </outline>
</glyph>
<glyph name="autelu" format="2">
  <advance width="674"/>
  <unicode hex="0C14"/>
  <outline>
    <contour>
      <point x="524" y="443" type="curve" smooth="yes"/>
      <point x="596" y="443"/>
      <point x="632" y="484"/>
      <point x="632" y="551" type="curve" smooth="yes"/>
      <point x="632" y="588"/>
      <point x="619" y="619"/>
      <point x="594" y="640" type="curve" smooth="yes"/>
      <point x="568" y="662"/>
      <point x="533" y="673"/>
      <point x="476" y="673" type="curve" smooth="yes"/>
      <point x="32" y="673" type="line"/>
      <point x="32" y="648" type="line"/>
      <point x="169" y="648" type="line" smooth="yes"/>
      <point x="219" y="648"/>
      <point x="243" y="641"/>
      <point x="263" y="625" type="curve" smooth="yes"/>
      <point x="279" y="612"/>
      <point x="286" y="593"/>
      <point x="286" y="570" type="curve" smooth="yes"/>
      <point x="286" y="547"/>
      <point x="281" y="529"/>
      <point x="269" y="517" type="curve" smooth="yes"/>
      <point x="254" y="502"/>
      <point x="225" y="493"/>
      <point x="169" y="493" type="curve" smooth="yes"/>
      <point x="82" y="493" type="line"/>
      <point x="82" y="471" type="line"/>
      <point x="164" y="471" type="line" smooth="yes"/>
      <point x="226" y="471"/>
      <point x="265" y="476"/>
      <point x="291" y="504" type="curve"/>
      <point x="305" y="519"/>
      <point x="313" y="543"/>
      <point x="313" y="571" type="curve" smooth="yes"/>
      <point x="313" y="608"/>
      <point x="294" y="636"/>
      <point x="264" y="648" type="curve"/>
      <point x="486" y="648" type="line" smooth="yes"/>
      <point x="562" y="648"/>
      <point x="606" y="615"/>
      <point x="606" y="551" type="curve" smooth="yes"/>
      <point x="606" y="501"/>
      <point x="583" y="468"/>
      <point x="523" y="468" type="curve" smooth="yes"/>
      <point x="481" y="468"/>
      <point x="438" y="493"/>
      <point x="438" y="552" type="curve" smooth="yes"/>
      <point x="438" y="586"/>
      <point x="454" y="620"/>
      <point x="490" y="655" type="curve"/>
      <point x="466" y="661" type="line"/>
      <point x="433" y="632"/>
      <point x="412" y="591"/>
      <point x="412" y="552" type="curve" smooth="yes"/>
      <point x="412" y="484"/>
      <point x="461" y="443"/>
    </contour>
    <component base="otelu"/>
  </outline>
</glyph>
<glyph name="catelu" format="2">
  <advance width="701"/>
  <unicode hex="0C1A"/>
  <outline>
    <contour>
      <point x="499" y="-12" type="curve" smooth="yes"/>
      <point x="604" y="-12"/>
      <point x="659" y="57"/>
      <point x="659" y="187" type="curve" smooth="yes"/>
      <point x="659" y="343"/>
      <point x="557" y="469"/>
      <point x="368" y="491" type="curve"/>
      <point x="357" y="469" type="line"/>
      <point x="526" y="450"/>
      <point x="632" y="342"/>
      <point x="632" y="187" type="curve" smooth="yes"/>
      <point x="632" y="80"/>
      <point x="596" y="14"/>
      <point x="499" y="14" type="curve" smooth="yes"/>
      <point x="425" y="14"/>
      <point x="373" y="61"/>
      <point x="360" y="173" type="curve"/>
      <point x="336" y="173" type="line"/>
      <point x="324" y="72"/>
      <point x="276" y="14"/>
      <point x="196" y="14" type="curve" smooth="yes"/>
      <point x="121" y="14"/>
      <point x="90" y="68"/>
      <point x="90" y="132" type="curve" smooth="yes"/>
      <point x="90" y="202"/>
      <point x="131" y="256"/>
      <point x="225" y="286" type="curve"/>
      <point x="225" y="311" type="line"/>
      <point x="25" y="311" type="line"/>
      <point x="25" y="286" type="line"/>
      <point x="201" y="286" type="line"/>
      <point x="191" y="291" type="line"/>
      <point x="106" y="267"/>
      <point x="63" y="204"/>
      <point x="63" y="132" type="curve" smooth="yes"/>
      <point x="63" y="55"/>
      <point x="105" y="-12"/>
      <point x="197" y="-12" type="curve" smooth="yes"/>
      <point x="273" y="-12"/>
      <point x="333" y="29"/>
      <point x="352" y="143" type="curve"/>
      <point x="343" y="143" type="line"/>
      <point x="359" y="38"/>
      <point x="414" y="-12"/>
    </contour>
    <component base="hattelu" xOffset="241"/>
  </outline>
</glyph>
<glyph name="jatelu" format="2">
  <advance width="674"/>
  <unicode hex="0C1C"/>
  <outline>
    <contour>
      <point x="501" y="-12" type="curve" smooth="yes"/>
      <point x="584" y="-12"/>
      <point x="637" y="34"/>
      <point x="637" y="127" type="curve" smooth="yes"/>
      <point x="637" y="166"/>
      <point x="627" y="204"/>
      <point x="606" y="239" type="curve"/>
      <point x="582" y="227" type="line"/>
      <point x="599" y="200"/>
      <point x="610" y="167"/>
      <point x="610" y="127" type="curve" smooth="yes"/>
      <point x="610" y="56"/>
      <point x="576" y="14"/>
      <point x="501" y="14" type="curve" smooth="yes"/>
      <point x="426" y="14"/>
      <point x="374" y="61"/>
      <point x="361" y="173" type="curve"/>
      <point x="337" y="173" type="line"/>
      <point x="325" y="82"/>
      <point x="283" y="14"/>
      <point x="184" y="14" type="curve" smooth="yes"/>
      <point x="118" y="14"/>
      <point x="75" y="45"/>
      <point x="75" y="116" type="curve" smooth="yes"/>
      <point x="75" y="178"/>
      <point x="109" y="211"/>
      <point x="191" y="245" type="curve" smooth="yes"/>
      <point x="266" y="276"/>
      <point x="307" y="307"/>
      <point x="307" y="380" type="curve" smooth="yes"/>
      <point x="307" y="433"/>
      <point x="273" y="493"/>
      <point x="180" y="493" type="curve" smooth="yes"/>
      <point x="80" y="493"/>
      <point x="43" y="434"/>
      <point x="43" y="376" type="curve" smooth="yes"/>
      <point x="43" y="351"/>
      <point x="49" y="328"/>
      <point x="56" y="309" type="curve"/>
      <point x="82" y="316" type="line"/>
      <point x="74" y="335"/>
      <point x="70" y="355"/>
      <point x="70" y="376" type="curve" smooth="yes"/>
      <point x="70" y="425"/>
      <point x="97" y="467"/>
      <point x="180" y="467" type="curve" smooth="yes"/>
      <point x="256" y="467"/>
      <point x="280" y="421"/>
      <point x="280" y="380" type="curve" smooth="yes"/>
      <point x="280" y="326"/>
      <point x="253" y="299"/>
      <point x="179" y="268" type="curve" smooth="yes"/>
      <point x="96" y="233"/>
      <point x="48" y="196"/>
      <point x="48" y="116" type="curve" smooth="yes"/>
      <point x="48" y="39"/>
      <point x="93" y="-12"/>
      <point x="184" y="-12" type="curve" smooth="yes"/>
      <point x="265" y="-12"/>
      <point x="334" y="29"/>
      <point x="353" y="143" type="curve"/>
      <point x="344" y="143" type="line"/>
      <point x="360" y="38"/>
      <point x="415" y="-12"/>
    </contour>
    <contour>
      <point x="610" y="382" type="curve" smooth="yes"/>
      <point x="610" y="473"/>
      <point x="533" y="493"/>
      <point x="488" y="493" type="curve" smooth="yes"/>
      <point x="460" y="493"/>
      <point x="435" y="489"/>
      <point x="414" y="484" type="curve"/>
      <point x="418" y="460" type="line"/>
      <point x="439" y="465"/>
      <point x="464" y="468"/>
      <point x="488" y="468" type="curve" smooth="yes"/>
      <point x="543" y="468"/>
      <point x="583" y="440"/>
      <point x="583" y="383" type="curve" smooth="yes"/>
      <point x="583" y="342"/>
      <point x="564" y="301"/>
      <point x="482" y="301" type="curve" smooth="yes"/>
      <point x="414" y="301"/>
      <point x="342" y="336"/>
      <point x="302" y="395" type="curve"/>
      <point x="287" y="374" type="line"/>
      <point x="326" y="323"/>
      <point x="386" y="275"/>
      <point x="483" y="275" type="curve" smooth="yes"/>
      <point x="573" y="275"/>
      <point x="610" y="322"/>
    </contour>
  </outline>
</glyph>
<glyph name="nnatelu" format="2">
  <advance width="768"/>
  <unicode hex="0C23"/>
  <outline>
    <contour>
      <point x="555" y="-12" type="curve" smooth="yes"/>
      <point x="656" y="-12"/>
      <point x="725" y="52"/>
      <point x="725" y="230" type="curve" smooth="yes"/>
      <point x="725" y="383"/>
      <point x="662" y="493"/>
      <point x="541" y="493" type="curve" smooth="yes"/>
      <point x="455" y="493"/>
      <point x="405" y="431"/>
      <point x="381" y="339" type="curve"/>
      <point x="391" y="342" type="line"/>
      <point x="367" y="412"/>
      <point x="317" y="493"/>
      <point x="197" y="493" type="curve" smooth="yes"/>
      <point x="111" y="493"/>
      <point x="47" y="446"/>
      <point x="47" y="362" type="curve" smooth="yes"/>
      <point x="47" y="286"/>
      <point x="104" y="244"/>
      <point x="195" y="236" type="curve"/>
      <point x="194" y="246" type="line"/>
      <point x="82" y="242"/>
      <point x="39" y="177"/>
      <point x="39" y="113" type="curve" smooth="yes"/>
      <point x="39" y="44"/>
      <point x="80" y="-12"/>
      <point x="170" y="-12" type="curve" smooth="yes"/>
      <point x="251" y="-12"/>
      <point x="296" y="23"/>
      <point x="347" y="81" type="curve"/>
      <point x="326" y="97" type="line"/>
      <point x="274" y="38"/>
      <point x="237" y="14"/>
      <point x="171" y="14" type="curve" smooth="yes"/>
      <point x="96" y="14"/>
      <point x="66" y="55"/>
      <point x="66" y="113" type="curve" smooth="yes"/>
      <point x="66" y="149"/>
      <point x="79" y="176"/>
      <point x="100" y="194" type="curve" smooth="yes"/>
      <point x="127" y="218"/>
      <point x="164" y="228"/>
      <point x="229" y="228" type="curve" smooth="yes"/>
      <point x="271" y="228" type="line"/>
      <point x="271" y="253" type="line"/>
      <point x="233" y="253" type="line" smooth="yes"/>
      <point x="174" y="253"/>
      <point x="133" y="265"/>
      <point x="107" y="288" type="curve" smooth="yes"/>
      <point x="86" y="306"/>
      <point x="74" y="331"/>
      <point x="74" y="362" type="curve" smooth="yes"/>
      <point x="74" y="432"/>
      <point x="123" y="467"/>
      <point x="198" y="467" type="curve" smooth="yes"/>
      <point x="302" y="467"/>
      <point x="353" y="396"/>
      <point x="375" y="325" type="curve"/>
      <point x="399" y="325" type="line"/>
      <point x="421" y="401"/>
      <point x="459" y="467"/>
      <point x="541" y="467" type="curve" smooth="yes"/>
      <point x="644" y="467"/>
      <point x="698" y="373"/>
      <point x="698" y="236" type="curve" smooth="yes"/>
      <point x="698" y="223" type="line" smooth="yes"/>
      <point x="698" y="54"/>
      <point x="631" y="14"/>
      <point x="555" y="14" type="curve" smooth="yes"/>
      <point x="494" y="14"/>
      <point x="458" y="48"/>
      <point x="458" y="111" type="curve" smooth="yes"/>
      <point x="458" y="178"/>
      <point x="499" y="211"/>
      <point x="556" y="211" type="curve" smooth="yes"/>
      <point x="624" y="211"/>
      <point x="671" y="166"/>
      <point x="699" y="114" type="curve"/>
      <point x="713" y="137" type="line"/>
      <point x="670" y="201"/>
      <point x="625" y="237"/>
      <point x="554" y="237" type="curve" smooth="yes"/>
      <point x="470" y="237"/>
      <point x="431" y="175"/>
      <point x="431" y="112" type="curve" smooth="yes"/>
      <point x="431" y="33"/>
      <point x="481" y="-12"/>
    </contour>
  </outline>
</glyph>
<glyph name="tatelu" format="2">
  <advance width="723"/>
  <unicode hex="0C24"/>
  <outline>
    <contour>
      <point x="357" y="-12" type="curve" smooth="yes"/>
      <point x="592" y="-12"/>
      <point x="682" y="86"/>
      <point x="682" y="245" type="curve" smooth="yes"/>
      <point x="682" y="364"/>
      <point x="618" y="476"/>
      <point x="392" y="492" type="curve"/>
      <point x="380" y="469" type="line"/>
      <point x="482" y="464"/>
      <point x="591" y="430"/>
      <point x="634" y="361" type="curve"/>
      <point x="636" y="362" type="line"/>
      <point x="613" y="384"/>
      <point x="586" y="402"/>
      <point x="544" y="402" type="curve" smooth="yes"/>
      <point x="470" y="402"/>
      <point x="432" y="352"/>
      <point x="432" y="293" type="curve" smooth="yes"/>
      <point x="432" y="227"/>
      <point x="475" y="183"/>
      <point x="550" y="183" type="curve" smooth="yes"/>
      <point x="613" y="183"/>
      <point x="651" y="224"/>
      <point x="664" y="263" type="curve"/>
      <point x="657" y="313" type="line"/>
      <point x="652" y="272"/>
      <point x="629" y="209"/>
      <point x="549" y="209" type="curve" smooth="yes"/>
      <point x="486" y="209"/>
      <point x="459" y="245"/>
      <point x="459" y="292" type="curve" smooth="yes"/>
      <point x="459" y="341"/>
      <point x="486" y="378"/>
      <point x="548" y="378" type="curve" smooth="yes"/>
      <point x="614" y="378"/>
      <point x="657" y="329"/>
      <point x="657" y="261" type="curve" smooth="yes"/>
      <point x="657" y="254" type="line" smooth="yes"/>
      <point x="657" y="96"/>
      <point x="571" y="14"/>
      <point x="357" y="14" type="curve" smooth="yes"/>
      <point x="169" y="14"/>
      <point x="65" y="103"/>
      <point x="65" y="235" type="curve" smooth="yes"/>
      <point x="65" y="240" type="line" smooth="yes"/>
      <point x="65" y="309"/>
      <point x="109" y="378"/>
      <point x="194" y="378" type="curve" smooth="yes"/>
      <point x="243" y="378"/>
      <point x="274" y="350"/>
      <point x="274" y="298" type="curve" smooth="yes"/>
      <point x="274" y="241"/>
      <point x="241" y="209"/>
      <point x="168" y="209" type="curve" smooth="yes"/>
      <point x="119" y="209"/>
      <point x="86" y="229"/>
      <point x="63" y="252" type="curve"/>
      <point x="55" y="225" type="line"/>
      <point x="83" y="201"/>
      <point x="121" y="183"/>
      <point x="169" y="183" type="curve" smooth="yes"/>
      <point x="259" y="183"/>
      <point x="301" y="231"/>
      <point x="301" y="298" type="curve" smooth="yes"/>
      <point x="301" y="368"/>
      <point x="254" y="404"/>
      <point x="193" y="404" type="curve" smooth="yes"/>
      <point x="106" y="404"/>
      <point x="40" y="334"/>
      <point x="40" y="233" type="curve" smooth="yes"/>
      <point x="40" y="88"/>
      <point x="156" y="-12"/>
    </contour>
    <component base="hattelu" xOffset="262"/>
  </outline>
</glyph>
<glyph name="natelu" format="2">
  <advance width="653"/>
  <unicode hex="0C28"/>
  <outline>
    <contour>
      <point x="460" y="-12" type="curve" smooth="yes"/>
      <point x="553" y="-12"/>
      <point x="611" y="57"/>
      <point x="611" y="184" type="curve" smooth="yes"/>
      <point x="611" y="355"/>
      <point x="482" y="488"/>
      <point x="237" y="493" type="curve"/>
      <point x="212" y="469" type="line"/>
      <point x="220" y="469" type="line" smooth="yes"/>
      <point x="410" y="469"/>
      <point x="584" y="384"/>
      <point x="584" y="183" type="curve" smooth="yes"/>
      <point x="584" y="80"/>
      <point x="547" y="14"/>
      <point x="460" y="14" type="curve" smooth="yes"/>
      <point x="389" y="14"/>
      <point x="346" y="52"/>
      <point x="284" y="145" type="curve" smooth="yes"/>
      <point x="229" y="227"/>
      <point x="199" y="257"/>
      <point x="139" y="257" type="curve" smooth="yes"/>
      <point x="79" y="257"/>
      <point x="36" y="204"/>
      <point x="36" y="137" type="curve" smooth="yes"/>
      <point x="36" y="85"/>
      <point x="55" y="35"/>
      <point x="87" y="-13" type="curve"/>
      <point x="112" y="-5" type="line"/>
      <point x="78" y="50"/>
      <point x="63" y="88"/>
      <point x="63" y="137" type="curve" smooth="yes"/>
      <point x="63" y="186"/>
      <point x="89" y="231"/>
      <point x="140" y="231" type="curve" smooth="yes"/>
      <point x="185" y="231"/>
      <point x="209" y="210"/>
      <point x="261" y="133" type="curve" smooth="yes"/>
      <point x="334" y="25"/>
      <point x="381" y="-12"/>
    </contour>
    <component base="hattelu" xOffset="97"/>
  </outline>
</glyph>
<glyph name="batelu" format="2">
  <advance width="702"/>
  <unicode hex="0C2C"/>
  <outline>
    <contour>
      <point x="500" y="-12" type="curve" smooth="yes"/>
      <point x="605" y="-12"/>
      <point x="660" y="57"/>
      <point x="660" y="187" type="curve" smooth="yes"/>
      <point x="660" y="341"/>
      <point x="563" y="439"/>
      <point x="432" y="495" type="curve"/>
      <point x="420" y="471" type="line"/>
      <point x="552" y="415"/>
      <point x="633" y="325"/>
      <point x="633" y="187" type="curve" smooth="yes"/>
      <point x="633" y="80"/>
      <point x="597" y="14"/>
      <point x="500" y="14" type="curve" smooth="yes"/>
      <point x="426" y="14"/>
      <point x="374" y="61"/>
      <point x="361" y="173" type="curve"/>
      <point x="337" y="173" type="line"/>
      <point x="325" y="82"/>
      <point x="283" y="14"/>
      <point x="184" y="14" type="curve" smooth="yes"/>
      <point x="118" y="14"/>
      <point x="75" y="45"/>
      <point x="75" y="116" type="curve" smooth="yes"/>
      <point x="75" y="178"/>
      <point x="109" y="211"/>
      <point x="191" y="245" type="curve" smooth="yes"/>
      <point x="266" y="276"/>
      <point x="307" y="307"/>
      <point x="307" y="380" type="curve" smooth="yes"/>
      <point x="307" y="433"/>
      <point x="273" y="493"/>
      <point x="180" y="493" type="curve" smooth="yes"/>
      <point x="80" y="493"/>
      <point x="43" y="434"/>
      <point x="43" y="376" type="curve" smooth="yes"/>
      <point x="43" y="351"/>
      <point x="49" y="328"/>
      <point x="56" y="309" type="curve"/>
      <point x="82" y="316" type="line"/>
      <point x="74" y="335"/>
      <point x="70" y="355"/>
      <point x="70" y="376" type="curve" smooth="yes"/>
      <point x="70" y="425"/>
      <point x="97" y="467"/>
      <point x="180" y="467" type="curve" smooth="yes"/>
      <point x="256" y="467"/>
      <point x="280" y="421"/>
      <point x="280" y="380" type="curve" smooth="yes"/>
      <point x="280" y="326"/>
      <point x="253" y="299"/>
      <point x="179" y="268" type="curve" smooth="yes"/>
      <point x="96" y="233"/>
      <point x="48" y="196"/>
      <point x="48" y="116" type="curve" smooth="yes"/>
      <point x="48" y="39"/>
      <point x="93" y="-12"/>
      <point x="184" y="-12" type="curve" smooth="yes"/>
      <point x="265" y="-12"/>
      <point x="334" y="29"/>
      <point x="353" y="143" type="curve"/>
      <point x="344" y="143" type="line"/>
      <point x="360" y="38"/>
      <point x="415" y="-12"/>
    </contour>
  </outline>
</glyph>
<glyph name="rratelu" format="2">
  <advance width="767"/>
  <unicode hex="0C31"/>
  <outline>
    <contour>
      <point x="541" y="-12" type="curve" smooth="yes"/>
      <point x="659" y="-12"/>
      <point x="718" y="81"/>
      <point x="718" y="252" type="curve" smooth="yes"/>
      <point x="718" y="405"/>
      <point x="662" y="493"/>
      <point x="565" y="493" type="curve" smooth="yes"/>
      <point x="504" y="493"/>
      <point x="458" y="445"/>
      <point x="458" y="381" type="curve" smooth="yes"/>
      <point x="458" y="306"/>
      <point x="520" y="260"/>
      <point x="580" y="243" type="curve"/>
      <point x="579" y="254" type="line"/>
      <point x="275" y="254" type="line"/>
      <point x="275" y="229" type="line"/>
      <point x="595" y="229" type="line"/>
      <point x="595" y="253" type="line"/>
      <point x="533" y="281"/>
      <point x="485" y="318"/>
      <point x="485" y="381" type="curve" smooth="yes"/>
      <point x="485" y="434"/>
      <point x="520" y="467"/>
      <point x="568" y="467" type="curve" smooth="yes"/>
      <point x="651" y="467"/>
      <point x="691" y="378"/>
      <point x="691" y="252" type="curve" smooth="yes"/>
      <point x="691" y="96"/>
      <point x="646" y="14"/>
      <point x="540" y="14" type="curve" smooth="yes"/>
      <point x="441" y="14"/>
      <point x="406" y="101"/>
      <point x="396" y="173" type="curve"/>
      <point x="372" y="173" type="line"/>
      <point x="359" y="83"/>
      <point x="317" y="14"/>
      <point x="227" y="14" type="curve" smooth="yes"/>
      <point x="98" y="14"/>
      <point x="76" y="125"/>
      <point x="76" y="246" type="curve" smooth="yes"/>
      <point x="76" y="252" type="line" smooth="yes"/>
      <point x="76" y="389"/>
      <point x="129" y="467"/>
      <point x="208" y="467" type="curve" smooth="yes"/>
      <point x="254" y="467"/>
      <point x="285" y="438"/>
      <point x="285" y="382" type="curve" smooth="yes"/>
      <point x="285" y="325"/>
      <point x="253" y="290"/>
      <point x="181" y="290" type="curve" smooth="yes"/>
      <point x="130" y="290"/>
      <point x="93" y="315"/>
      <point x="74" y="341" type="curve"/>
      <point x="66" y="313" type="line"/>
      <point x="90" y="286"/>
      <point x="132" y="264"/>
      <point x="180" y="264" type="curve" smooth="yes"/>
      <point x="270" y="264"/>
      <point x="312" y="315"/>
      <point x="312" y="382" type="curve" smooth="yes"/>
      <point x="312" y="457"/>
      <point x="262" y="493"/>
      <point x="207" y="493" type="curve" smooth="yes"/>
      <point x="129" y="493"/>
      <point x="49" y="422"/>
      <point x="49" y="249" type="curve" smooth="yes"/>
      <point x="49" y="42"/>
      <point x="128" y="-12"/>
      <point x="226" y="-12" type="curve" smooth="yes"/>
      <point x="299" y="-12"/>
      <point x="368" y="30"/>
      <point x="388" y="143" type="curve"/>
      <point x="380" y="143" type="line"/>
      <point x="400" y="30"/>
      <point x="471" y="-12"/>
    </contour>
  </outline>
</glyph>
<glyph name="llatelu" format="2">
  <advance width="582"/>
  <unicode hex="0C33"/>
  <outline>
    <contour>
      <point x="306" y="-12" type="curve" smooth="yes"/>
      <point x="364" y="-12"/>
      <point x="426" y="9"/>
      <point x="426" y="83" type="curve" smooth="yes"/>
      <point x="426" y="133"/>
      <point x="395" y="162"/>
      <point x="350" y="176" type="curve" smooth="yes"/>
      <point x="346" y="177"/>
      <point x="342" y="179"/>
      <point x="338" y="180" type="curve" smooth="yes"/>
      <point x="315" y="188"/>
      <point x="288" y="194"/>
      <point x="250" y="197" type="curve" smooth="yes"/>
      <point x="95" y="211"/>
      <point x="58" y="259"/>
      <point x="58" y="322" type="curve" smooth="yes"/>
      <point x="58" y="373"/>
      <point x="98" y="405"/>
      <point x="160" y="405" type="curve" smooth="yes"/>
      <point x="222" y="405"/>
      <point x="252" y="371"/>
      <point x="252" y="326" type="curve" smooth="yes"/>
      <point x="252" y="261"/>
      <point x="185" y="227"/>
      <point x="106" y="219" type="curve"/>
      <point x="131" y="203" type="line"/>
      <point x="231" y="219"/>
      <point x="279" y="260"/>
      <point x="279" y="328" type="curve" smooth="yes"/>
      <point x="279" y="385"/>
      <point x="238" y="431"/>
      <point x="160" y="431" type="curve" smooth="yes"/>
      <point x="80" y="431"/>
      <point x="31" y="379"/>
      <point x="31" y="322" type="curve" smooth="yes"/>
      <point x="31" y="237"/>
      <point x="100" y="181"/>
      <point x="272" y="174" type="curve" smooth="yes"/>
      <point x="277" y="174"/>
      <point x="281" y="169"/>
      <point x="292" y="168" type="curve" smooth="yes"/>
      <point x="364" y="161"/>
      <point x="400" y="131"/>
      <point x="400" y="83" type="curve" smooth="yes"/>
      <point x="400" y="41"/>
      <point x="372" y="14"/>
      <point x="302" y="14" type="curve" smooth="yes"/>
      <point x="238" y="14"/>
      <point x="202" y="39"/>
      <point x="202" y="84" type="curve" smooth="yes"/>
      <point x="202" y="131"/>
      <point x="248" y="157"/>
      <point x="313" y="166" type="curve"/>
      <point x="338" y="167" type="line"/>
      <point x="470" y="182"/>
      <point x="551" y="234"/>
      <point x="551" y="330" type="curve" smooth="yes"/>
      <point x="551" y="418"/>
      <point x="485" y="468"/>
      <point x="339" y="491" type="curve"/>
      <point x="319" y="471" type="line"/>
      <point x="472" y="448"/>
      <point x="524" y="402"/>
      <point x="524" y="329" type="curve" smooth="yes"/>
      <point x="524" y="239"/>
      <point x="438" y="198"/>
      <point x="287" y="182" type="curve"/>
      <point x="278" y="176" type="line"/>
      <point x="215" y="168"/>
      <point x="176" y="134"/>
      <point x="176" y="85" type="curve" smooth="yes"/>
      <point x="176" y="5"/>
      <point x="248" y="-12"/>
    </contour>
    <component base="hattelu" xOffset="201"/>
  </outline>
</glyph>
<glyph name="lllatelu" format="2">
  <advance width="760"/>
  <unicode hex="0C34"/>
  <outline>
    <contour>
      <point x="540" y="-12" type="curve" smooth="yes"/>
      <point x="651" y="-12"/>
      <point x="711" y="65"/>
      <point x="711" y="222" type="curve" smooth="yes"/>
      <point x="711" y="420"/>
      <point x="607" y="493"/>
      <point x="531" y="493" type="curve" smooth="yes"/>
      <point x="474" y="493"/>
      <point x="424" y="457"/>
      <point x="424" y="382" type="curve" smooth="yes"/>
      <point x="424" y="315"/>
      <point x="466" y="264"/>
      <point x="556" y="264" type="curve" smooth="yes"/>
      <point x="611" y="264"/>
      <point x="658" y="286"/>
      <point x="682" y="313" type="curve"/>
      <point x="674" y="341" type="line"/>
      <point x="655" y="315"/>
      <point x="613" y="290"/>
      <point x="555" y="290" type="curve" smooth="yes"/>
      <point x="483" y="290"/>
      <point x="451" y="325"/>
      <point x="451" y="382" type="curve" smooth="yes"/>
      <point x="451" y="438"/>
      <point x="482" y="467"/>
      <point x="530" y="467" type="curve" smooth="yes"/>
      <point x="624" y="467"/>
      <point x="685" y="359"/>
      <point x="685" y="233" type="curve" smooth="yes"/>
      <point x="685" y="215" type="line" smooth="yes"/>
      <point x="685" y="108"/>
      <point x="653" y="14"/>
      <point x="541" y="14" type="curve" smooth="yes"/>
      <point x="447" y="14"/>
      <point x="405" y="83"/>
      <point x="392" y="173" type="curve"/>
      <point x="368" y="173" type="line"/>
      <point x="355" y="83"/>
      <point x="313" y="14"/>
      <point x="219" y="14" type="curve" smooth="yes"/>
      <point x="107" y="14"/>
      <point x="75" y="108"/>
      <point x="75" y="215" type="curve" smooth="yes"/>
      <point x="75" y="233" type="line" smooth="yes"/>
      <point x="75" y="359"/>
      <point x="136" y="467"/>
      <point x="230" y="467" type="curve" smooth="yes"/>
      <point x="278" y="467"/>
      <point x="309" y="438"/>
      <point x="309" y="382" type="curve" smooth="yes"/>
      <point x="309" y="325"/>
      <point x="277" y="290"/>
      <point x="205" y="290" type="curve" smooth="yes"/>
      <point x="147" y="290"/>
      <point x="105" y="315"/>
      <point x="86" y="341" type="curve"/>
      <point x="78" y="313" type="line"/>
      <point x="102" y="286"/>
      <point x="149" y="264"/>
      <point x="204" y="264" type="curve" smooth="yes"/>
      <point x="294" y="264"/>
      <point x="336" y="315"/>
      <point x="336" y="382" type="curve" smooth="yes"/>
      <point x="336" y="457"/>
      <point x="286" y="493"/>
      <point x="229" y="493" type="curve" smooth="yes"/>
      <point x="153" y="493"/>
      <point x="49" y="420"/>
      <point x="49" y="222" type="curve" smooth="yes"/>
      <point x="49" y="65"/>
      <point x="109" y="-12"/>
      <point x="220" y="-12" type="curve" smooth="yes"/>
      <point x="295" y="-12"/>
      <point x="364" y="30"/>
      <point x="384" y="143" type="curve"/>
      <point x="376" y="143" type="line"/>
      <point x="396" y="30"/>
      <point x="465" y="-12"/>
    </contour>
  </outline>
</glyph>
<glyph name="avagrahatelu" format="2">
  <advance width="558"/>
  <unicode hex="0C3D"/>
  <outline>
    <contour>
      <point x="180" y="493" type="curve" smooth="yes"/>
      <point x="80" y="493"/>
      <point x="43" y="434"/>
      <point x="43" y="376" type="curve" smooth="yes"/>
      <point x="43" y="351"/>
      <point x="49" y="328"/>
      <point x="56" y="309" type="curve"/>
      <point x="82" y="316" type="line"/>
      <point x="74" y="335"/>
      <point x="70" y="355"/>
      <point x="70" y="376" type="curve" smooth="yes"/>
      <point x="70" y="425"/>
      <point x="97" y="467"/>
      <point x="180" y="467" type="curve" smooth="yes"/>
      <point x="256" y="467"/>
      <point x="280" y="421"/>
      <point x="280" y="380" type="curve" smooth="yes"/>
      <point x="280" y="326"/>
      <point x="253" y="299"/>
      <point x="179" y="268" type="curve" smooth="yes"/>
      <point x="96" y="233"/>
      <point x="48" y="198"/>
      <point x="48" y="116" type="curve" smooth="yes"/>
      <point x="48" y="83"/>
      <point x="58" y="57"/>
      <point x="77" y="38" type="curve" smooth="yes"/>
      <point x="103" y="12"/>
      <point x="139" y="0"/>
      <point x="233" y="0" type="curve" smooth="yes"/>
      <point x="543" y="0" type="line"/>
      <point x="543" y="26" type="line"/>
      <point x="238" y="26" type="line" smooth="yes"/>
      <point x="158" y="26"/>
      <point x="128" y="32"/>
      <point x="103" y="51" type="curve" smooth="yes"/>
      <point x="85" y="65"/>
      <point x="75" y="86"/>
      <point x="75" y="116" type="curve" smooth="yes"/>
      <point x="75" y="180"/>
      <point x="109" y="211"/>
      <point x="191" y="245" type="curve" smooth="yes"/>
      <point x="266" y="276"/>
      <point x="307" y="307"/>
      <point x="307" y="380" type="curve" smooth="yes"/>
      <point x="307" y="433"/>
      <point x="273" y="493"/>
    </contour>
  </outline>
</glyph>
<glyph name="aavowelsigntelu" format="2">
  <advance width="208"/>
  <unicode hex="0C3E"/>
  <outline>
    <contour>
      <point x="80" y="263" type="curve" smooth="yes"/>
      <point x="152" y="263"/>
      <point x="188" y="304"/>
      <point x="188" y="371" type="curve" smooth="yes"/>
      <point x="188" y="408"/>
      <point x="175" y="439"/>
      <point x="150" y="460" type="curve" smooth="yes"/>
      <point x="124" y="482"/>
      <point x="89" y="493"/>
      <point x="32" y="493" type="curve" smooth="yes"/>
      <point x="-546" y="493" type="line"/>
      <point x="-546" y="468" type="line"/>
      <point x="42" y="468" type="line" smooth="yes"/>
      <point x="118" y="468"/>
      <point x="162" y="435"/>
      <point x="162" y="371" type="curve" smooth="yes"/>
      <point x="162" y="321"/>
      <point x="139" y="288"/>
      <point x="79" y="288" type="curve" smooth="yes"/>
      <point x="37" y="288"/>
      <point x="-6" y="313"/>
      <point x="-6" y="372" type="curve" smooth="yes"/>
      <point x="-6" y="406"/>
      <point x="10" y="440"/>
      <point x="46" y="475" type="curve"/>
      <point x="22" y="481" type="line"/>
      <point x="-11" y="452"/>
      <point x="-32" y="411"/>
      <point x="-32" y="372" type="curve" smooth="yes"/>
      <point x="-32" y="304"/>
      <point x="17" y="263"/>
    </contour>
  </outline>
</glyph>
<glyph name="ivowelsigntelu" format="2">
  <unicode hex="0C3F"/>
  <outline>
    <contour>
      <point x="-280" y="469" type="curve" smooth="yes"/>
      <point x="-193" y="469"/>
      <point x="-133" y="510"/>
      <point x="-133" y="613" type="curve" smooth="yes"/>
      <point x="-133" y="704"/>
      <point x="-196" y="769"/>
      <point x="-282" y="769" type="curve" smooth="yes"/>
      <point x="-347" y="769"/>
      <point x="-393" y="730"/>
      <point x="-393" y="674" type="curve" smooth="yes"/>
      <point x="-393" y="610"/>
      <point x="-344" y="580"/>
      <point x="-286" y="580" type="curve" smooth="yes"/>
      <point x="-211" y="580"/>
      <point x="-168" y="623"/>
      <point x="-149" y="653" type="curve"/>
      <point x="-159" y="677" type="line"/>
      <point x="-190" y="634"/>
      <point x="-229" y="605"/>
      <point x="-288" y="605" type="curve" smooth="yes"/>
      <point x="-329" y="605"/>
      <point x="-366" y="623"/>
      <point x="-366" y="674" type="curve" smooth="yes"/>
      <point x="-366" y="714"/>
      <point x="-340" y="743"/>
      <point x="-282" y="743" type="curve" smooth="yes"/>
      <point x="-212" y="743"/>
      <point x="-159" y="690"/>
      <point x="-159" y="615" type="curve" smooth="yes"/>
      <point x="-159" y="611" type="line" smooth="yes"/>
      <point x="-159" y="525"/>
      <point x="-206" y="493"/>
      <point x="-281" y="493" type="curve" smooth="yes"/>
      <point x="-313" y="493"/>
      <point x="-341" y="497"/>
      <point x="-375" y="511" type="curve"/>
      <point x="-385" y="489" type="line"/>
      <point x="-352" y="475"/>
      <point x="-316" y="469"/>
    </contour>
  </outline>
</glyph>
<glyph name="iivowelsigntelu" format="2">
  <unicode hex="0C40"/>
  <outline>
    <contour>
      <point x="-280" y="469" type="curve" smooth="yes"/>
      <point x="-193" y="469"/>
      <point x="-133" y="508"/>
      <point x="-133" y="605" type="curve" smooth="yes"/>
      <point x="-133" y="691"/>
      <point x="-196" y="752"/>
      <point x="-282" y="752" type="curve" smooth="yes"/>
      <point x="-347" y="752"/>
      <point x="-393" y="716"/>
      <point x="-393" y="663" type="curve" smooth="yes"/>
      <point x="-393" y="601"/>
      <point x="-344" y="573"/>
      <point x="-286" y="573" type="curve" smooth="yes"/>
      <point x="-211" y="573"/>
      <point x="-168" y="616"/>
      <point x="-149" y="646" type="curve"/>
      <point x="-159" y="670" type="line"/>
      <point x="-190" y="627"/>
      <point x="-229" y="598"/>
      <point x="-288" y="598" type="curve" smooth="yes"/>
      <point x="-329" y="598"/>
      <point x="-366" y="615"/>
      <point x="-366" y="662" type="curve" smooth="yes"/>
      <point x="-366" y="700"/>
      <point x="-340" y="727"/>
      <point x="-282" y="727" type="curve" smooth="yes"/>
      <point x="-212" y="727"/>
      <point x="-159" y="677"/>
      <point x="-159" y="607" type="curve" smooth="yes"/>
      <point x="-159" y="603" type="line" smooth="yes"/>
      <point x="-159" y="523"/>
      <point x="-206" y="493"/>
      <point x="-281" y="493" type="curve" smooth="yes"/>
      <point x="-313" y="493"/>
      <point x="-341" y="497"/>
      <point x="-375" y="511" type="curve"/>
      <point x="-385" y="489" type="line"/>
      <point x="-352" y="475"/>
      <point x="-316" y="469"/>
    </contour>
    <contour>
      <point x="-249" y="869" type="curve" smooth="yes"/>
      <point x="-317" y="869"/>
      <point x="-363" y="831"/>
      <point x="-363" y="774" type="curve" smooth="yes"/>
      <point x="-363" y="748"/>
      <point x="-354" y="732"/>
      <point x="-343" y="715" type="curve"/>
      <point x="-320" y="727" type="line"/>
      <point x="-328" y="737"/>
      <point x="-336" y="752"/>
      <point x="-336" y="772" type="curve" smooth="yes"/>
      <point x="-336" y="820"/>
      <point x="-301" y="844"/>
      <point x="-250" y="844" type="curve" smooth="yes"/>
      <point x="-195" y="844"/>
      <point x="-164" y="817"/>
      <point x="-149" y="772" type="curve"/>
      <point x="-123" y="779" type="line"/>
      <point x="-139" y="825"/>
      <point x="-174" y="869"/>
    </contour>
  </outline>
</glyph>
<glyph name="uvowelsigntelu" format="2">
  <advance width="332"/>
  <unicode hex="0C41"/>
  <outline>
    <contour>
      <point x="134" y="-12" type="curve" smooth="yes"/>
      <point x="235" y="-12"/>
      <point x="290" y="57"/>
      <point x="290" y="187" type="curve" smooth="yes"/>
      <point x="290" y="341"/>
      <point x="193" y="439"/>
      <point x="62" y="495" type="curve"/>
      <point x="50" y="471" type="line"/>
      <point x="182" y="415"/>
      <point x="263" y="325"/>
      <point x="263" y="187" type="curve" smooth="yes"/>
      <point x="263" y="80"/>
      <point x="227" y="14"/>
      <point x="135" y="14" type="curve" smooth="yes"/>
      <point x="61" y="14"/>
      <point x="11" y="40"/>
      <point x="-57" y="132" type="curve"/>
      <point x="-72" y="112" type="line"/>
      <point x="-11" y="24"/>
      <point x="51" y="-12"/>
    </contour>
  </outline>
</glyph>
<glyph name="uuvowelsigntelu" format="2">
  <advance width="602"/>
  <unicode hex="0C42"/>
  <outline>
    <contour>
      <point x="134" y="-12" type="curve" smooth="yes"/>
      <point x="235" y="-12"/>
      <point x="290" y="57"/>
      <point x="290" y="182" type="curve" smooth="yes"/>
      <point x="290" y="331"/>
      <point x="191" y="429"/>
      <point x="98" y="472" type="curve"/>
      <point x="93" y="480" type="line"/>
      <point x="86" y="484"/>
      <point x="81" y="489"/>
      <point x="69" y="493" type="curve"/>
      <point x="60" y="469" type="line"/>
      <point x="184" y="407"/>
      <point x="263" y="318"/>
      <point x="263" y="182" type="curve" smooth="yes"/>
      <point x="263" y="80"/>
      <point x="227" y="14"/>
      <point x="135" y="14" type="curve" smooth="yes"/>
      <point x="61" y="14"/>
      <point x="11" y="40"/>
      <point x="-57" y="132" type="curve"/>
      <point x="-72" y="112" type="line"/>
      <point x="-11" y="24"/>
      <point x="51" y="-12"/>
    </contour>
    <contour>
      <point x="474" y="263" type="curve" smooth="yes"/>
      <point x="546" y="263"/>
      <point x="582" y="304"/>
      <point x="582" y="371" type="curve" smooth="yes"/>
      <point x="582" y="408"/>
      <point x="569" y="439"/>
      <point x="544" y="460" type="curve" smooth="yes"/>
      <point x="518" y="482"/>
      <point x="483" y="493"/>
      <point x="426" y="493" type="curve" smooth="yes"/>
      <point x="69" y="493" type="line"/>
      <point x="69" y="468" type="line"/>
      <point x="436" y="468" type="line" smooth="yes"/>
      <point x="512" y="468"/>
      <point x="556" y="435"/>
      <point x="556" y="371" type="curve" smooth="yes"/>
      <point x="556" y="321"/>
      <point x="533" y="288"/>
      <point x="473" y="288" type="curve" smooth="yes"/>
      <point x="431" y="288"/>
      <point x="388" y="313"/>
      <point x="388" y="372" type="curve" smooth="yes"/>
      <point x="388" y="406"/>
      <point x="404" y="440"/>
      <point x="440" y="475" type="curve"/>
      <point x="416" y="481" type="line"/>
      <point x="383" y="452"/>
      <point x="362" y="411"/>
      <point x="362" y="372" type="curve" smooth="yes"/>
      <point x="362" y="304"/>
      <point x="411" y="263"/>
    </contour>
  </outline>
</glyph>
<glyph name="rvocalicvowelsigntelu" format="2">
  <advance width="368"/>
  <unicode hex="0C43"/>
  <outline>
    <contour>
      <point x="94" y="-369" type="curve" smooth="yes"/>
      <point x="249" y="-369"/>
      <point x="358" y="-281"/>
      <point x="358" y="-79" type="curve" smooth="yes"/>
      <point x="358" y="187"/>
      <point x="198" y="377"/>
      <point x="-5" y="493" type="curve"/>
      <point x="-18" y="470" type="line"/>
      <point x="201" y="343"/>
      <point x="331" y="154"/>
      <point x="331" y="-81" type="curve" smooth="yes"/>
      <point x="331" y="-293"/>
      <point x="200" y="-343"/>
      <point x="95" y="-343" type="curve" smooth="yes"/>
      <point x="-16" y="-343"/>
      <point x="-79" y="-283"/>
      <point x="-79" y="-191" type="curve" smooth="yes"/>
      <point x="-79" y="-187" type="line" smooth="yes"/>
      <point x="-79" y="-118"/>
      <point x="-42" y="-60"/>
      <point x="31" y="-60" type="curve" smooth="yes"/>
      <point x="80" y="-60"/>
      <point x="111" y="-87"/>
      <point x="111" y="-136" type="curve" smooth="yes"/>
      <point x="111" y="-184"/>
      <point x="79" y="-211"/>
      <point x="12" y="-211" type="curve" smooth="yes"/>
      <point x="-30" y="-211"/>
      <point x="-65" y="-195"/>
      <point x="-97" y="-170" type="curve"/>
      <point x="-96" y="-198" type="line"/>
      <point x="-66" y="-223"/>
      <point x="-25" y="-236"/>
      <point x="14" y="-236" type="curve" smooth="yes"/>
      <point x="97" y="-236"/>
      <point x="137" y="-200"/>
      <point x="137" y="-133" type="curve" smooth="yes"/>
      <point x="137" y="-78"/>
      <point x="103" y="-35"/>
      <point x="30" y="-35" type="curve" smooth="yes"/>
      <point x="-42" y="-35"/>
      <point x="-104" y="-91"/>
      <point x="-104" y="-188" type="curve" smooth="yes"/>
      <point x="-104" y="-299"/>
      <point x="-23" y="-369"/>
    </contour>
  </outline>
</glyph>
<glyph name="rrvocalicvowelsigntelu" format="2">
  <advance width="579"/>
  <unicode hex="0C44"/>
  <outline>
    <contour>
      <point x="94" y="-369" type="curve" smooth="yes"/>
      <point x="249" y="-369"/>
      <point x="358" y="-281"/>
      <point x="358" y="-79" type="curve" smooth="yes"/>
      <point x="358" y="174"/>
      <point x="214" y="358"/>
      <point x="20" y="474" type="curve"/>
      <point x="13" y="482" type="line"/>
      <point x="15" y="481"/>
      <point x="12" y="489"/>
      <point x="5" y="493" type="curve"/>
      <point x="-6" y="463" type="line"/>
      <point x="202" y="338"/>
      <point x="331" y="154"/>
      <point x="331" y="-81" type="curve" smooth="yes"/>
      <point x="331" y="-293"/>
      <point x="201" y="-343"/>
      <point x="96" y="-343" type="curve" smooth="yes"/>
      <point x="-15" y="-343"/>
      <point x="-79" y="-283"/>
      <point x="-79" y="-191" type="curve" smooth="yes"/>
      <point x="-79" y="-187" type="line" smooth="yes"/>
      <point x="-79" y="-118"/>
      <point x="-42" y="-60"/>
      <point x="31" y="-60" type="curve" smooth="yes"/>
      <point x="80" y="-60"/>
      <point x="111" y="-87"/>
      <point x="111" y="-136" type="curve" smooth="yes"/>
      <point x="111" y="-184"/>
      <point x="79" y="-211"/>
      <point x="12" y="-211" type="curve" smooth="yes"/>
      <point x="-30" y="-211"/>
      <point x="-65" y="-195"/>
      <point x="-97" y="-170" type="curve"/>
      <point x="-96" y="-198" type="line"/>
      <point x="-66" y="-223"/>
      <point x="-25" y="-236"/>
      <point x="14" y="-236" type="curve" smooth="yes"/>
      <point x="97" y="-236"/>
      <point x="137" y="-200"/>
      <point x="137" y="-133" type="curve" smooth="yes"/>
      <point x="137" y="-78"/>
      <point x="103" y="-35"/>
      <point x="30" y="-35" type="curve" smooth="yes"/>
      <point x="-42" y="-35"/>
      <point x="-104" y="-91"/>
      <point x="-104" y="-188" type="curve" smooth="yes"/>
      <point x="-104" y="-299"/>
      <point x="-23" y="-369"/>
    </contour>
    <contour>
      <point x="451" y="263" type="curve" smooth="yes"/>
      <point x="523" y="263"/>
      <point x="559" y="304"/>
      <point x="559" y="371" type="curve" smooth="yes"/>
      <point x="559" y="408"/>
      <point x="546" y="439"/>
      <point x="521" y="460" type="curve" smooth="yes"/>
      <point x="495" y="482"/>
      <point x="460" y="493"/>
      <point x="403" y="493" type="curve" smooth="yes"/>
      <point x="5" y="493" type="line"/>
      <point x="7" y="472" type="line"/>
      <point x="46" y="469"/>
      <point x="93" y="468"/>
      <point x="134" y="468" type="curve" smooth="yes"/>
      <point x="413" y="468" type="line" smooth="yes"/>
      <point x="489" y="468"/>
      <point x="533" y="435"/>
      <point x="533" y="371" type="curve" smooth="yes"/>
      <point x="533" y="321"/>
      <point x="510" y="288"/>
      <point x="450" y="288" type="curve" smooth="yes"/>
      <point x="408" y="288"/>
      <point x="365" y="313"/>
      <point x="365" y="372" type="curve" smooth="yes"/>
      <point x="365" y="406"/>
      <point x="381" y="440"/>
      <point x="417" y="475" type="curve"/>
      <point x="393" y="481" type="line"/>
      <point x="360" y="452"/>
      <point x="339" y="411"/>
      <point x="339" y="372" type="curve" smooth="yes"/>
      <point x="339" y="304"/>
      <point x="388" y="263"/>
    </contour>
  </outline>
</glyph>
<glyph name="evowelsigntelu" format="2">
  <unicode hex="0C46"/>
  <outline>
    <contour>
      <point x="-56" y="569" type="curve" smooth="yes"/>
      <point x="-56" y="600"/>
      <point x="-67" y="626"/>
      <point x="-87" y="643" type="curve" smooth="yes"/>
      <point x="-111" y="663"/>
      <point x="-141" y="673"/>
      <point x="-206" y="673" type="curve" smooth="yes"/>
      <point x="-517" y="673" type="line"/>
      <point x="-517" y="648" type="line"/>
      <point x="-207" y="648" type="line" smooth="yes"/>
      <point x="-153" y="648"/>
      <point x="-126" y="642"/>
      <point x="-106" y="626" type="curve" smooth="yes"/>
      <point x="-90" y="613"/>
      <point x="-83" y="593"/>
      <point x="-83" y="569" type="curve" smooth="yes"/>
      <point x="-83" y="548"/>
      <point x="-89" y="528"/>
      <point x="-106" y="514" type="curve" smooth="yes"/>
      <point x="-126" y="498"/>
      <point x="-152" y="493"/>
      <point x="-209" y="493" type="curve" smooth="yes"/>
      <point x="-270" y="493" type="line"/>
      <point x="-270" y="469" type="line"/>
      <point x="-208" y="469" type="line" smooth="yes"/>
      <point x="-139" y="469"/>
      <point x="-108" y="478"/>
      <point x="-85" y="499" type="curve" smooth="yes"/>
      <point x="-65" y="517"/>
      <point x="-56" y="541"/>
    </contour>
  </outline>
</glyph>
<glyph name="eevowelsigntelu" format="2">
  <unicode hex="0C47"/>
  <outline>
    <contour>
      <point x="-56" y="569" type="curve" smooth="yes"/>
      <point x="-56" y="600"/>
      <point x="-67" y="626"/>
      <point x="-87" y="643" type="curve" smooth="yes"/>
      <point x="-111" y="663"/>
      <point x="-141" y="673"/>
      <point x="-206" y="673" type="curve" smooth="yes"/>
      <point x="-517" y="673" type="line"/>
      <point x="-517" y="648" type="line"/>
      <point x="-207" y="648" type="line" smooth="yes"/>
      <point x="-153" y="648"/>
      <point x="-126" y="642"/>
      <point x="-106" y="626" type="curve" smooth="yes"/>
      <point x="-90" y="613"/>
      <point x="-83" y="593"/>
      <point x="-83" y="569" type="curve" smooth="yes"/>
      <point x="-83" y="548"/>
      <point x="-89" y="528"/>
      <point x="-106" y="514" type="curve" smooth="yes"/>
      <point x="-126" y="498"/>
      <point x="-152" y="493"/>
      <point x="-209" y="493" type="curve" smooth="yes"/>
      <point x="-270" y="493" type="line"/>
      <point x="-270" y="469" type="line"/>
      <point x="-208" y="469" type="line" smooth="yes"/>
      <point x="-139" y="469"/>
      <point x="-108" y="478"/>
      <point x="-85" y="499" type="curve" smooth="yes"/>
      <point x="-65" y="517"/>
      <point x="-56" y="541"/>
    </contour>
    <contour>
      <point x="-137" y="818" type="curve" smooth="yes"/>
      <point x="-190" y="818"/>
      <point x="-249" y="789"/>
      <point x="-249" y="715" type="curve" smooth="yes"/>
      <point x="-249" y="693"/>
      <point x="-242" y="671"/>
      <point x="-227" y="651" type="curve"/>
      <point x="-195" y="651" type="line"/>
      <point x="-212" y="669"/>
      <point x="-222" y="690"/>
      <point x="-222" y="714" type="curve" smooth="yes"/>
      <point x="-222" y="772"/>
      <point x="-178" y="792"/>
      <point x="-137" y="792" type="curve" smooth="yes"/>
      <point x="-83" y="792"/>
      <point x="-52" y="757"/>
      <point x="-36" y="715" type="curve"/>
      <point x="-9" y="722" type="line"/>
      <point x="-29" y="772"/>
      <point x="-64" y="818"/>
    </contour>
  </outline>
</glyph>
<glyph name="ovowelsigntelu" format="2">
  <advance width="198"/>
  <unicode hex="0C4A"/>
  <outline>
    <contour>
      <point x="75" y="460" type="curve" smooth="yes"/>
      <point x="147" y="460"/>
      <point x="183" y="501"/>
      <point x="183" y="568" type="curve" smooth="yes"/>
      <point x="183" y="605"/>
      <point x="170" y="636"/>
      <point x="145" y="657" type="curve" smooth="yes"/>
      <point x="119" y="679"/>
      <point x="84" y="690"/>
      <point x="27" y="690" type="curve" smooth="yes"/>
      <point x="-44" y="690" type="line" smooth="yes"/>
      <point x="-126" y="690"/>
      <point x="-173" y="653"/>
      <point x="-191" y="572" type="curve"/>
      <point x="-184" y="572" type="line"/>
      <point x="-201" y="661"/>
      <point x="-263" y="690"/>
      <point x="-320" y="690" type="curve" smooth="yes"/>
      <point x="-326" y="690" type="line" smooth="yes"/>
      <point x="-397" y="690"/>
      <point x="-451" y="648"/>
      <point x="-451" y="580" type="curve" smooth="yes"/>
      <point x="-451" y="496"/>
      <point x="-386" y="469"/>
      <point x="-311" y="469" type="curve" smooth="yes"/>
      <point x="-276" y="469" type="line"/>
      <point x="-276" y="493" type="line"/>
      <point x="-316" y="493" type="line" smooth="yes"/>
      <point x="-403" y="493"/>
      <point x="-424" y="534"/>
      <point x="-424" y="579" type="curve" smooth="yes"/>
      <point x="-424" y="622"/>
      <point x="-399" y="665"/>
      <point x="-326" y="665" type="curve" smooth="yes"/>
      <point x="-316" y="665" type="line" smooth="yes"/>
      <point x="-256" y="665"/>
      <point x="-209" y="623"/>
      <point x="-199" y="542" type="curve"/>
      <point x="-175" y="542" type="line"/>
      <point x="-161" y="620"/>
      <point x="-129" y="665"/>
      <point x="-45" y="665" type="curve" smooth="yes"/>
      <point x="37" y="665" type="line" smooth="yes"/>
      <point x="113" y="665"/>
      <point x="157" y="632"/>
      <point x="157" y="568" type="curve" smooth="yes"/>
      <point x="157" y="518"/>
      <point x="134" y="485"/>
      <point x="74" y="485" type="curve" smooth="yes"/>
      <point x="32" y="485"/>
      <point x="-11" y="510"/>
      <point x="-11" y="569" type="curve" smooth="yes"/>
      <point x="-11" y="603"/>
      <point x="5" y="637"/>
      <point x="41" y="672" type="curve"/>
      <point x="17" y="678" type="line"/>
      <point x="-16" y="649"/>
      <point x="-37" y="608"/>
      <point x="-37" y="569" type="curve" smooth="yes"/>
      <point x="-37" y="501"/>
      <point x="12" y="460"/>
    </contour>
  </outline>
</glyph>
<glyph name="oovowelsigntelu" format="2">
  <advance width="198"/>
  <unicode hex="0C4B"/>
  <outline>
    <contour>
      <point x="75" y="460" type="curve" smooth="yes"/>
      <point x="147" y="460"/>
      <point x="187" y="501"/>
      <point x="187" y="568" type="curve" smooth="yes"/>
      <point x="187" y="605"/>
      <point x="170" y="636"/>
      <point x="145" y="657" type="curve" smooth="yes"/>
      <point x="119" y="679"/>
      <point x="84" y="690"/>
      <point x="27" y="690" type="curve" smooth="yes"/>
      <point x="-44" y="690" type="line" smooth="yes"/>
      <point x="-126" y="690"/>
      <point x="-173" y="653"/>
      <point x="-191" y="572" type="curve"/>
      <point x="-184" y="572" type="line"/>
      <point x="-201" y="661"/>
      <point x="-263" y="690"/>
      <point x="-320" y="690" type="curve" smooth="yes"/>
      <point x="-326" y="690" type="line" smooth="yes"/>
      <point x="-397" y="690"/>
      <point x="-451" y="648"/>
      <point x="-451" y="580" type="curve" smooth="yes"/>
      <point x="-451" y="496"/>
      <point x="-386" y="469"/>
      <point x="-311" y="469" type="curve" smooth="yes"/>
      <point x="-276" y="469" type="line"/>
      <point x="-276" y="493" type="line"/>
      <point x="-316" y="493" type="line" smooth="yes"/>
      <point x="-403" y="493"/>
      <point x="-424" y="534"/>
      <point x="-424" y="579" type="curve" smooth="yes"/>
      <point x="-424" y="622"/>
      <point x="-399" y="665"/>
      <point x="-326" y="665" type="curve" smooth="yes"/>
      <point x="-316" y="665" type="line" smooth="yes"/>
      <point x="-256" y="665"/>
      <point x="-209" y="623"/>
      <point x="-199" y="542" type="curve"/>
      <point x="-175" y="542" type="line"/>
      <point x="-161" y="620"/>
      <point x="-129" y="665"/>
      <point x="-45" y="665" type="curve" smooth="yes"/>
      <point x="37" y="665" type="line" smooth="yes"/>
      <point x="113" y="665"/>
      <point x="157" y="632"/>
      <point x="157" y="568" type="curve" smooth="yes"/>
      <point x="157" y="518"/>
      <point x="134" y="485"/>
      <point x="74" y="485" type="curve" smooth="yes"/>
      <point x="32" y="485"/>
      <point x="-11" y="510"/>
      <point x="-11" y="569" type="curve" smooth="yes"/>
      <point x="-11" y="603"/>
      <point x="5" y="637"/>
      <point x="41" y="672" type="curve"/>
      <point x="17" y="678" type="line"/>
      <point x="-16" y="649"/>
      <point x="-37" y="608"/>
      <point x="-37" y="569" type="curve" smooth="yes"/>
      <point x="-37" y="501"/>
      <point x="12" y="460"/>
    </contour>
    <contour>
      <point x="86" y="836" type="curve" smooth="yes"/>
      <point x="33" y="836"/>
      <point x="-26" y="807"/>
      <point x="-26" y="733" type="curve" smooth="yes"/>
      <point x="-26" y="712"/>
      <point x="-20" y="692"/>
      <point x="-6" y="672" type="curve"/>
      <point x="28" y="669" type="line"/>
      <point x="11" y="687"/>
      <point x="1" y="708"/>
      <point x="1" y="732" type="curve" smooth="yes"/>
      <point x="1" y="790"/>
      <point x="45" y="810"/>
      <point x="86" y="810" type="curve" smooth="yes"/>
      <point x="140" y="810"/>
      <point x="171" y="775"/>
      <point x="187" y="733" type="curve"/>
      <point x="214" y="740" type="line"/>
      <point x="194" y="790"/>
      <point x="159" y="836"/>
    </contour>
  </outline>
</glyph>
<glyph name="auvowelsigntelu" format="2">
  <advance width="216"/>
  <unicode hex="0C4C"/>
  <outline>
    <contour>
      <point x="90" y="443" type="curve" smooth="yes"/>
      <point x="162" y="443"/>
      <point x="198" y="484"/>
      <point x="198" y="551" type="curve" smooth="yes"/>
      <point x="198" y="588"/>
      <point x="185" y="619"/>
      <point x="160" y="640" type="curve" smooth="yes"/>
      <point x="134" y="662"/>
      <point x="99" y="673"/>
      <point x="42" y="673" type="curve" smooth="yes"/>
      <point x="-453" y="673" type="line"/>
      <point x="-453" y="648" type="line"/>
      <point x="-264" y="648" type="line" smooth="yes"/>
      <point x="-210" y="648"/>
      <point x="-183" y="642"/>
      <point x="-163" y="626" type="curve" smooth="yes"/>
      <point x="-147" y="613"/>
      <point x="-140" y="593"/>
      <point x="-140" y="569" type="curve" smooth="yes"/>
      <point x="-140" y="548"/>
      <point x="-146" y="528"/>
      <point x="-163" y="514" type="curve" smooth="yes"/>
      <point x="-183" y="498"/>
      <point x="-209" y="493"/>
      <point x="-266" y="493" type="curve" smooth="yes"/>
      <point x="-343" y="493" type="line"/>
      <point x="-343" y="469" type="line"/>
      <point x="-265" y="469" type="line" smooth="yes"/>
      <point x="-196" y="469"/>
      <point x="-165" y="478"/>
      <point x="-142" y="499" type="curve" smooth="yes"/>
      <point x="-122" y="517"/>
      <point x="-113" y="541"/>
      <point x="-113" y="569" type="curve" smooth="yes"/>
      <point x="-113" y="603"/>
      <point x="-128" y="635"/>
      <point x="-163" y="648" type="curve"/>
      <point x="52" y="648" type="line" smooth="yes"/>
      <point x="128" y="648"/>
      <point x="172" y="615"/>
      <point x="172" y="551" type="curve" smooth="yes"/>
      <point x="172" y="501"/>
      <point x="149" y="468"/>
      <point x="89" y="468" type="curve" smooth="yes"/>
      <point x="47" y="468"/>
      <point x="4" y="493"/>
      <point x="4" y="552" type="curve" smooth="yes"/>
      <point x="4" y="586"/>
      <point x="20" y="620"/>
      <point x="56" y="655" type="curve"/>
      <point x="32" y="661" type="line"/>
      <point x="-1" y="632"/>
      <point x="-22" y="591"/>
      <point x="-22" y="552" type="curve" smooth="yes"/>
      <point x="-22" y="484"/>
      <point x="27" y="443"/>
    </contour>
  </outline>
</glyph>
<glyph name="viramatelu" format="2">
  <unicode hex="0C4D"/>
  <outline>
    <contour>
      <point x="-323" y="563" type="curve" smooth="yes"/>
      <point x="-323" y="501"/>
      <point x="-283" y="469"/>
      <point x="-187" y="469" type="curve" smooth="yes"/>
      <point x="-174" y="469" type="line"/>
      <point x="-174" y="493" type="line"/>
      <point x="-186" y="493" type="line" smooth="yes"/>
      <point x="-239" y="493"/>
      <point x="-263" y="500"/>
      <point x="-279" y="515" type="curve" smooth="yes"/>
      <point x="-290" y="526"/>
      <point x="-296" y="541"/>
      <point x="-296" y="562" type="curve" smooth="yes"/>
      <point x="-296" y="585"/>
      <point x="-288" y="601"/>
      <point x="-275" y="612" type="curve" smooth="yes"/>
      <point x="-257" y="627"/>
      <point x="-232" y="633"/>
      <point x="-186" y="633" type="curve" smooth="yes"/>
      <point x="-71" y="633" type="line"/>
      <point x="-71" y="658" type="line"/>
      <point x="-194" y="658" type="line" smooth="yes"/>
      <point x="-245" y="658"/>
      <point x="-272" y="666"/>
      <point x="-287" y="681" type="curve" smooth="yes"/>
      <point x="-299" y="693"/>
      <point x="-305" y="709"/>
      <point x="-305" y="730" type="curve" smooth="yes"/>
      <point x="-305" y="752"/>
      <point x="-298" y="767"/>
      <point x="-284" y="780" type="curve" smooth="yes"/>
      <point x="-266" y="796"/>
      <point x="-239" y="802"/>
      <point x="-191" y="802" type="curve" smooth="yes"/>
      <point x="96" y="802" type="line"/>
      <point x="96" y="827" type="line"/>
      <point x="-183" y="827" type="line" smooth="yes"/>
      <point x="-239" y="827"/>
      <point x="-279" y="820"/>
      <point x="-305" y="796" type="curve" smooth="yes"/>
      <point x="-322" y="780"/>
      <point x="-332" y="760"/>
      <point x="-332" y="731" type="curve" smooth="yes"/>
      <point x="-332" y="688"/>
      <point x="-306" y="648"/>
      <point x="-237" y="638" type="curve"/>
      <point x="-238" y="650" type="line"/>
      <point x="-295" y="639"/>
      <point x="-323" y="605"/>
    </contour>
  </outline>
</glyph>
<glyph name="lengthmarktelu" format="2">
  <unicode hex="0C55"/>
  <outline>
    <contour>
      <point x="-162" y="671" type="curve" smooth="yes"/>
      <point x="-215" y="671"/>
      <point x="-274" y="642"/>
      <point x="-274" y="568" type="curve" smooth="yes"/>
      <point x="-274" y="544"/>
      <point x="-265" y="520"/>
      <point x="-249" y="501" type="curve"/>
      <point x="-220" y="504" type="line"/>
      <point x="-237" y="522"/>
      <point x="-247" y="543"/>
      <point x="-247" y="567" type="curve" smooth="yes"/>
      <point x="-247" y="625"/>
      <point x="-203" y="645"/>
      <point x="-162" y="645" type="curve" smooth="yes"/>
      <point x="-108" y="645"/>
      <point x="-77" y="610"/>
      <point x="-61" y="568" type="curve"/>
      <point x="-34" y="575" type="line"/>
      <point x="-54" y="625"/>
      <point x="-89" y="671"/>
    </contour>
  </outline>
</glyph>
<glyph name="ailengthmarktelu" format="2">
  <unicode hex="0C56"/>
  <outline>
    <contour>
      <point x="-445" y="-82" type="curve" smooth="yes"/>
      <point x="-506" y="-82"/>
      <point x="-548" y="-120"/>
      <point x="-548" y="-181" type="curve" smooth="yes"/>
      <point x="-548" y="-216"/>
      <point x="-534" y="-244"/>
      <point x="-509" y="-264" type="curve" smooth="yes"/>
      <point x="-484" y="-284"/>
      <point x="-446" y="-294"/>
      <point x="-385" y="-294" type="curve" smooth="yes"/>
      <point x="-33" y="-294" type="line"/>
      <point x="-33" y="-269" type="line"/>
      <point x="-402" y="-269" type="line" smooth="yes"/>
      <point x="-478" y="-269"/>
      <point x="-522" y="-239"/>
      <point x="-522" y="-182" type="curve" smooth="yes"/>
      <point x="-522" y="-136"/>
      <point x="-494" y="-107"/>
      <point x="-446" y="-107" type="curve" smooth="yes"/>
      <point x="-404" y="-107"/>
      <point x="-369" y="-130"/>
      <point x="-369" y="-183" type="curve" smooth="yes"/>
      <point x="-369" y="-214"/>
      <point x="-381" y="-245"/>
      <point x="-418" y="-276" type="curve"/>
      <point x="-394" y="-282" type="line"/>
      <point x="-360" y="-255"/>
      <point x="-343" y="-218"/>
      <point x="-343" y="-182" type="curve" smooth="yes"/>
      <point x="-343" y="-118"/>
      <point x="-389" y="-82"/>
    </contour>
  </outline>
</glyph>
<glyph name="tsatelu" format="2">
  <advance width="701"/>
  <unicode hex="0C58"/>
  <outline>
    <contour>
      <point x="499" y="-12" type="curve" smooth="yes"/>
      <point x="604" y="-12"/>
      <point x="659" y="54"/>
      <point x="659" y="179" type="curve" smooth="yes"/>
      <point x="659" y="329"/>
      <point x="557" y="450"/>
      <point x="368" y="471" type="curve"/>
      <point x="357" y="449" type="line"/>
      <point x="526" y="431"/>
      <point x="632" y="328"/>
      <point x="632" y="179" type="curve" smooth="yes"/>
      <point x="632" y="77"/>
      <point x="596" y="14"/>
      <point x="499" y="14" type="curve" smooth="yes"/>
      <point x="425" y="14"/>
      <point x="373" y="61"/>
      <point x="360" y="173" type="curve"/>
      <point x="336" y="173" type="line"/>
      <point x="324" y="72"/>
      <point x="276" y="14"/>
      <point x="196" y="14" type="curve" smooth="yes"/>
      <point x="121" y="14"/>
      <point x="90" y="68"/>
      <point x="90" y="132" type="curve" smooth="yes"/>
      <point x="90" y="202"/>
      <point x="131" y="256"/>
      <point x="225" y="286" type="curve"/>
      <point x="225" y="311" type="line"/>
      <point x="25" y="311" type="line"/>
      <point x="25" y="286" type="line"/>
      <point x="201" y="286" type="line"/>
      <point x="191" y="294" type="line"/>
      <point x="106" y="267"/>
      <point x="63" y="204"/>
      <point x="63" y="132" type="curve" smooth="yes"/>
      <point x="63" y="55"/>
      <point x="105" y="-12"/>
      <point x="197" y="-12" type="curve" smooth="yes"/>
      <point x="273" y="-12"/>
      <point x="333" y="29"/>
      <point x="352" y="143" type="curve"/>
      <point x="343" y="143" type="line"/>
      <point x="359" y="38"/>
      <point x="414" y="-12"/>
    </contour>
    <contour>
      <point x="363" y="448" type="curve" smooth="yes"/>
      <point x="404" y="448"/>
      <point x="435" y="465"/>
      <point x="486" y="531" type="curve" smooth="yes"/>
      <point x="509" y="561" type="line" smooth="yes"/>
      <point x="573" y="644"/>
      <point x="598" y="666"/>
      <point x="662" y="670" type="curve"/>
      <point x="660" y="696" type="line"/>
      <point x="589" y="689"/>
      <point x="557" y="665"/>
      <point x="491" y="579" type="curve" smooth="yes"/>
      <point x="462" y="542" type="line" smooth="yes"/>
      <point x="416" y="484"/>
      <point x="397" y="472"/>
      <point x="364" y="472" type="curve" smooth="yes"/>
      <point x="333" y="472"/>
      <point x="309" y="490"/>
      <point x="283" y="569" type="curve"/>
      <point x="258" y="560" type="line"/>
      <point x="288" y="468"/>
      <point x="329" y="448"/>
    </contour>
    <contour>
      <point x="458" y="868" type="curve" smooth="yes"/>
      <point x="402" y="868"/>
      <point x="356" y="832"/>
      <point x="356" y="768" type="curve" smooth="yes"/>
      <point x="356" y="732"/>
      <point x="373" y="695"/>
      <point x="407" y="668" type="curve"/>
      <point x="431" y="674" type="line"/>
      <point x="394" y="705"/>
      <point x="382" y="736"/>
      <point x="382" y="767" type="curve" smooth="yes"/>
      <point x="382" y="820"/>
      <point x="417" y="843"/>
      <point x="459" y="843" type="curve" smooth="yes"/>
      <point x="507" y="843"/>
      <point x="535" y="814"/>
      <point x="535" y="768" type="curve" smooth="yes"/>
      <point x="535" y="711"/>
      <point x="491" y="681"/>
      <point x="415" y="681" type="curve" smooth="yes"/>
      <point x="76" y="681" type="line"/>
      <point x="76" y="656" type="line"/>
      <point x="398" y="656" type="line" smooth="yes"/>
      <point x="459" y="656"/>
      <point x="497" y="666"/>
      <point x="522" y="686" type="curve" smooth="yes"/>
      <point x="547" y="706"/>
      <point x="561" y="734"/>
      <point x="561" y="769" type="curve" smooth="yes"/>
      <point x="561" y="830"/>
      <point x="519" y="868"/>
    </contour>
  </outline>
</glyph>
<glyph name="rrratelu" format="2">
  <advance width="663"/>
  <unicode hex="0C5A"/>
  <outline>
    <contour>
      <point x="478" y="-12" type="curve" smooth="yes"/>
      <point x="563" y="-12"/>
      <point x="621" y="51"/>
      <point x="621" y="198" type="curve" smooth="yes"/>
      <point x="621" y="365"/>
      <point x="520" y="493"/>
      <point x="334" y="493" type="curve" smooth="yes"/>
      <point x="155" y="493"/>
      <point x="42" y="376"/>
      <point x="42" y="191" type="curve" smooth="yes"/>
      <point x="42" y="51"/>
      <point x="99" y="-12"/>
      <point x="185" y="-12" type="curve" smooth="yes"/>
      <point x="245" y="-12"/>
      <point x="318" y="19"/>
      <point x="336" y="143" type="curve"/>
      <point x="325" y="143" type="line"/>
      <point x="341" y="38"/>
      <point x="398" y="-12"/>
    </contour>
    <contour>
      <point x="477" y="14" type="curve" smooth="yes"/>
      <point x="407" y="14"/>
      <point x="356" y="61"/>
      <point x="343" y="173" type="curve"/>
      <point x="319" y="173" type="line"/>
      <point x="307" y="74"/>
      <point x="265" y="14"/>
      <point x="186" y="14" type="curve" smooth="yes"/>
      <point x="110" y="14"/>
      <point x="69" y="69"/>
      <point x="69" y="192" type="curve" smooth="yes"/>
      <point x="69" y="363"/>
      <point x="175" y="467"/>
      <point x="323" y="467" type="curve" smooth="yes"/>
      <point x="345" y="467" type="line" smooth="yes"/>
      <point x="504" y="467"/>
      <point x="594" y="348"/>
      <point x="594" y="197" type="curve" smooth="yes"/>
      <point x="594" y="69"/>
      <point x="553" y="14"/>
    </contour>
    <contour>
      <point x="64" y="267" type="line"/>
      <point x="595" y="267" type="line"/>
      <point x="595" y="292" type="line"/>
      <point x="63" y="292" type="line"/>
    </contour>
  </outline>
</glyph>
<glyph name="llvocalictelu" format="2">
  <advance width="1108"/>
  <unicode hex="0C61"/>
  <outline>
    <contour>
      <point x="533" y="-61" type="curve" smooth="yes"/>
      <point x="704" y="-61"/>
      <point x="783" y="73"/>
      <point x="783" y="227" type="curve" smooth="yes"/>
      <point x="783" y="347"/>
      <point x="736" y="428"/>
      <point x="642" y="488" type="curve"/>
      <point x="625" y="472" type="line"/>
      <point x="715" y="408"/>
      <point x="756" y="340"/>
      <point x="756" y="227" type="curve" smooth="yes"/>
      <point x="756" y="96"/>
      <point x="691" y="-35"/>
      <point x="533" y="-35" type="curve" smooth="yes"/>
      <point x="438" y="-35"/>
      <point x="404" y="22"/>
      <point x="404" y="77" type="curve" smooth="yes"/>
      <point x="404" y="134"/>
      <point x="426" y="166"/>
      <point x="481" y="233" type="curve" smooth="yes"/>
      <point x="526" y="288"/>
      <point x="548" y="327"/>
      <point x="548" y="374" type="curve" smooth="yes"/>
      <point x="548" y="439"/>
      <point x="507" y="493"/>
      <point x="426" y="493" type="curve" smooth="yes"/>
      <point x="344" y="493"/>
      <point x="291" y="433"/>
      <point x="276" y="340" type="curve"/>
      <point x="286" y="343" type="line"/>
      <point x="275" y="442"/>
      <point x="222" y="493"/>
      <point x="149" y="493" type="curve" smooth="yes"/>
      <point x="84" y="493"/>
      <point x="36" y="450"/>
      <point x="36" y="380" type="curve" smooth="yes"/>
      <point x="36" y="343"/>
      <point x="48" y="310"/>
      <point x="65" y="278" type="curve"/>
      <point x="90" y="287" type="line"/>
      <point x="73" y="317"/>
      <point x="63" y="347"/>
      <point x="63" y="381" type="curve" smooth="yes"/>
      <point x="63" y="434"/>
      <point x="95" y="467"/>
      <point x="149" y="467" type="curve" smooth="yes"/>
      <point x="211" y="467"/>
      <point x="260" y="421"/>
      <point x="269" y="315" type="curve"/>
      <point x="293" y="315" type="line"/>
      <point x="304" y="407"/>
      <point x="349" y="467"/>
      <point x="426" y="467" type="curve" smooth="yes"/>
      <point x="493" y="467"/>
      <point x="521" y="425"/>
      <point x="521" y="373" type="curve" smooth="yes"/>
      <point x="521" y="337"/>
      <point x="501" y="298"/>
      <point x="460" y="249" type="curve" smooth="yes"/>
      <point x="400" y="177"/>
      <point x="377" y="134"/>
      <point x="377" y="78" type="curve" smooth="yes"/>
      <point x="377" y="4"/>
      <point x="427" y="-61"/>
    </contour>
    <contour>
      <point x="980" y="263" type="curve" smooth="yes"/>
      <point x="1052" y="263"/>
      <point x="1088" y="304"/>
      <point x="1088" y="371" type="curve" smooth="yes"/>
      <point x="1088" y="408"/>
      <point x="1075" y="439"/>
      <point x="1050" y="460" type="curve" smooth="yes"/>
      <point x="1024" y="482"/>
      <point x="989" y="493"/>
      <point x="932" y="493" type="curve" smooth="yes"/>
      <point x="635" y="493" type="line"/>
      <point x="625" y="472" type="line"/>
      <point x="647" y="468" type="line"/>
      <point x="942" y="468" type="line" smooth="yes"/>
      <point x="1018" y="468"/>
      <point x="1062" y="435"/>
      <point x="1062" y="371" type="curve" smooth="yes"/>
      <point x="1062" y="321"/>
      <point x="1039" y="288"/>
      <point x="979" y="288" type="curve" smooth="yes"/>
      <point x="937" y="288"/>
      <point x="894" y="313"/>
      <point x="894" y="372" type="curve" smooth="yes"/>
      <point x="894" y="406"/>
      <point x="910" y="440"/>
      <point x="946" y="475" type="curve"/>
      <point x="922" y="481" type="line"/>
      <point x="889" y="452"/>
      <point x="868" y="411"/>
      <point x="868" y="372" type="curve" smooth="yes"/>
      <point x="868" y="304"/>
      <point x="917" y="263"/>
    </contour>
  </outline>
</glyph>
<glyph name="lvocalicvowelsigntelu" format="2">
  <unicode hex="0C62"/>
  <outline>
    <contour>
      <point x="-173" y="-444" type="curve" smooth="yes"/>
      <point x="-57" y="-444"/>
      <point x="5" y="-349"/>
      <point x="5" y="-242" type="curve" smooth="yes"/>
      <point x="5" y="-174"/>
      <point x="-15" y="-120"/>
      <point x="-85" y="-66" type="curve"/>
      <point x="-103" y="-85" type="line"/>
      <point x="-41" y="-129"/>
      <point x="-22" y="-179"/>
      <point x="-22" y="-242" type="curve" smooth="yes"/>
      <point x="-22" y="-329"/>
      <point x="-68" y="-419"/>
      <point x="-174" y="-419" type="curve" smooth="yes"/>
      <point x="-222" y="-419"/>
      <point x="-259" y="-394"/>
      <point x="-259" y="-340" type="curve" smooth="yes"/>
      <point x="-259" y="-308"/>
      <point x="-245" y="-283"/>
      <point x="-211" y="-241" type="curve" smooth="yes"/>
      <point x="-182" y="-206"/>
      <point x="-164" y="-178"/>
      <point x="-164" y="-141" type="curve" smooth="yes"/>
      <point x="-164" y="-102"/>
      <point x="-193" y="-66"/>
      <point x="-246" y="-66" type="curve" smooth="yes"/>
      <point x="-306" y="-66"/>
      <point x="-336" y="-112"/>
      <point x="-349" y="-162" type="curve"/>
      <point x="-344" y="-162" type="line"/>
      <point x="-359" y="-100"/>
      <point x="-390" y="-66"/>
      <point x="-444" y="-66" type="curve" smooth="yes"/>
      <point x="-480" y="-66"/>
      <point x="-522" y="-89"/>
      <point x="-522" y="-148" type="curve" smooth="yes"/>
      <point x="-522" y="-169"/>
      <point x="-514" y="-199"/>
      <point x="-500" y="-224" type="curve"/>
      <point x="-475" y="-216" type="line"/>
      <point x="-488" y="-194"/>
      <point x="-496" y="-175"/>
      <point x="-496" y="-148" type="curve" smooth="yes"/>
      <point x="-496" y="-116"/>
      <point x="-479" y="-91"/>
      <point x="-442" y="-91" type="curve" smooth="yes"/>
      <point x="-397" y="-91"/>
      <point x="-366" y="-126"/>
      <point x="-359" y="-194" type="curve"/>
      <point x="-335" y="-194" type="line"/>
      <point x="-322" y="-126"/>
      <point x="-296" y="-91"/>
      <point x="-247" y="-91" type="curve" smooth="yes"/>
      <point x="-209" y="-91"/>
      <point x="-190" y="-116"/>
      <point x="-190" y="-142" type="curve" smooth="yes"/>
      <point x="-190" y="-169"/>
      <point x="-205" y="-196"/>
      <point x="-233" y="-228" type="curve" smooth="yes"/>
      <point x="-270" y="-270"/>
      <point x="-285" y="-302"/>
      <point x="-285" y="-340" type="curve" smooth="yes"/>
      <point x="-285" y="-403"/>
      <point x="-241" y="-444"/>
    </contour>
  </outline>
</glyph>
<glyph name="llvocalicvowelsigntelu" format="2">
  <advance width="273"/>
  <unicode hex="0C63"/>
  <outline>
    <contour>
      <point x="-173" y="-444" type="curve" smooth="yes"/>
      <point x="-57" y="-444"/>
      <point x="5" y="-349"/>
      <point x="5" y="-242" type="curve" smooth="yes"/>
      <point x="5" y="-174"/>
      <point x="-15" y="-120"/>
      <point x="-88" y="-66" type="curve"/>
      <point x="-103" y="-85" type="line"/>
      <point x="-41" y="-129"/>
      <point x="-22" y="-179"/>
      <point x="-22" y="-242" type="curve" smooth="yes"/>
      <point x="-22" y="-329"/>
      <point x="-68" y="-419"/>
      <point x="-174" y="-419" type="curve" smooth="yes"/>
      <point x="-222" y="-419"/>
      <point x="-259" y="-394"/>
      <point x="-259" y="-340" type="curve" smooth="yes"/>
      <point x="-259" y="-308"/>
      <point x="-245" y="-283"/>
      <point x="-211" y="-241" type="curve" smooth="yes"/>
      <point x="-182" y="-206"/>
      <point x="-164" y="-178"/>
      <point x="-164" y="-141" type="curve" smooth="yes"/>
      <point x="-164" y="-102"/>
      <point x="-193" y="-66"/>
      <point x="-246" y="-66" type="curve" smooth="yes"/>
      <point x="-306" y="-66"/>
      <point x="-336" y="-112"/>
      <point x="-349" y="-162" type="curve"/>
      <point x="-344" y="-162" type="line"/>
      <point x="-359" y="-100"/>
      <point x="-390" y="-66"/>
      <point x="-444" y="-66" type="curve" smooth="yes"/>
      <point x="-480" y="-66"/>
      <point x="-522" y="-89"/>
      <point x="-522" y="-148" type="curve" smooth="yes"/>
      <point x="-522" y="-169"/>
      <point x="-514" y="-199"/>
      <point x="-500" y="-224" type="curve"/>
      <point x="-475" y="-216" type="line"/>
      <point x="-488" y="-194"/>
      <point x="-496" y="-175"/>
      <point x="-496" y="-148" type="curve" smooth="yes"/>
      <point x="-496" y="-116"/>
      <point x="-479" y="-91"/>
      <point x="-442" y="-91" type="curve" smooth="yes"/>
      <point x="-397" y="-91"/>
      <point x="-366" y="-126"/>
      <point x="-359" y="-194" type="curve"/>
      <point x="-335" y="-194" type="line"/>
      <point x="-322" y="-126"/>
      <point x="-296" y="-91"/>
      <point x="-247" y="-91" type="curve" smooth="yes"/>
      <point x="-209" y="-91"/>
      <point x="-190" y="-116"/>
      <point x="-190" y="-142" type="curve" smooth="yes"/>
      <point x="-190" y="-169"/>
      <point x="-205" y="-196"/>
      <point x="-233" y="-228" type="curve" smooth="yes"/>
      <point x="-270" y="-270"/>
      <point x="-285" y="-302"/>
      <point x="-285" y="-340" type="curve" smooth="yes"/>
      <point x="-285" y="-403"/>
      <point x="-241" y="-444"/>
    </contour>
    <contour>
      <point x="172" y="-269" type="curve" smooth="yes"/>
      <point x="238" y="-269"/>
      <point x="273" y="-229"/>
      <point x="273" y="-172" type="curve" smooth="yes"/>
      <point x="273" y="-137"/>
      <point x="260" y="-109"/>
      <point x="234" y="-91" type="curve" smooth="yes"/>
      <point x="214" y="-77"/>
      <point x="184" y="-66"/>
      <point x="129" y="-66" type="curve" smooth="yes"/>
      <point x="-88" y="-66" type="line"/>
      <point x="-87" y="-91" type="line"/>
      <point x="135" y="-91" type="line" smooth="yes"/>
      <point x="214" y="-91"/>
      <point x="247" y="-121"/>
      <point x="247" y="-172" type="curve" smooth="yes"/>
      <point x="247" y="-208"/>
      <point x="226" y="-244"/>
      <point x="172" y="-244" type="curve" smooth="yes"/>
      <point x="120" y="-244"/>
      <point x="95" y="-217"/>
      <point x="95" y="-168" type="curve" smooth="yes"/>
      <point x="95" y="-135"/>
      <point x="112" y="-103"/>
      <point x="151" y="-74" type="curve"/>
      <point x="116" y="-77" type="line"/>
      <point x="89" y="-98"/>
      <point x="69" y="-133"/>
      <point x="69" y="-168" type="curve" smooth="yes"/>
      <point x="69" y="-228"/>
      <point x="105" y="-269"/>
    </contour>
  </outline>
</glyph>
<glyph name="zerotelu" format="2">
  <advance width="649"/>
  <unicode hex="0C66"/>
  <outline>
    <contour>
      <point x="57" y="310" type="curve" smooth="yes"/>
      <point x="57" y="117"/>
      <point x="149" y="-12"/>
      <point x="324" y="-12" type="curve" smooth="yes"/>
      <point x="500" y="-12"/>
      <point x="592" y="117"/>
      <point x="592" y="310" type="curve" smooth="yes"/>
      <point x="592" y="504"/>
      <point x="500" y="633"/>
      <point x="324" y="633" type="curve" smooth="yes"/>
      <point x="149" y="633"/>
      <point x="57" y="504"/>
    </contour>
    <contour>
      <point x="84" y="310" type="curve" smooth="yes"/>
      <point x="84" y="489"/>
      <point x="165" y="607"/>
      <point x="324" y="607" type="curve" smooth="yes"/>
      <point x="484" y="607"/>
      <point x="565" y="489"/>
      <point x="565" y="310" type="curve" smooth="yes"/>
      <point x="565" y="132"/>
      <point x="484" y="14"/>
      <point x="324" y="14" type="curve" smooth="yes"/>
      <point x="165" y="14"/>
      <point x="84" y="132"/>
    </contour>
  </outline>
</glyph>
<glyph name="onetelu" format="2">
  <advance width="633"/>
  <unicode hex="0C67"/>
  <outline>
    <contour>
      <point x="316" y="633" type="curve" smooth="yes"/>
      <point x="154" y="633"/>
      <point x="57" y="517"/>
      <point x="57" y="322" type="curve" smooth="yes"/>
      <point x="57" y="196"/>
      <point x="102" y="86"/>
      <point x="151" y="-8" type="curve"/>
      <point x="176" y="3" type="line"/>
      <point x="129" y="93"/>
      <point x="84" y="194"/>
      <point x="84" y="322" type="curve" smooth="yes"/>
      <point x="84" y="502"/>
      <point x="169" y="607"/>
      <point x="316" y="607" type="curve" smooth="yes"/>
      <point x="482" y="607"/>
      <point x="549" y="480"/>
      <point x="549" y="322" type="curve" smooth="yes"/>
      <point x="549" y="191"/>
      <point x="500" y="85"/>
      <point x="457" y="3" type="curve"/>
      <point x="482" y="-8" type="line"/>
      <point x="524" y="75"/>
      <point x="576" y="185"/>
      <point x="576" y="323" type="curve" smooth="yes"/>
      <point x="576" y="504"/>
      <point x="493" y="633"/>
    </contour>
  </outline>
</glyph>
<glyph name="twotelu" format="2">
  <advance width="751"/>
  <unicode hex="0C68"/>
  <outline>
    <contour>
      <point x="451" y="633" type="curve" smooth="yes"/>
      <point x="355" y="633"/>
      <point x="302" y="583"/>
      <point x="302" y="510" type="curve" smooth="yes"/>
      <point x="302" y="440"/>
      <point x="343" y="398"/>
      <point x="415" y="398" type="curve" smooth="yes"/>
      <point x="485" y="398"/>
      <point x="529" y="442"/>
      <point x="529" y="510" type="curve" smooth="yes"/>
      <point x="529" y="562"/>
      <point x="501" y="596"/>
      <point x="479" y="614" type="curve"/>
      <point x="469" y="620" type="line"/>
      <point x="449" y="615" type="line"/>
      <point x="479" y="590"/>
      <point x="502" y="555"/>
      <point x="502" y="511" type="curve" smooth="yes"/>
      <point x="502" y="462"/>
      <point x="474" y="424"/>
      <point x="415" y="424" type="curve" smooth="yes"/>
      <point x="356" y="424"/>
      <point x="329" y="455"/>
      <point x="329" y="511" type="curve" smooth="yes"/>
      <point x="329" y="570"/>
      <point x="370" y="608"/>
      <point x="452" y="608" type="curve" smooth="yes"/>
      <point x="460" y="608"/>
      <point x="468" y="608"/>
      <point x="475" y="607" type="curve"/>
      <point x="593" y="593"/>
      <point x="667" y="470"/>
      <point x="667" y="310" type="curve" smooth="yes"/>
      <point x="667" y="227"/>
      <point x="651" y="166"/>
      <point x="620" y="122" type="curve" smooth="yes"/>
      <point x="570" y="52"/>
      <point x="490" y="26"/>
      <point x="344" y="26" type="curve" smooth="yes"/>
      <point x="15" y="26" type="line"/>
      <point x="15" y="0" type="line"/>
      <point x="343" y="0" type="line" smooth="yes"/>
      <point x="514" y="0"/>
      <point x="591" y="36"/>
      <point x="642" y="107" type="curve" smooth="yes"/>
      <point x="678" y="157"/>
      <point x="694" y="221"/>
      <point x="694" y="309" type="curve" smooth="yes"/>
      <point x="694" y="498"/>
      <point x="599" y="633"/>
    </contour>
  </outline>
</glyph>
<glyph name="threetelu" format="2">
  <advance width="516"/>
  <unicode hex="0C69"/>
  <outline>
    <contour>
      <point x="268" y="-12" type="curve" smooth="yes"/>
      <point x="402" y="-12"/>
      <point x="463" y="50"/>
      <point x="463" y="156" type="curve" smooth="yes"/>
      <point x="463" y="249"/>
      <point x="406" y="316"/>
      <point x="254" y="316" type="curve"/>
      <point x="254" y="306" type="line"/>
      <point x="406" y="306"/>
      <point x="463" y="372"/>
      <point x="463" y="467" type="curve" smooth="yes"/>
      <point x="463" y="571"/>
      <point x="402" y="633"/>
      <point x="268" y="633" type="curve" smooth="yes"/>
      <point x="164" y="633"/>
      <point x="75" y="590"/>
      <point x="14" y="544" type="curve"/>
      <point x="28" y="520" type="line"/>
      <point x="93" y="571"/>
      <point x="179" y="607"/>
      <point x="269" y="607" type="curve" smooth="yes"/>
      <point x="394" y="607"/>
      <point x="436" y="549"/>
      <point x="436" y="467" type="curve" smooth="yes"/>
      <point x="436" y="408"/>
      <point x="410" y="371"/>
      <point x="373" y="351" type="curve" smooth="yes"/>
      <point x="332" y="329"/>
      <point x="290" y="324"/>
      <point x="215" y="324" type="curve" smooth="yes"/>
      <point x="186" y="324" type="line"/>
      <point x="186" y="298" type="line"/>
      <point x="215" y="298" type="line" smooth="yes"/>
      <point x="290" y="298"/>
      <point x="332" y="293"/>
      <point x="373" y="271" type="curve" smooth="yes"/>
      <point x="410" y="251"/>
      <point x="436" y="214"/>
      <point x="436" y="155" type="curve" smooth="yes"/>
      <point x="436" y="72"/>
      <point x="394" y="14"/>
      <point x="269" y="14" type="curve" smooth="yes"/>
      <point x="179" y="14"/>
      <point x="93" y="50"/>
      <point x="28" y="101" type="curve"/>
      <point x="14" y="77" type="line"/>
      <point x="75" y="31"/>
      <point x="164" y="-12"/>
    </contour>
  </outline>
</glyph>
<glyph name="fourtelu" format="2">
  <advance width="639"/>
  <unicode hex="0C6A"/>
  <outline>
    <contour>
      <point x="317" y="-12" type="curve" smooth="yes"/>
      <point x="385" y="-12"/>
      <point x="453" y="11"/>
      <point x="453" y="94" type="curve" smooth="yes"/>
      <point x="453" y="149"/>
      <point x="415" y="193"/>
      <point x="336" y="202" type="curve"/>
      <point x="327" y="207" type="line"/>
      <point x="181" y="222"/>
      <point x="75" y="272"/>
      <point x="75" y="413" type="curve" smooth="yes"/>
      <point x="75" y="493"/>
      <point x="125" y="562"/>
      <point x="216" y="610" type="curve"/>
      <point x="203" y="633" type="line"/>
      <point x="102" y="580"/>
      <point x="48" y="503"/>
      <point x="48" y="414" type="curve" smooth="yes"/>
      <point x="48" y="285"/>
      <point x="135" y="200"/>
      <point x="294" y="190" type="curve"/>
      <point x="313" y="188" type="line"/>
      <point x="393" y="180"/>
      <point x="426" y="140"/>
      <point x="426" y="95" type="curve" smooth="yes"/>
      <point x="426" y="43"/>
      <point x="391" y="14"/>
      <point x="316" y="14" type="curve" smooth="yes"/>
      <point x="245" y="14"/>
      <point x="211" y="44"/>
      <point x="211" y="95" type="curve" smooth="yes"/>
      <point x="211" y="140"/>
      <point x="246" y="180"/>
      <point x="326" y="188" type="curve"/>
      <point x="345" y="190" type="line"/>
      <point x="504" y="200"/>
      <point x="591" y="285"/>
      <point x="591" y="414" type="curve" smooth="yes"/>
      <point x="591" y="503"/>
      <point x="537" y="580"/>
      <point x="436" y="633" type="curve"/>
      <point x="423" y="610" type="line"/>
      <point x="514" y="562"/>
      <point x="564" y="493"/>
      <point x="564" y="413" type="curve" smooth="yes"/>
      <point x="564" y="272"/>
      <point x="457" y="221"/>
      <point x="312" y="207" type="curve"/>
      <point x="307" y="206"/>
      <point x="308" y="204"/>
      <point x="303" y="202" type="curve"/>
      <point x="224" y="193"/>
      <point x="184" y="149"/>
      <point x="184" y="94" type="curve" smooth="yes"/>
      <point x="184" y="3"/>
      <point x="269" y="-12"/>
    </contour>
  </outline>
</glyph>
<glyph name="fivetelu" format="2">
  <advance width="668"/>
  <unicode hex="0C6B"/>
  <outline>
    <contour>
      <point x="240" y="-12" type="curve" smooth="yes"/>
      <point x="394" y="-12"/>
      <point x="474" y="107"/>
      <point x="474" y="310" type="curve" smooth="yes"/>
      <point x="474" y="505"/>
      <point x="401" y="633"/>
      <point x="240" y="633" type="curve" smooth="yes"/>
      <point x="161" y="633"/>
      <point x="84" y="603"/>
      <point x="20" y="561" type="curve"/>
      <point x="35" y="538" type="line"/>
      <point x="98" y="582"/>
      <point x="174" y="607"/>
      <point x="240" y="607" type="curve" smooth="yes"/>
      <point x="389" y="607"/>
      <point x="448" y="482"/>
      <point x="448" y="310" type="curve" smooth="yes"/>
      <point x="448" y="118"/>
      <point x="375" y="14"/>
      <point x="240" y="14" type="curve" smooth="yes"/>
      <point x="174" y="14"/>
      <point x="97" y="38"/>
      <point x="35" y="83" type="curve"/>
      <point x="20" y="61" type="line"/>
      <point x="84" y="18"/>
      <point x="158" y="-12"/>
    </contour>
    <contour>
      <point x="621" y="172" type="curve" smooth="yes"/>
      <point x="621" y="244"/>
      <point x="588" y="305"/>
      <point x="468" y="318" type="curve"/>
      <point x="466" y="303" type="line"/>
      <point x="588" y="316"/>
      <point x="621" y="377"/>
      <point x="621" y="451" type="curve" smooth="yes"/>
      <point x="621" y="524"/>
      <point x="580" y="581"/>
      <point x="517" y="632" type="curve"/>
      <point x="498" y="614" type="line"/>
      <point x="569" y="561"/>
      <point x="594" y="502"/>
      <point x="594" y="449" type="curve" smooth="yes"/>
      <point x="594" y="385"/>
      <point x="563" y="331"/>
      <point x="461" y="323" type="curve"/>
      <point x="461" y="298" type="line"/>
      <point x="563" y="290"/>
      <point x="594" y="237"/>
      <point x="594" y="172" type="curve" smooth="yes"/>
      <point x="594" y="119"/>
      <point x="569" y="60"/>
      <point x="498" y="7" type="curve"/>
      <point x="517" y="-11" type="line"/>
      <point x="580" y="40"/>
      <point x="621" y="97"/>
    </contour>
  </outline>
</glyph>
<glyph name="sixtelu" format="2">
  <advance width="669"/>
  <unicode hex="0C6C"/>
  <outline>
    <contour>
      <point x="53" y="161" type="curve" smooth="yes"/>
      <point x="53" y="107"/>
      <point x="75" y="67"/>
      <point x="108" y="42" type="curve" smooth="yes"/>
      <point x="153" y="8"/>
      <point x="208" y="0"/>
      <point x="314" y="0" type="curve" smooth="yes"/>
      <point x="654" y="0" type="line"/>
      <point x="654" y="26" type="line"/>
      <point x="314" y="26" type="line" smooth="yes"/>
      <point x="219" y="26"/>
      <point x="168" y="32"/>
      <point x="127" y="62" type="curve" smooth="yes"/>
      <point x="98" y="83"/>
      <point x="80" y="114"/>
      <point x="80" y="161" type="curve" smooth="yes"/>
      <point x="80" y="202"/>
      <point x="96" y="231"/>
      <point x="120" y="252" type="curve" smooth="yes"/>
      <point x="159" y="285"/>
      <point x="215" y="297"/>
      <point x="303" y="297" type="curve" smooth="yes"/>
      <point x="436" y="297" type="line"/>
      <point x="436" y="323" type="line"/>
      <point x="303" y="323" type="line" smooth="yes"/>
      <point x="211" y="323"/>
      <point x="167" y="333"/>
      <point x="130" y="362" type="curve" smooth="yes"/>
      <point x="103" y="383"/>
      <point x="87" y="415"/>
      <point x="87" y="460" type="curve" smooth="yes"/>
      <point x="87" y="507"/>
      <point x="104" y="539"/>
      <point x="132" y="560" type="curve" smooth="yes"/>
      <point x="167" y="586"/>
      <point x="214" y="594"/>
      <point x="277" y="594" type="curve" smooth="yes"/>
      <point x="282" y="594" type="line"/>
      <point x="282" y="620" type="line"/>
      <point x="278" y="620" type="line" smooth="yes"/>
      <point x="206" y="620"/>
      <point x="150" y="607"/>
      <point x="114" y="580" type="curve" smooth="yes"/>
      <point x="81" y="555"/>
      <point x="60" y="514"/>
      <point x="60" y="459" type="curve" smooth="yes"/>
      <point x="60" y="368"/>
      <point x="124" y="313"/>
      <point x="236" y="306" type="curve"/>
      <point x="229" y="314" type="line"/>
      <point x="116" y="304"/>
      <point x="53" y="252"/>
    </contour>
  </outline>
</glyph>
<glyph name="seventelu" format="2">
  <advance width="524"/>
  <unicode hex="0C6D"/>
  <outline>
    <contour>
      <point x="253" y="-12" type="curve" smooth="yes"/>
      <point x="417" y="-12"/>
      <point x="476" y="49"/>
      <point x="476" y="141" type="curve" smooth="yes"/>
      <point x="476" y="166"/>
      <point x="471" y="196"/>
      <point x="458" y="222" type="curve"/>
      <point x="433" y="214" type="line"/>
      <point x="442" y="198"/>
      <point x="449" y="169"/>
      <point x="449" y="142" type="curve" smooth="yes"/>
      <point x="449" y="57"/>
      <point x="392" y="14"/>
      <point x="253" y="14" type="curve" smooth="yes"/>
      <point x="117" y="14"/>
      <point x="75" y="78"/>
      <point x="75" y="145" type="curve" smooth="yes"/>
      <point x="75" y="230"/>
      <point x="126" y="266"/>
      <point x="273" y="314" type="curve" smooth="yes"/>
      <point x="397" y="354"/>
      <point x="459" y="394"/>
      <point x="459" y="488" type="curve" smooth="yes"/>
      <point x="459" y="564"/>
      <point x="408" y="633"/>
      <point x="267" y="633" type="curve" smooth="yes"/>
      <point x="117" y="633"/>
      <point x="58" y="568"/>
      <point x="58" y="493" type="curve" smooth="yes"/>
      <point x="58" y="460"/>
      <point x="66" y="434"/>
      <point x="78" y="409" type="curve"/>
      <point x="103" y="418" type="line"/>
      <point x="92" y="436"/>
      <point x="85" y="462"/>
      <point x="85" y="490" type="curve" smooth="yes"/>
      <point x="85" y="559"/>
      <point x="137" y="607"/>
      <point x="268" y="607" type="curve" smooth="yes"/>
      <point x="389" y="607"/>
      <point x="432" y="552"/>
      <point x="432" y="488" type="curve" smooth="yes"/>
      <point x="432" y="407"/>
      <point x="378" y="376"/>
      <point x="266" y="339" type="curve" smooth="yes"/>
      <point x="115" y="289"/>
      <point x="48" y="248"/>
      <point x="48" y="145" type="curve" smooth="yes"/>
      <point x="48" y="63"/>
      <point x="102" y="-12"/>
    </contour>
  </outline>
</glyph>
<glyph name="eighttelu" format="2">
  <advance width="782"/>
  <unicode hex="0C6E"/>
  <outline>
    <contour>
      <point x="307" y="-12" type="curve" smooth="yes"/>
      <point x="482" y="-12"/>
      <point x="556" y="110"/>
      <point x="556" y="293" type="curve" smooth="yes"/>
      <point x="556" y="437"/>
      <point x="487" y="540"/>
      <point x="396" y="594" type="curve"/>
      <point x="767" y="594" type="line"/>
      <point x="767" y="620" type="line"/>
      <point x="368" y="620" type="line"/>
      <point x="357" y="594" type="line"/>
      <point x="477" y="525"/>
      <point x="529" y="413"/>
      <point x="529" y="294" type="curve" smooth="yes"/>
      <point x="529" y="128"/>
      <point x="468" y="14"/>
      <point x="307" y="14" type="curve" smooth="yes"/>
      <point x="139" y="14"/>
      <point x="84" y="139"/>
      <point x="84" y="278" type="curve" smooth="yes"/>
      <point x="84" y="399"/>
      <point x="138" y="475"/>
      <point x="204" y="548" type="curve"/>
      <point x="184" y="565" type="line"/>
      <point x="106" y="484"/>
      <point x="57" y="393"/>
      <point x="57" y="278" type="curve" smooth="yes"/>
      <point x="57" y="112"/>
      <point x="131" y="-12"/>
    </contour>
  </outline>
</glyph>
<glyph name="ninetelu" format="2">
  <advance width="669"/>
  <unicode hex="0C6F"/>
  <outline>
    <contour>
      <point x="60" y="161" type="curve" smooth="yes"/>
      <point x="60" y="106"/>
      <point x="81" y="65"/>
      <point x="114" y="40" type="curve" smooth="yes"/>
      <point x="150" y="13"/>
      <point x="206" y="0"/>
      <point x="278" y="0" type="curve" smooth="yes"/>
      <point x="282" y="0" type="line"/>
      <point x="282" y="26" type="line"/>
      <point x="277" y="26" type="line" smooth="yes"/>
      <point x="214" y="26"/>
      <point x="167" y="34"/>
      <point x="132" y="60" type="curve" smooth="yes"/>
      <point x="104" y="81"/>
      <point x="87" y="113"/>
      <point x="87" y="160" type="curve" smooth="yes"/>
      <point x="87" y="205"/>
      <point x="103" y="237"/>
      <point x="130" y="258" type="curve" smooth="yes"/>
      <point x="167" y="287"/>
      <point x="211" y="297"/>
      <point x="303" y="297" type="curve" smooth="yes"/>
      <point x="436" y="297" type="line"/>
      <point x="436" y="323" type="line"/>
      <point x="303" y="323" type="line" smooth="yes"/>
      <point x="215" y="323"/>
      <point x="159" y="335"/>
      <point x="120" y="368" type="curve" smooth="yes"/>
      <point x="96" y="389"/>
      <point x="80" y="418"/>
      <point x="80" y="459" type="curve" smooth="yes"/>
      <point x="80" y="506"/>
      <point x="98" y="537"/>
      <point x="127" y="558" type="curve" smooth="yes"/>
      <point x="168" y="588"/>
      <point x="219" y="594"/>
      <point x="314" y="594" type="curve" smooth="yes"/>
      <point x="654" y="594" type="line"/>
      <point x="654" y="620" type="line"/>
      <point x="314" y="620" type="line" smooth="yes"/>
      <point x="208" y="620"/>
      <point x="153" y="612"/>
      <point x="108" y="578" type="curve" smooth="yes"/>
      <point x="75" y="553"/>
      <point x="53" y="513"/>
      <point x="53" y="459" type="curve" smooth="yes"/>
      <point x="53" y="368"/>
      <point x="116" y="316"/>
      <point x="229" y="306" type="curve"/>
      <point x="236" y="314" type="line"/>
      <point x="124" y="307"/>
      <point x="60" y="252"/>
    </contour>
  </outline>
</glyph>
<glyph name="uni0C77" format="2">
  <advance width="1005"/>
  <unicode hex="0C77"/>
  <outline>
    <contour>
      <point x="92" y="482" type="curve"/>
      <point x="66" y="484" type="line"/>
      <point x="55" y="416"/>
      <point x="51" y="366"/>
      <point x="51" y="324" type="curve" smooth="yes"/>
      <point x="51" y="-4"/>
      <point x="226" y="-194"/>
      <point x="512" y="-194" type="curve" smooth="yes"/>
      <point x="790" y="-194"/>
      <point x="954" y="-25"/>
      <point x="954" y="248" type="curve" smooth="yes"/>
      <point x="954" y="503"/>
      <point x="812" y="663"/>
      <point x="590" y="663" type="curve" smooth="yes"/>
      <point x="386" y="663"/>
      <point x="258" y="535"/>
      <point x="258" y="333" type="curve" smooth="yes"/>
      <point x="258" y="162"/>
      <point x="357" y="57"/>
      <point x="513" y="57" type="curve" smooth="yes"/>
      <point x="663" y="57"/>
      <point x="753" y="135"/>
      <point x="753" y="269" type="curve" smooth="yes"/>
      <point x="753" y="384"/>
      <point x="685" y="456"/>
      <point x="582" y="456" type="curve" smooth="yes"/>
      <point x="494" y="456"/>
      <point x="440" y="404"/>
      <point x="440" y="336" type="curve" smooth="yes"/>
      <point x="440" y="270"/>
      <point x="485" y="229"/>
      <point x="546" y="229" type="curve" smooth="yes"/>
      <point x="581" y="229"/>
      <point x="607" y="238"/>
      <point x="631" y="256" type="curve"/>
      <point x="617" y="277" type="line"/>
      <point x="595" y="263"/>
      <point x="577" y="255"/>
      <point x="545" y="255" type="curve" smooth="yes"/>
      <point x="498" y="255"/>
      <point x="467" y="288"/>
      <point x="467" y="336" type="curve" smooth="yes"/>
      <point x="467" y="391"/>
      <point x="511" y="430"/>
      <point x="583" y="430" type="curve" smooth="yes"/>
      <point x="672" y="430"/>
      <point x="726" y="369"/>
      <point x="726" y="269" type="curve" smooth="yes"/>
      <point x="726" y="150"/>
      <point x="648" y="83"/>
      <point x="513" y="83" type="curve" smooth="yes"/>
      <point x="372" y="83"/>
      <point x="285" y="177"/>
      <point x="285" y="333" type="curve" smooth="yes"/>
      <point x="285" y="522"/>
      <point x="402" y="637"/>
      <point x="590" y="637" type="curve" smooth="yes"/>
      <point x="796" y="637"/>
      <point x="927" y="488"/>
      <point x="927" y="248" type="curve" smooth="yes"/>
      <point x="927" y="-13"/>
      <point x="772" y="-168"/>
      <point x="512" y="-168" type="curve" smooth="yes"/>
      <point x="238" y="-168"/>
      <point x="77" y="14"/>
      <point x="77" y="324" type="curve" smooth="yes"/>
      <point x="77" y="377"/>
      <point x="83" y="423"/>
    </contour>
  </outline>
</glyph>
<glyph name="uni0C78" format="2">
  <advance width="569"/>
  <unicode hex="0C78"/>
  <outline>
    <contour>
      <point x="49" y="376" type="curve" smooth="yes"/>
      <point x="49" y="218"/>
      <point x="129" y="121"/>
      <point x="280" y="121" type="curve" smooth="yes"/>
      <point x="424" y="121"/>
      <point x="513" y="220"/>
      <point x="513" y="371" type="curve" smooth="yes"/>
      <point x="513" y="531"/>
      <point x="427" y="633"/>
      <point x="280" y="633" type="curve" smooth="yes"/>
      <point x="133" y="633"/>
      <point x="49" y="527"/>
    </contour>
    <contour>
      <point x="76" y="376" type="curve" smooth="yes"/>
      <point x="76" y="501"/>
      <point x="139" y="607"/>
      <point x="280" y="607" type="curve" smooth="yes"/>
      <point x="420" y="607"/>
      <point x="486" y="506"/>
      <point x="486" y="374" type="curve" smooth="yes"/>
      <point x="486" y="242"/>
      <point x="418" y="147"/>
      <point x="280" y="147" type="curve" smooth="yes"/>
      <point x="141" y="147"/>
      <point x="76" y="237"/>
    </contour>
    <contour>
      <point x="524" y="87" type="curve" smooth="yes"/>
      <point x="524" y="134"/>
      <point x="498" y="182"/>
      <point x="456" y="222" type="curve"/>
      <point x="439" y="202" type="line"/>
      <point x="471" y="171"/>
      <point x="497" y="129"/>
      <point x="497" y="86" type="curve" smooth="yes"/>
      <point x="497" y="32"/>
      <point x="471" y="-9"/>
      <point x="366" y="-55" type="curve"/>
      <point x="378" y="-79" type="line"/>
      <point x="483" y="-32"/>
      <point x="524" y="14"/>
    </contour>
  </outline>
</glyph>
<glyph name="uni0C79" format="2">
  <advance width="239"/>
  <unicode hex="0C79"/>
  <outline>
    <contour>
      <point x="133" y="0" type="line"/>
      <point x="133" y="620" type="line"/>
      <point x="106" y="620" type="line"/>
      <point x="106" y="0" type="line"/>
    </contour>
  </outline>
</glyph>
<glyph name="uni0C7A" format="2">
  <advance width="433"/>
  <unicode hex="0C7A"/>
  <outline>
    <contour>
      <point x="198" y="238" type="curve" smooth="yes"/>
      <point x="242" y="238"/>
      <point x="313" y="252"/>
      <point x="316" y="381" type="curve"/>
      <point x="309" y="397" type="line"/>
      <point x="309" y="620" type="line"/>
      <point x="303" y="620" type="line"/>
      <point x="303" y="414" type="line" smooth="yes"/>
      <point x="303" y="357"/>
      <point x="295" y="319"/>
      <point x="275" y="295" type="curve" smooth="yes"/>
      <point x="256" y="273"/>
      <point x="233" y="264"/>
      <point x="198" y="264" type="curve" smooth="yes"/>
      <point x="163" y="264"/>
      <point x="140" y="274"/>
      <point x="125" y="291" type="curve" smooth="yes"/>
      <point x="102" y="317"/>
      <point x="97" y="360"/>
      <point x="97" y="418" type="curve" smooth="yes"/>
      <point x="97" y="620" type="line"/>
      <point x="71" y="620" type="line"/>
      <point x="71" y="420" type="line" smooth="yes"/>
      <point x="71" y="340"/>
      <point x="81" y="301"/>
      <point x="106" y="272" type="curve" smooth="yes"/>
      <point x="126" y="249"/>
      <point x="155" y="238"/>
    </contour>
    <contour>
      <point x="329" y="0" type="line"/>
      <point x="329" y="620" type="line"/>
      <point x="303" y="620" type="line"/>
      <point x="303" y="0" type="line"/>
    </contour>
  </outline>
</glyph>
<glyph name="uni0C7B" format="2">
  <advance width="627"/>
  <unicode hex="0C7B"/>
  <outline>
    <contour>
      <point x="401" y="238" type="curve" smooth="yes"/>
      <point x="442" y="238"/>
      <point x="507" y="252"/>
      <point x="510" y="381" type="curve"/>
      <point x="503" y="397" type="line"/>
      <point x="503" y="620" type="line"/>
      <point x="497" y="620" type="line"/>
      <point x="497" y="414" type="line" smooth="yes"/>
      <point x="497" y="357"/>
      <point x="490" y="319"/>
      <point x="472" y="295" type="curve" smooth="yes"/>
      <point x="454" y="273"/>
      <point x="433" y="264"/>
      <point x="402" y="264" type="curve" smooth="yes"/>
      <point x="370" y="264"/>
      <point x="349" y="274"/>
      <point x="335" y="291" type="curve" smooth="yes"/>
      <point x="315" y="317"/>
      <point x="310" y="360"/>
      <point x="310" y="418" type="curve" smooth="yes"/>
      <point x="310" y="620" type="line"/>
      <point x="284" y="620" type="line"/>
      <point x="284" y="420" type="line" smooth="yes"/>
      <point x="284" y="340"/>
      <point x="293" y="301"/>
      <point x="316" y="272" type="curve" smooth="yes"/>
      <point x="335" y="249"/>
      <point x="361" y="238"/>
    </contour>
    <contour>
      <point x="523" y="0" type="line"/>
      <point x="523" y="620" type="line"/>
      <point x="497" y="620" type="line"/>
      <point x="497" y="0" type="line"/>
    </contour>
    <contour>
      <point x="188" y="238" type="curve" smooth="yes"/>
      <point x="232" y="238"/>
      <point x="295" y="255"/>
      <point x="301" y="380" type="curve"/>
      <point x="290" y="397" type="line"/>
      <point x="290" y="620" type="line"/>
      <point x="284" y="620" type="line"/>
      <point x="284" y="414" type="line" smooth="yes"/>
      <point x="284" y="357"/>
      <point x="277" y="319"/>
      <point x="259" y="295" type="curve" smooth="yes"/>
      <point x="241" y="273"/>
      <point x="220" y="264"/>
      <point x="189" y="264" type="curve" smooth="yes"/>
      <point x="157" y="264"/>
      <point x="136" y="274"/>
      <point x="122" y="291" type="curve" smooth="yes"/>
      <point x="102" y="317"/>
      <point x="97" y="360"/>
      <point x="97" y="418" type="curve" smooth="yes"/>
      <point x="97" y="620" type="line"/>
      <point x="71" y="620" type="line"/>
      <point x="71" y="420" type="line" smooth="yes"/>
      <point x="71" y="340"/>
      <point x="80" y="301"/>
      <point x="103" y="272" type="curve" smooth="yes"/>
      <point x="122" y="249"/>
      <point x="148" y="238"/>
    </contour>
  </outline>
</glyph>
<glyph name="uni0C7C" format="2">
  <advance width="585"/>
  <unicode hex="0C7C"/>
  <outline>
    <contour>
      <point x="32" y="301" type="line"/>
      <point x="553" y="301" type="line"/>
      <point x="553" y="327" type="line"/>
      <point x="32" y="327" type="line"/>
    </contour>
  </outline>
</glyph>
<glyph name="uni0C7D" format="2">
  <advance width="541"/>
  <unicode hex="0C7D"/>
  <outline>
    <contour>
      <point x="52" y="116" type="curve" smooth="yes"/>
      <point x="52" y="79"/>
      <point x="63" y="53"/>
      <point x="84" y="35" type="curve" smooth="yes"/>
      <point x="113" y="10"/>
      <point x="153" y="0"/>
      <point x="230" y="0" type="curve" smooth="yes"/>
      <point x="526" y="0" type="line"/>
      <point x="526" y="26" type="line"/>
      <point x="211" y="26" type="line" smooth="yes"/>
      <point x="109" y="26"/>
      <point x="79" y="61"/>
      <point x="79" y="116" type="curve" smooth="yes"/>
      <point x="79" y="184"/>
      <point x="133" y="208"/>
      <point x="263" y="243" type="curve" smooth="yes"/>
      <point x="387" y="276"/>
      <point x="454" y="301"/>
      <point x="454" y="388" type="curve" smooth="yes"/>
      <point x="454" y="424"/>
      <point x="443" y="449"/>
      <point x="423" y="467" type="curve" smooth="yes"/>
      <point x="397" y="490"/>
      <point x="359" y="500"/>
      <point x="291" y="500" type="curve" smooth="yes"/>
      <point x="53" y="500" type="line"/>
      <point x="53" y="474" type="line"/>
      <point x="300" y="474" type="line" smooth="yes"/>
      <point x="403" y="474"/>
      <point x="427" y="438"/>
      <point x="427" y="388" type="curve" smooth="yes"/>
      <point x="427" y="324"/>
      <point x="382" y="302"/>
      <point x="262" y="269" type="curve" smooth="yes"/>
      <point x="126" y="232"/>
      <point x="52" y="203"/>
    </contour>
  </outline>
</glyph>
<glyph name="uni0C7E" format="2">
  <advance width="541"/>
  <unicode hex="0C7E"/>
  <outline>
    <contour>
      <point x="52" y="76" type="curve"/>
      <point x="52" y="49"/>
      <point x="64" y="29"/>
      <point x="78" y="19" type="curve" smooth="yes"/>
      <point x="97" y="6"/>
      <point x="119" y="0"/>
      <point x="172" y="0" type="curve" smooth="yes"/>
      <point x="526" y="0" type="line"/>
      <point x="526" y="26" type="line"/>
      <point x="160" y="26" type="line" smooth="yes"/>
      <point x="102" y="26"/>
      <point x="79" y="41"/>
      <point x="79" y="75" type="curve" smooth="yes"/>
      <point x="79" y="113"/>
      <point x="97" y="136"/>
      <point x="264" y="163" type="curve" smooth="yes"/>
      <point x="410" y="187"/>
      <point x="454" y="202"/>
      <point x="454" y="265" type="curve" smooth="yes"/>
      <point x="454" y="284"/>
      <point x="447" y="301"/>
      <point x="435" y="311" type="curve" smooth="yes"/>
      <point x="416" y="327"/>
      <point x="392" y="332"/>
      <point x="347" y="332" type="curve" smooth="yes"/>
      <point x="149" y="332" type="line" smooth="yes"/>
      <point x="95" y="332"/>
      <point x="79" y="348"/>
      <point x="79" y="374" type="curve" smooth="yes"/>
      <point x="79" y="402"/>
      <point x="89" y="421"/>
      <point x="245" y="446" type="curve" smooth="yes"/>
      <point x="415" y="473"/>
      <point x="454" y="503"/>
      <point x="454" y="559" type="curve" smooth="yes"/>
      <point x="454" y="585"/>
      <point x="442" y="604"/>
      <point x="428" y="614" type="curve" smooth="yes"/>
      <point x="409" y="627"/>
      <point x="387" y="633"/>
      <point x="334" y="633" type="curve" smooth="yes"/>
      <point x="54" y="633" type="line"/>
      <point x="54" y="607" type="line"/>
      <point x="346" y="607" type="line" smooth="yes"/>
      <point x="404" y="607"/>
      <point x="427" y="592"/>
      <point x="427" y="560" type="curve" smooth="yes"/>
      <point x="427" y="522"/>
      <point x="409" y="499"/>
      <point x="242" y="472" type="curve" smooth="yes"/>
      <point x="96" y="448"/>
      <point x="52" y="432"/>
      <point x="52" y="372" type="curve" smooth="yes"/>
      <point x="52" y="354"/>
      <point x="59" y="337"/>
      <point x="71" y="327" type="curve" smooth="yes"/>
      <point x="90" y="311"/>
      <point x="114" y="306"/>
      <point x="171" y="306" type="curve" smooth="yes"/>
      <point x="357" y="306" type="line" smooth="yes"/>
      <point x="411" y="306"/>
      <point x="427" y="290"/>
      <point x="427" y="263" type="curve" smooth="yes"/>
      <point x="427" y="233"/>
      <point x="417" y="214"/>
      <point x="261" y="189" type="curve" smooth="yes"/>
      <point x="91" y="162"/>
      <point x="52" y="132"/>
    </contour>
  </outline>
</glyph>
<glyph name="uni0C7F" format="2">
  <advance width="697"/>
  <unicode hex="0C7F"/>
  <outline>
    <contour>
      <point x="303" y="-12" type="curve" smooth="yes"/>
      <point x="503" y="-12"/>
      <point x="603" y="117"/>
      <point x="666" y="320" type="curve"/>
      <point x="641" y="329" type="line"/>
      <point x="583" y="143"/>
      <point x="495" y="14"/>
      <point x="303" y="14" type="curve" smooth="yes"/>
      <point x="163" y="14"/>
      <point x="79" y="87"/>
      <point x="79" y="244" type="curve" smooth="yes"/>
      <point x="79" y="252" type="line" smooth="yes"/>
      <point x="79" y="380"/>
      <point x="137" y="467"/>
      <point x="218" y="467" type="curve" smooth="yes"/>
      <point x="267" y="467"/>
      <point x="298" y="438"/>
      <point x="298" y="382" type="curve" smooth="yes"/>
      <point x="298" y="325"/>
      <point x="266" y="290"/>
      <point x="194" y="290" type="curve" smooth="yes"/>
      <point x="143" y="290"/>
      <point x="106" y="315"/>
      <point x="87" y="341" type="curve"/>
      <point x="79" y="313" type="line"/>
      <point x="103" y="286"/>
      <point x="145" y="264"/>
      <point x="193" y="264" type="curve" smooth="yes"/>
      <point x="283" y="264"/>
      <point x="325" y="315"/>
      <point x="325" y="382" type="curve" smooth="yes"/>
      <point x="325" y="457"/>
      <point x="275" y="493"/>
      <point x="218" y="493" type="curve" smooth="yes"/>
      <point x="131" y="493"/>
      <point x="52" y="403"/>
      <point x="52" y="247" type="curve" smooth="yes"/>
      <point x="52" y="91"/>
      <point x="129" y="-12"/>
    </contour>
  </outline>
</glyph>
<glyph name="uni1CDA" format="2">
  <unicode hex="1CDA"/>
  <outline>
    <contour>
      <point x="-323" y="604" type="line"/>
      <point x="-323" y="804" type="line"/>
      <point x="-349" y="804" type="line"/>
      <point x="-349" y="604" type="line"/>
    </contour>
    <contour>
      <point x="-223" y="604" type="line"/>
      <point x="-223" y="804" type="line"/>
      <point x="-249" y="804" type="line"/>
      <point x="-249" y="604" type="line"/>
    </contour>
  </outline>
</glyph>
<glyph name="uni1CF2" format="2">
  <advance width="432"/>
  <unicode hex="1CF2"/>
  <outline>
    <contour>
      <point x="216" y="246" type="curve" smooth="yes"/>
      <point x="314" y="246"/>
      <point x="366" y="304"/>
      <point x="402" y="418" type="curve"/>
      <point x="377" y="426" type="line"/>
      <point x="342" y="321"/>
      <point x="302" y="272"/>
      <point x="215" y="272" type="curve" smooth="yes"/>
      <point x="129" y="272"/>
      <point x="90" y="321"/>
      <point x="55" y="426" type="curve"/>
      <point x="30" y="418" type="line"/>
      <point x="66" y="304"/>
      <point x="118" y="246"/>
    </contour>
    <contour>
      <point x="216" y="176" type="curve" smooth="yes"/>
      <point x="118" y="176"/>
      <point x="66" y="118"/>
      <point x="30" y="4" type="curve"/>
      <point x="55" y="-4" type="line"/>
      <point x="90" y="101"/>
      <point x="130" y="150"/>
      <point x="217" y="150" type="curve" smooth="yes"/>
      <point x="303" y="150"/>
      <point x="342" y="101"/>
      <point x="377" y="-4" type="curve"/>
      <point x="402" y="4" type="line"/>
      <point x="366" y="118"/>
      <point x="314" y="176"/>
    </contour>
  </outline>
</glyph>
<glyph name="quoteright.telu" format="2">
  <advance width="232"/>
  <unicode hex="2019"/>
  <outline>
    <contour>
      <point x="153" y="773" type="line"/>
      <point x="128" y="773" type="line"/>
      <point x="121" y="701"/>
      <point x="100" y="598"/>
      <point x="71" y="528" type="curve"/>
      <point x="93" y="528" type="line"/>
      <point x="123" y="597"/>
      <point x="148" y="682"/>
      <point x="159" y="764" type="curve"/>
    </contour>
  </outline>
</glyph>
<glyph name="quotedblleft.telu" format="2">
  <advance width="376"/>
  <unicode hex="201C"/>
  <outline>
    <contour>
      <point x="223" y="528" type="line"/>
      <point x="248" y="528" type="line"/>
      <point x="255" y="600"/>
      <point x="276" y="703"/>
      <point x="305" y="773" type="curve"/>
      <point x="283" y="773" type="line"/>
      <point x="253" y="704"/>
      <point x="228" y="619"/>
      <point x="217" y="537" type="curve"/>
    </contour>
    <contour>
      <point x="79" y="528" type="line"/>
      <point x="104" y="528" type="line"/>
      <point x="111" y="600"/>
      <point x="132" y="703"/>
      <point x="161" y="773" type="curve"/>
      <point x="139" y="773" type="line"/>
      <point x="109" y="704"/>
      <point x="84" y="619"/>
      <point x="73" y="537" type="curve"/>
    </contour>
  </outline>
</glyph>
<glyph name="quotedblright.telu" format="2">
  <advance width="376"/>
  <unicode hex="201D"/>
  <outline>
    <contour>
      <point x="297" y="773" type="line"/>
      <point x="272" y="773" type="line"/>
      <point x="265" y="701"/>
      <point x="244" y="598"/>
      <point x="215" y="528" type="curve"/>
      <point x="237" y="528" type="line"/>
      <point x="267" y="597"/>
      <point x="292" y="682"/>
      <point x="303" y="764" type="curve"/>
    </contour>
    <contour>
      <point x="153" y="773" type="line"/>
      <point x="128" y="773" type="line"/>
      <point x="121" y="701"/>
      <point x="100" y="598"/>
      <point x="71" y="528" type="curve"/>
      <point x="93" y="528" type="line"/>
      <point x="123" y="597"/>
      <point x="148" y="682"/>
      <point x="159" y="764" type="curve"/>
    </contour>
  </outline>
</glyph>
<glyph name="ellipsis.telu" format="2">
  <advance width="603"/>
  <unicode hex="2026"/>
  <outline>
    <contour>
      <point x="77" y="23" type="curve" smooth="yes"/>
      <point x="77" y="6"/>
      <point x="82" y="-8"/>
      <point x="102" y="-8" type="curve" smooth="yes"/>
      <point x="126" y="-8"/>
      <point x="129" y="6"/>
      <point x="129" y="23" type="curve" smooth="yes"/>
      <point x="129" y="39"/>
      <point x="126" y="54"/>
      <point x="102" y="54" type="curve" smooth="yes"/>
      <point x="82" y="54"/>
      <point x="77" y="39"/>
    </contour>
    <contour>
      <point x="275" y="23" type="curve" smooth="yes"/>
      <point x="275" y="6"/>
      <point x="280" y="-8"/>
      <point x="300" y="-8" type="curve" smooth="yes"/>
      <point x="324" y="-8"/>
      <point x="327" y="6"/>
      <point x="327" y="23" type="curve" smooth="yes"/>
      <point x="327" y="39"/>
      <point x="324" y="54"/>
      <point x="300" y="54" type="curve" smooth="yes"/>
      <point x="280" y="54"/>
      <point x="275" y="39"/>
    </contour>
    <contour>
      <point x="474" y="23" type="curve" smooth="yes"/>
      <point x="474" y="6"/>
      <point x="479" y="-8"/>
      <point x="499" y="-8" type="curve" smooth="yes"/>
      <point x="523" y="-8"/>
      <point x="526" y="6"/>
      <point x="526" y="23" type="curve" smooth="yes"/>
      <point x="526" y="39"/>
      <point x="523" y="54"/>
      <point x="499" y="54" type="curve" smooth="yes"/>
      <point x="479" y="54"/>
      <point x="474" y="39"/>
    </contour>
  </outline>
</glyph>
<glyph name="uni20B9.telu" format="2">
  <advance width="572"/>
  <unicode hex="20B9"/>
  <outline>
    <contour>
      <point x="336" y="0" type="line"/>
      <point x="370" y="0" type="line"/>
      <point x="120" y="281" type="line"/>
      <point x="264" y="284"/>
      <point x="326" y="342"/>
      <point x="331" y="450" type="curve"/>
      <point x="505" y="450" type="line"/>
      <point x="505" y="475" type="line"/>
      <point x="332" y="475" type="line"/>
      <point x="329" y="554"/>
      <point x="291" y="603"/>
      <point x="229" y="624" type="curve"/>
      <point x="505" y="624" type="line"/>
      <point x="505" y="649" type="line"/>
      <point x="78" y="649" type="line"/>
      <point x="78" y="624" type="line"/>
      <point x="123" y="624" type="line" smooth="yes"/>
      <point x="213" y="624"/>
      <point x="257" y="599"/>
      <point x="283" y="557" type="curve" smooth="yes"/>
      <point x="297" y="534"/>
      <point x="304" y="508"/>
      <point x="306" y="475" type="curve"/>
      <point x="78" y="475" type="line"/>
      <point x="78" y="450" type="line"/>
      <point x="306" y="450" type="line"/>
      <point x="299" y="334"/>
      <point x="220" y="306"/>
      <point x="113" y="306" type="curve" smooth="yes"/>
      <point x="87" y="306" type="line"/>
      <point x="84" y="285" type="line"/>
    </contour>
  </outline>
</glyph>
<glyph name="minus.telu" format="2">
  <advance width="572"/>
  <unicode hex="2212"/>
  <outline>
    <contour>
      <point x="56" y="313" type="line"/>
      <point x="516" y="313" type="line"/>
      <point x="516" y="339" type="line"/>
      <point x="56" y="339" type="line"/>
    </contour>
  </outline>
</glyph>
<glyph name="aavowelsign1telu" format="2">
  <outline>
    <contour>
      <point x="784" y="282" type="curve" smooth="yes"/>
      <point x="856" y="282"/>
      <point x="892" y="323"/>
      <point x="892" y="390" type="curve" smooth="yes"/>
      <point x="892" y="427"/>
      <point x="879" y="458"/>
      <point x="854" y="479" type="curve" smooth="yes"/>
      <point x="828" y="501"/>
      <point x="793" y="512"/>
      <point x="736" y="512" type="curve" smooth="yes"/>
      <point x="323" y="512" type="line"/>
      <point x="323" y="487" type="line"/>
      <point x="746" y="487" type="line" smooth="yes"/>
      <point x="822" y="487"/>
      <point x="866" y="454"/>
      <point x="866" y="390" type="curve" smooth="yes"/>
      <point x="866" y="340"/>
      <point x="843" y="307"/>
      <point x="783" y="307" type="curve" smooth="yes"/>
      <point x="741" y="307"/>
      <point x="698" y="332"/>
      <point x="698" y="391" type="curve" smooth="yes"/>
      <point x="698" y="425"/>
      <point x="714" y="459"/>
      <point x="750" y="494" type="curve"/>
      <point x="726" y="500" type="line"/>
      <point x="693" y="471"/>
      <point x="672" y="430"/>
      <point x="672" y="391" type="curve" smooth="yes"/>
      <point x="672" y="323"/>
      <point x="721" y="282"/>
    </contour>
  </outline>
</glyph>
<glyph name="aavowelsign2telu" format="2">
  <advance width="939"/>
  <outline>
    <contour>
      <point x="803" y="263" type="curve" smooth="yes"/>
      <point x="875" y="263"/>
      <point x="911" y="304"/>
      <point x="911" y="371" type="curve" smooth="yes"/>
      <point x="911" y="408"/>
      <point x="898" y="439"/>
      <point x="873" y="460" type="curve" smooth="yes"/>
      <point x="847" y="482"/>
      <point x="812" y="493"/>
      <point x="755" y="493" type="curve" smooth="yes"/>
      <point x="95" y="493" type="line"/>
      <point x="95" y="468" type="line"/>
      <point x="765" y="468" type="line" smooth="yes"/>
      <point x="841" y="468"/>
      <point x="885" y="435"/>
      <point x="885" y="371" type="curve" smooth="yes"/>
      <point x="885" y="321"/>
      <point x="862" y="288"/>
      <point x="802" y="288" type="curve" smooth="yes"/>
      <point x="760" y="288"/>
      <point x="717" y="313"/>
      <point x="717" y="372" type="curve" smooth="yes"/>
      <point x="717" y="406"/>
      <point x="733" y="440"/>
      <point x="769" y="475" type="curve"/>
      <point x="745" y="481" type="line"/>
      <point x="712" y="452"/>
      <point x="691" y="411"/>
      <point x="691" y="372" type="curve" smooth="yes"/>
      <point x="691" y="304"/>
      <point x="740" y="263"/>
    </contour>
  </outline>
</glyph>
<glyph name="ailengthmarkUItelu" format="2">
  <outline>
    <contour>
      <point x="-445" y="-68" type="curve" smooth="yes"/>
      <point x="-506" y="-68"/>
      <point x="-548" y="-106"/>
      <point x="-548" y="-167" type="curve" smooth="yes"/>
      <point x="-548" y="-202"/>
      <point x="-534" y="-230"/>
      <point x="-509" y="-250" type="curve" smooth="yes"/>
      <point x="-484" y="-270"/>
      <point x="-446" y="-280"/>
      <point x="-385" y="-280" type="curve" smooth="yes"/>
      <point x="-33" y="-280" type="line"/>
      <point x="-33" y="-255" type="line"/>
      <point x="-402" y="-255" type="line" smooth="yes"/>
      <point x="-478" y="-255"/>
      <point x="-522" y="-225"/>
      <point x="-522" y="-168" type="curve" smooth="yes"/>
      <point x="-522" y="-122"/>
      <point x="-494" y="-93"/>
      <point x="-446" y="-93" type="curve" smooth="yes"/>
      <point x="-404" y="-93"/>
      <point x="-369" y="-116"/>
      <point x="-369" y="-169" type="curve" smooth="yes"/>
      <point x="-369" y="-200"/>
      <point x="-381" y="-231"/>
      <point x="-418" y="-262" type="curve"/>
      <point x="-394" y="-268" type="line"/>
      <point x="-360" y="-241"/>
      <point x="-343" y="-204"/>
      <point x="-343" y="-168" type="curve" smooth="yes"/>
      <point x="-343" y="-104"/>
      <point x="-389" y="-68"/>
    </contour>
  </outline>
</glyph>
<glyph name="ailengthmarknarrowUItelu" format="2">
  <outline>
    <contour>
      <point x="-334" y="-67" type="curve" smooth="yes"/>
      <point x="-395" y="-67"/>
      <point x="-437" y="-105"/>
      <point x="-437" y="-166" type="curve" smooth="yes"/>
      <point x="-437" y="-201"/>
      <point x="-423" y="-229"/>
      <point x="-398" y="-249" type="curve" smooth="yes"/>
      <point x="-373" y="-269"/>
      <point x="-335" y="-279"/>
      <point x="-274" y="-279" type="curve" smooth="yes"/>
      <point x="14" y="-279" type="line"/>
      <point x="14" y="-254" type="line"/>
      <point x="-291" y="-254" type="line" smooth="yes"/>
      <point x="-367" y="-254"/>
      <point x="-411" y="-224"/>
      <point x="-411" y="-167" type="curve" smooth="yes"/>
      <point x="-411" y="-121"/>
      <point x="-383" y="-92"/>
      <point x="-335" y="-92" type="curve" smooth="yes"/>
      <point x="-293" y="-92"/>
      <point x="-258" y="-115"/>
      <point x="-258" y="-168" type="curve" smooth="yes"/>
      <point x="-258" y="-199"/>
      <point x="-270" y="-230"/>
      <point x="-307" y="-261" type="curve"/>
      <point x="-283" y="-267" type="line"/>
      <point x="-249" y="-240"/>
      <point x="-232" y="-203"/>
      <point x="-232" y="-167" type="curve" smooth="yes"/>
      <point x="-232" y="-103"/>
      <point x="-278" y="-67"/>
    </contour>
  </outline>
</glyph>
<glyph name="ailengthmarknarrowtelu" format="2">
  <outline>
    <contour>
      <point x="-334" y="-82" type="curve" smooth="yes"/>
      <point x="-395" y="-82"/>
      <point x="-437" y="-120"/>
      <point x="-437" y="-181" type="curve" smooth="yes"/>
      <point x="-437" y="-216"/>
      <point x="-423" y="-244"/>
      <point x="-398" y="-264" type="curve" smooth="yes"/>
      <point x="-373" y="-284"/>
      <point x="-335" y="-294"/>
      <point x="-274" y="-294" type="curve" smooth="yes"/>
      <point x="14" y="-294" type="line"/>
      <point x="14" y="-269" type="line"/>
      <point x="-291" y="-269" type="line" smooth="yes"/>
      <point x="-367" y="-269"/>
      <point x="-411" y="-239"/>
      <point x="-411" y="-182" type="curve" smooth="yes"/>
      <point x="-411" y="-136"/>
      <point x="-383" y="-107"/>
      <point x="-335" y="-107" type="curve" smooth="yes"/>
      <point x="-293" y="-107"/>
      <point x="-258" y="-130"/>
      <point x="-258" y="-183" type="curve" smooth="yes"/>
      <point x="-258" y="-214"/>
      <point x="-270" y="-245"/>
      <point x="-307" y="-276" type="curve"/>
      <point x="-283" y="-282" type="line"/>
      <point x="-249" y="-255"/>
      <point x="-232" y="-218"/>
      <point x="-232" y="-182" type="curve" smooth="yes"/>
      <point x="-232" y="-118"/>
      <point x="-278" y="-82"/>
    </contour>
  </outline>
</glyph>
<glyph name="ailengthmarkwideUItelu" format="2">
  <outline>
    <contour>
      <point x="-493" y="-67" type="curve" smooth="yes"/>
      <point x="-554" y="-67"/>
      <point x="-596" y="-105"/>
      <point x="-596" y="-166" type="curve" smooth="yes"/>
      <point x="-596" y="-201"/>
      <point x="-582" y="-229"/>
      <point x="-557" y="-249" type="curve" smooth="yes"/>
      <point x="-532" y="-269"/>
      <point x="-494" y="-279"/>
      <point x="-433" y="-279" type="curve" smooth="yes"/>
      <point x="-35" y="-279" type="line"/>
      <point x="-35" y="-254" type="line"/>
      <point x="-450" y="-254" type="line" smooth="yes"/>
      <point x="-526" y="-254"/>
      <point x="-570" y="-224"/>
      <point x="-570" y="-167" type="curve" smooth="yes"/>
      <point x="-570" y="-121"/>
      <point x="-542" y="-92"/>
      <point x="-494" y="-92" type="curve" smooth="yes"/>
      <point x="-452" y="-92"/>
      <point x="-417" y="-115"/>
      <point x="-417" y="-168" type="curve" smooth="yes"/>
      <point x="-417" y="-199"/>
      <point x="-429" y="-230"/>
      <point x="-466" y="-261" type="curve"/>
      <point x="-442" y="-267" type="line"/>
      <point x="-408" y="-240"/>
      <point x="-391" y="-203"/>
      <point x="-391" y="-167" type="curve" smooth="yes"/>
      <point x="-391" y="-103"/>
      <point x="-437" y="-67"/>
    </contour>
  </outline>
</glyph>
